<?xml version="1.0" encoding="UTF-8"?>
<svg width="159px" height="638px" viewBox="0 0 159 638" version="1.1" xmlns="http://www.w3.org/2000/svg" xmlns:xlink="http://www.w3.org/1999/xlink">
    <!-- Generator: Sketch 49 (51002) - http://www.bohemiancoding.com/sketch -->
    <title>Group 38</title>
    <desc>Created with Sketch.</desc>
    <defs></defs>
    <g id="Page-1" stroke="none" stroke-width="1" fill="none" fill-rule="evenodd" opacity="0.598958333">
        <g id="Desktop-HD" transform="translate(-1187.000000, -3828.000000)">
            <g id="Group-18" transform="translate(-94.000000, 3732.000000)">
                <g id="Group-26">
                    <g id="Group-30">
                        <g id="Group-27" transform="translate(139.000000, 85.000000)">
                            <g id="Group-38" transform="translate(1135.000000, 0.000000)">
                                <g id="shoe3" transform="translate(104.272710, 626.049099) rotate(15.000000) translate(-104.272710, -626.049099) translate(54.272710, 614.549099)" fill="#FFFFFF" fill-rule="nonzero" stroke="#FFFFFF" stroke-linecap="round" stroke-linejoin="round" stroke-width="0.707213579">
                                    <path d="M9.56577086,22.9730247 C10.801174,22.9878247 12.0242666,22.7254048 13.145686,22.2049383 C19.7934936,19.1893827 31.0707214,20.4061111 35.5190948,21.8798148 C40.3719943,23.5352469 45.602546,20.4302469 47.2022631,15.0366049 C48.8019802,9.64296296 46.1683168,4.06191358 41.3168317,2.47746914 C33.903819,0.115 17.6478076,-1.83432099 5.6251768,3.43580247 C0.957567185,5.50580247 -1.14427157,11.3580247 0.932107496,16.5869753 C2.4893918,20.5054938 5.95898161,22.9275926 9.56577086,22.9730247 Z" id="Shape" opacity="0.500905797"></path>
                                    <path d="M0.932107496,16.5869753 C2.3281471,20.0980247 5.25601132,22.407963 8.44554455,22.8807407 C6.72135785,20.3081481 5.14002829,16.7587654 4.04101839,12.6968519 C3.39452764,10.3394647 2.96416413,7.92767274 2.7553041,5.49160494 C0.193776521,8.24592593 -0.650636492,12.6017284 0.932107496,16.5869753 Z" id="Shape"></path>
                                    <path d="M37.5502122,9.89709877 C37.7908822,11.5120164 38.1290819,13.1107644 38.562942,14.6845062 C39.3380481,17.4700617 40.3578501,19.8609259 41.5007072,21.6412963 C42.1102526,21.3829058 42.6902274,21.0592198 43.2305516,20.6758642 C44.0119072,20.1238836 44.7098124,19.461605 45.3026874,18.7095062 C44.5738732,17.0494656 43.9889645,15.3294579 43.5544554,13.5685802 C43.2432815,12.3333951 42.9787836,11.028642 42.7751061,9.67135802 C42.5540272,8.20264356 42.4123769,6.72298584 42.3507779,5.23888889 C42.3168317,4.43104938 42.3097595,3.64024691 42.3281471,2.875 C42.0013063,2.72012177 41.6649285,2.58639184 41.321075,2.47462963 C39.9626591,2.03982654 38.581521,1.68008941 37.1838755,1.39703704 C37.1485149,1.88117284 37.1216407,2.37808642 37.1089109,2.88635802 C37.0480048,5.23179468 37.1956907,7.5780091 37.5502122,9.89709877 Z" id="Shape"></path>
                                    <path d="M8.87694484,2.19919753 C8.92079208,4.94641975 9.37199434,8.11388889 10.2630835,11.3935185 C11.3719943,15.4809877 12.9731259,19.0374691 14.718529,21.5901852 C15.7858593,21.2409493 16.8787744,20.976067 17.9872702,20.797963 C19.0127298,20.6261728 20.0721358,20.5140123 21.1442716,20.4345062 C19.7213579,17.842037 18.4978784,14.4374691 17.7256011,10.6098148 C16.980198,6.91845679 16.7652051,3.40882716 17.0183876,0.482716049 C15.8727016,0.61617284 14.7340877,0.790802469 13.602546,1.00660494 C12.0046489,1.30730042 10.4265169,1.70557114 8.87694484,2.19919753 Z" id="Shape"></path>
                                    <path d="M25.0735502,10.1938272 C25.678925,14.2344444 26.8005658,17.8335185 28.1725601,20.5353086 C29.0990099,20.6176543 29.990099,20.722716 30.8302687,20.8448148 C32.0207548,21.0109409 33.2012294,21.2427112 34.3663366,21.5390741 C33.1980198,19.5883333 32.1697313,16.9958642 31.4214993,14.0143827 C31.1103253,12.7720988 30.8458274,11.4588272 30.6421499,10.097284 C30.421258,8.62521392 30.2796096,7.14225847 30.2178218,5.65487654 C30.1378995,3.89816483 30.1965454,2.13785956 30.3932107,0.390432099 C29.748232,0.329382716 29.0891089,0.276851852 28.4214993,0.231419753 C27.2673267,0.154753086 26.0820368,0.106481481 24.8783593,0.0894444444 C24.4809052,2.99709877 24.5190948,6.49679012 25.0735502,10.1938272 Z" id="Shape"></path>
                                    <path d="M90.476662,22.9730247 C89.2412588,22.9878247 88.0181662,22.7254048 86.8967468,22.2049383 C80.2489392,19.1893827 68.9717115,20.4061111 64.523338,21.8798148 C59.6704385,23.5352469 54.4398868,20.4302469 52.8401697,15.0366049 C51.2404526,9.64296296 53.874116,4.06191358 58.7256011,2.47746914 C66.1386139,0.115 82.3946252,-1.83432099 94.417256,3.43580247 C99.0848656,5.50580247 101.18529,11.3580247 99.1103253,16.5869753 C97.553041,20.5054938 94.0834512,22.9275926 90.476662,22.9730247 Z" id="Shape" opacity="0.503509964"></path>
                                    <path d="M99.1103253,16.5869753 C97.7142857,20.0980247 94.7864215,22.407963 91.5968883,22.8807407 C93.321075,20.3081481 94.9024045,16.7587654 96.0014144,12.6968519 C96.6479052,10.3394647 97.0782687,7.92767274 97.2871287,5.49160494 C99.8486563,8.24592593 100.693069,12.6017284 99.1103253,16.5869753 Z" id="Shape"></path>
                                    <path d="M62.4922207,9.89709877 C62.2515506,11.5120164 61.9133509,13.1107644 61.4794908,14.6845062 C60.7043847,17.4700617 59.6845827,19.8609259 58.5417256,21.6412963 C57.9321802,21.3829058 57.3522054,21.0592198 56.8118812,20.6758642 C56.0303992,20.123531 55.3320743,19.4613059 54.738331,18.7095062 C55.4682657,17.0497612 56.0536671,15.3296962 56.4879774,13.5685802 C56.7991513,12.3333951 57.0636492,11.028642 57.2673267,9.67135802 C57.4884056,8.20264356 57.6300559,6.72298584 57.6916549,5.23888889 C57.7256011,4.43104938 57.7326733,3.64024691 57.7142857,2.875 C58.0411265,2.72012177 58.3775043,2.58639184 58.7213579,2.47462963 C60.0797737,2.03982654 61.4609118,1.68008941 62.8585573,1.39703704 C62.893918,1.88117284 62.9207921,2.37808642 62.9335219,2.88635802 C62.994428,5.23179468 62.8467421,7.5780091 62.4922207,9.89709877 Z" id="Shape"></path>
                                    <path d="M91.165488,2.19919753 C91.1216407,4.94641975 90.6704385,8.11388889 89.7793494,11.3935185 C88.669024,15.4809877 87.0693069,19.0374691 85.3239038,21.5901852 C84.2565278,21.241111 83.1636255,20.9762318 82.0551627,20.797963 C81.029703,20.6261728 79.970297,20.5140123 78.8981612,20.4345062 C80.321075,17.842037 81.54314,14.4374691 82.3168317,10.6098148 C83.0622348,6.91845679 83.2772277,3.40882716 83.0311174,0.482716049 C84.1768034,0.61617284 85.3154173,0.790802469 86.446959,1.00660494 C88.0424709,1.30758166 89.6182329,1.70585029 91.165488,2.19919753 Z" id="Shape"></path>
                                    <path d="M74.9646393,10.1938272 C74.3592645,14.2344444 73.2376238,17.8335185 71.8656294,20.5353086 C70.9391796,20.6176543 70.0466761,20.722716 69.2079208,20.8448148 C68.0174348,21.0109409 66.8369602,21.2427112 65.6718529,21.5390741 C66.8387553,19.5883333 67.8670438,16.9958642 68.6166902,14.0143827 C68.9278642,12.7720988 69.1923621,11.4588272 69.3960396,10.097284 C69.6169315,8.62521392 69.7585799,7.14225847 69.8203678,5.65487654 C69.9002901,3.89816483 69.8416441,2.13785956 69.6449788,0.390432099 C70.2899576,0.329382716 70.9490806,0.276851852 71.6166902,0.231419753 C72.7708628,0.154753086 73.9561528,0.106481481 75.1527581,0.0894444444 C75.5615276,2.99709877 75.5304102,6.49679012 74.9646393,10.1938272 Z" id="Shape"></path>
                                </g>
                                <g id="glasses3_0" transform="translate(62.879940, 274.375368) rotate(20.000000) translate(-62.879940, -274.375368) translate(2.879940, 255.375368)">
                                    <path d="M54.1176471,6.21491857 C54.7987616,5.7167101 57.0278638,4.2134202 60.247678,4.27469055 C63.479257,4.3365798 65.6588235,5.93703583 66.3157895,6.46123779" id="Shape" stroke="#FFFFFF" stroke-width="1.16904025" stroke-linecap="round"></path>
                                    <path d="M0.0321981424,13.5388925 C1.82043344,12.4558306 4.59566563,11.1208795 7.85201238,10.2934202 C12.5578947,9.09648208 17.3690402,9.50990228 19.8371517,9.8880456" id="Shape" stroke="#FFFFFF" stroke-width="1.23839009" stroke-linecap="round" stroke-linejoin="round"></path>
                                    <path d="M46.25387,0.15286645 C50.6647732,0.801533171 55.1162557,1.13575346 59.574613,1.15299674 C64.6053463,1.17190159 69.6294966,0.787575493 74.5987616,0.00371335505" id="Shape" stroke="#FFFFFF" stroke-width="1.16904025" stroke-linecap="round" stroke-linejoin="round"></path>
                                    <path d="M119.951703,13.4299674 C118.380805,12.2262215 115.541176,10.7285016 111.495975,9.75745928 C106.813622,8.63355049 101.48483,9.15589577 99.4904025,9.63368078" id="Shape" stroke="#FFFFFF" stroke-width="1.23839009" stroke-linecap="round" stroke-linejoin="round"></path>
                                    <path d="M18.7356037,17.4837134 C18.819195,27.0697394 23.6513932,38.2166124 35.0402477,37.9740065 C46.4291022,37.7314007 58.5479876,21.4136808 58.4520124,10.3887296 C58.4105263,5.6585342 54.0811146,0.206091205 40.9541796,0.320586319 C32.9770898,0.38990228 18.5857585,0.309446254 18.7356037,17.4837134 Z" id="Shape" stroke="#FFFFFF" stroke-width="0.6" fill="#FFFFFF" fill-rule="nonzero" opacity="0.504245924"></path>
                                    <path d="M100.866873,16.8567752 C100.951084,26.4428013 96.3145511,37.6695114 84.9226006,37.6286645 C73.5306502,37.5878176 61.2724458,21.2843322 61.1764706,10.2593811 C61.1349845,5.52918567 65.2247678,0.198045603 78.3517028,0.0835504886 C86.3287926,0.0142345277 100.716409,-0.319967427 100.866873,16.8567752 Z" id="Shape" stroke="#FFFFFF" stroke-width="0.6" fill="#FFFFFF" fill-rule="nonzero" opacity="0.5"></path>
                                    <path d="M57.9331269,13.2288274 C57.1826625,17.9324104 54.6068111,23.3706189 50.8260062,28.0426384 C48.5547988,30.849316 45.9733746,33.2091531 43.3603715,34.8671661 C40.504644,36.6792834 37.7034056,37.6261889 35.0346749,37.6825081 C31.1065015,37.7648208 27.7517028,36.4849511 25.0656347,33.8769381 C21.3442724,30.2669381 19.0879257,24.1374267 19.0297214,17.4812378 C19.0117647,15.4432248 19.2043344,13.582215 19.6037152,11.9112052 C19.5851393,12.3621716 19.5779154,12.8269598 19.5820433,13.30557 C19.6637771,22.6978827 24.3981424,33.6170033 35.5572755,33.382443 C44.4167183,33.1961564 54.2910217,22.8785993 57.9331269,13.2288274 Z" id="Shape" fill="#FFFFFF" fill-rule="nonzero" opacity="0.1"></path>
                                    <path d="M94.8260062,33.3583062 C92.1975232,35.9985016 88.8873065,37.3371661 84.9845201,37.3371661 L84.9226006,37.3371661 C82.2563467,37.3272638 79.4470588,36.4193485 76.5727554,34.637557 C73.9479876,33.0098697 71.3424149,30.6723127 69.0383901,27.8773941 C65.3851393,23.444886 62.806192,18.2981759 61.8637771,13.7381759 C65.8043344,23.1868078 75.676161,33.0129642 84.4024768,33.0445277 C95.5634675,33.0841368 100.106502,22.0845603 100.024149,12.6922476 C100.020846,12.3456678 100.011765,12.0061021 99.996904,11.6735505 C100.368421,13.2405863 100.560372,14.9728664 100.576471,16.8592508 C100.632817,23.5179153 98.4835913,29.6839414 94.8260062,33.3583062 Z" id="Shape" fill="#FFFFFF" fill-rule="nonzero" opacity="0.1"></path>
                                </g>
                                <g id="hat7" transform="translate(122.141016, 46.846788) rotate(-30.000000) translate(-122.141016, -46.846788) translate(82.141016, 15.846788)" fill="#FFFFFF" fill-rule="nonzero" stroke="#FFFFFF" stroke-width="0.5">
                                    <path d="M37.4102564,39.572899 C50.9701632,41.8729873 57.7501166,43.0230315 64.3566434,40.8557118 C68.4680653,39.5067461 71.616317,37.3708837 75.0270396,38.596333 C77.960373,39.6501546 79.6340326,42.6672857 79.9407925,45.031214 C80.795338,51.6196809 70.4867133,56.9891751 68.6452214,57.9629655 C59.390676,62.8555105 50.2624709,61.8433236 39.9822844,60.7029943 C31.8149184,59.7972073 22.5846154,58.672144 12.9738928,52.6179896 C8.56456876,49.84234 -0.117016317,44.249406 0.0205128205,36.9216911 C0.0867132867,33.3915274 2.25407925,29.1309052 5.56130536,28.6844882 C8.25967366,28.3204155 10.4713287,30.6630638 13.5170163,32.7475767 C18.9006993,36.4331767 25.0703963,37.4795966 37.4102564,39.572899 Z" id="Shape" opacity="0.504076087"></path>
                                    <path d="M47.6829837,2.01928509 C48.9058275,2.22190751 55.2652681,3.29284565 63.4358974,5.49994969 C70.9356643,7.52617391 73.2321678,8.6840824 74.1874126,10.5113851 C75.1515152,12.3562668 74.2578089,13.9837227 72.9729604,17.1567528 C72.9729604,17.1567528 70.5659674,23.1008064 68.9417249,29.8784802 C66.8358974,38.6680373 65.6909091,46.5957551 65.6909091,46.5957551 C65.6400932,46.9445618 65.5682984,47.4492674 65.3645688,48.0062478 C65.0915046,48.6414204 64.7085779,49.2243011 64.2331002,49.7285383 C61.4237762,52.6429704 54.3846154,52.6096626 54.3846154,52.6096626 C45.0055944,52.5634018 38.2074592,51.5396497 38.2074592,51.5396497 C32.8590254,50.7347986 27.5913002,49.4697295 22.4638695,47.7587523 C20.2261072,47.0111774 14.9114219,45.1380765 14.155711,42.0381385 C13.818648,40.658178 13.8526807,38.9266353 13.8526807,38.9266353 C14.5319347,34.7960061 14.7613054,30.5996865 15.4074592,26.465819 C16.5934732,18.8734921 15.5473193,7.54514084 15.3855478,5.8024955 C15.3109557,4.99570668 15.1706294,3.60649405 16.1351981,2.36392825 C17.5897436,0.491752588 20.8536131,-0.144333779 28.4382284,0.0462608268 C34.9356643,0.205398071 40.7864802,0.878955708 47.6829837,2.01928509 Z" id="Shape" opacity="0.503113678"></path>
                                    <path d="M67.169697,38.0851508 C66.2018648,43.0568019 65.6904429,46.597143 65.6904429,46.597143 C65.6400932,46.9459496 65.5682984,47.4506552 65.3641026,48.007173 C65.0910861,48.6425094 64.7081571,49.2255501 64.232634,49.7299262 C61.42331,52.6443582 54.3841492,52.6105878 54.3841492,52.6105878 C45.0051282,52.564327 38.206993,51.5405749 38.206993,51.5405749 C32.8585119,50.7359628 27.5907659,49.4708887 22.4634033,47.7596775 C20.225641,47.0121026 14.9109557,45.1394643 14.1552448,42.0390637 C13.8181818,40.6591032 13.8522145,38.9275605 13.8522145,38.9275605 C14.3701632,35.7776608 14.6265734,32.5898272 15.0055944,29.4209606 C15.0282828,29.5393883 15.0537685,29.6559656 15.0820513,29.7706925 C15.8745921,33.0131138 21.4307692,34.9717972 23.7706294,35.7536052 C29.1329651,37.5428568 34.6420004,38.8658151 40.2354312,39.707518 C40.2354312,39.707518 47.3421911,40.7784562 57.1515152,40.8265674 C57.1524476,40.8265674 64.0699301,40.8603378 67.169697,38.0851508 Z" id="Shape"></path>
                                </g>
                            </g>
                        </g>
                    </g>
                </g>
            </g>
        </g>
    </g>
</svg>