<?xml version="1.0" encoding="UTF-8"?>
<svg width="130px" height="676px" viewBox="0 0 130 676" version="1.1" xmlns="http://www.w3.org/2000/svg" xmlns:xlink="http://www.w3.org/1999/xlink">
    <!-- Generator: Sketch 49 (51002) - http://www.bohemiancoding.com/sketch -->
    <title>Group 37</title>
    <desc>Created with Sketch.</desc>
    <defs></defs>
    <g id="Page-1" stroke="none" stroke-width="1" fill="none" fill-rule="evenodd" opacity="0.598958333">
        <g id="Desktop-HD" transform="translate(-657.000000, -3838.000000)">
            <g id="Group-18" transform="translate(-94.000000, 3732.000000)">
                <g id="Group-26">
                    <g id="Group-30">
                        <g id="Group-27" transform="translate(139.000000, 85.000000)">
                            <g id="Group-37" transform="translate(600.000000, 1.000000)">
                                <g id="shoe2" transform="translate(60.000000, 670.500000) rotate(-15.000000) translate(-60.000000, -670.500000) translate(10.000000, 657.000000)" fill="#FFFFFF" fill-rule="nonzero" stroke="#FFFFFF" stroke-linecap="round" stroke-linejoin="round" stroke-width="0.655307995">
                                    <path d="M52.5557012,12.3005769 C52.5357384,12.1503233 52.5243616,11.9990727 52.5216252,11.8475481 L52.3997379,5.14168269 C52.3512451,2.54552885 54.7732634,0.390721154 57.8086501,0.338798077 L70.3735256,0.127211538 C74.4469201,0.0584134615 78.0353866,1.90168269 79.9777195,4.69644231 C81.1834862,4.68865385 82.3896898,4.68865385 83.5963303,4.69644231 C92.474443,4.73149038 99.7732634,11.3075481 99.9108781,18.9012981 L99.9803408,22.696875 C100.017038,24.7361538 98.1205767,26.2873558 95.7418087,26.2016827 C84.1058239,25.7567861 72.4546198,25.8910899 60.8322412,26.6040865 C56.3918742,26.8753846 52.7444299,24.1026923 52.6749672,20.2915385 L52.5439056,12.8379808 C52.5307995,12.6523558 52.5373526,12.4758173 52.5557012,12.3005769 Z" id="Shape" opacity="0.497339221"></path>
                                    <path d="M47.3027523,12.3317308 C47.3200862,12.1813297 47.3288375,12.0300796 47.3289646,11.8787019 L47.3289646,5.17024038 C47.3289646,2.57408654 44.8715596,0.460817308 41.836173,0.462115385 L29.2686763,0.468605769 C25.1952818,0.468605769 21.6395806,2.37548077 19.7470511,5.20269231 C18.5412844,5.21653846 17.3350808,5.23644231 16.1284404,5.26240385 C7.25294889,5.45192308 0.0707732634,12.1525962 0.0668414155,19.7476442 L0.0668414155,23.5432212 C0.0668414155,25.5825 1.98951507,27.10125 4.36697248,26.9688462 C15.9932103,26.3235282 27.6448176,26.2563765 39.2778506,26.7676442 C43.7221494,26.9623558 47.3211009,24.1273558 47.3237221,20.3162019 L47.3237221,12.8613462 C47.3289646,12.6887019 47.3132372,12.5121635 47.3027523,12.3317308 Z" id="Shape" opacity="0.5"></path>
                                    <g id="Group" transform="translate(0.000000, 4.283654)">
                                        <path d="M99.9750983,18.410625 C100.013106,20.4486058 98.1153342,22.0011058 95.7365662,21.9154327 C84.1005814,21.4705361 72.4493773,21.6048399 60.8269987,22.3178365 C56.3866317,22.5878365 52.7391874,19.8164423 52.6697248,16.0052885 C52.6242901,13.5207692 52.5806029,11.03625 52.5386632,8.55173077 C52.5386632,8.37389423 52.5386632,8.19735577 52.5557012,8.02211538 C52.5357826,7.87185727 52.524406,7.72060917 52.5216252,7.56908654 L52.3997379,0.863221154 C52.3944098,0.5811246 52.4185664,0.299239068 52.4718218,0.0220673077 L52.5216252,2.70129808 C52.524406,2.85282071 52.5357826,3.00406881 52.5557012,3.15432692 C52.542595,3.32956731 52.5360419,3.50610577 52.5386632,3.68394231 C52.5832241,6.16846154 52.6269113,8.65298077 52.6697248,11.1375 C52.7391874,14.9486538 56.3866317,17.7200481 60.8269987,17.4500481 C72.4493773,16.7370515 84.1005814,16.6027476 95.7365662,17.0476442 C97.8086501,17.128125 99.5150721,15.9598558 99.8964613,14.3112981 C99.8964613,14.4151442 99.904325,14.5163942 99.9056356,14.6202404 C99.9292267,15.8811058 99.952381,17.1445673 99.9750983,18.410625 Z" id="Shape"></path>
                                        <path d="M47.3263434,8.41024038 C47.3263434,8.46735577 47.3263434,8.52447115 47.3263434,8.58288462 C47.3263434,11.0691346 47.3263434,13.5536538 47.3263434,16.0364423 C47.3263434,19.8488942 43.7260813,22.6825962 39.2817824,22.4904808 C27.6487747,21.9779151 15.9971016,22.0450672 4.37090433,22.6916827 C1.99475754,22.8214904 0.0694626474,21.3040385 0.0707732634,19.2660577 C0.0707732634,18.0008654 0.0707732634,16.7352404 0.0707732634,15.4691827 C0.0707732634,15.2368269 0.0707732634,15.0070673 0.0904325033,14.7773077 C0.313237221,16.6205769 2.14416776,17.9472115 4.36959371,17.8238942 C15.995791,17.1772787 27.6474641,17.1101266 39.2804718,17.6226923 C43.7247706,17.8148077 47.3237221,14.9811058 47.3250328,11.1686538 C47.3237221,10.2548077 47.3263434,9.33057692 47.3263434,8.41024038 Z" id="Shape"></path>
                                    </g>
                                </g>
                                <g id="glasses1" transform="translate(96.601903, 271.786858) rotate(-20.000000) translate(-96.601903, -271.786858) translate(46.601903, 258.286858)" fill="#FFFFFF" fill-rule="nonzero">
                                    <path d="M15.1747757,5.82926321 C14.3856439,5.9291021 13.6056568,6.09817156 12.8438454,6.33508118 L12.6403866,6.39844317 L1.28585961,9.93291786 C1.21130663,9.95718857 1.13376102,9.97094607 1.05544252,9.97379656 C0.814461669,9.97984251 0.581205496,9.88816846 0.408283239,9.71945082 C0.235360982,9.55073319 0.137336101,9.31918132 0.136317396,9.07702006 L0.0467955239,7.81948902 C0.0450168597,7.78766276 0.0450168597,7.75576131 0.0467955239,7.72393505 C0.0697085067,7.32985589 0.343306767,6.9957344 0.72380468,6.89716332 C0.772073409,6.88400348 0.819194413,6.86691414 0.864699898,6.84606495 L11.0727365,2.11639924 C13.5241691,0.982364723 16.1902635,0.392909751 18.889115,0.388252149 L81.1236012,0.268170965 C83.8140687,0.262984757 86.474144,0.839478481 88.9231943,1.95850525 L99.1291963,6.62225406 C99.1746415,6.6432516 99.2217749,6.66034546 99.2700916,6.67335244 C99.6510367,6.76975859 99.9264607,7.10219875 99.9516785,7.49603629 C99.9529094,7.52841987 99.9520599,7.56084949 99.9491353,7.59312321 L99.8667345,8.85116523 C99.8676458,9.31702199 99.5146625,9.70664418 99.0528993,9.74947469 C98.9354761,9.75884476 98.8173718,9.74460018 98.7054934,9.70757402 L87.5910478,6.17872015 L85.3453713,5.4658978 C85.2940855,5.44997576 85.2416576,5.43833075 85.1886206,5.43104388 C85.1886498,5.43142021 85.1886789,5.43179654 85.188708,5.43217287 C85.2278739,5.96563992 85.249237,6.50370583 85.249237,7.05045845 C85.249237,12.5133859 83.2980671,17.4581757 80.1546287,21.03915 C77.0035605,24.6119484 72.6597152,26.829107 67.853001,26.829107 C65.4674466,26.829107 62.9120041,26.4009026 60.8494405,25.4187918 C58.2553408,24.185788 56.2685656,22.1444078 54.491353,19.7279656 C51.9669379,16.2956877 50.448118,11.8756781 50.448118,7.05045845 C50.448118,6.55310092 50.4650729,6.06204553 50.4989827,5.57729226 C50.4990299,5.57660698 50.4990771,5.57592169 50.4991243,5.57523642 L49.8898242,5.57524833 C49.889927,5.57678125 49.8900297,5.5783142 49.8901322,5.57984718 C49.9226857,6.06374881 49.939471,6.5517383 49.939471,7.04739255 C49.939471,11.8383763 48.439471,16.2307927 45.9496439,19.653873 C45.6007121,20.134879 45.2324517,20.5957864 44.8448627,21.036595 C43.206002,22.895554 41.2721261,24.6001958 39.0900305,25.6032569 C37.0773143,26.5291595 34.8499491,26.8265521 32.543235,26.8265521 L32.5361139,26.8265521 C22.9292981,26.8265521 15.1403866,17.9737584 15.1403866,7.04739255 C15.1403866,6.63860554 15.1517464,6.23441738 15.1744659,5.83482808 C15.1745689,5.83297307 15.1746722,5.83111811 15.1747757,5.82926321 Z" id="Combined-Shape" opacity="0.5"></path>
                                    <path d="M43.1597152,19.4285291 C40.6134283,21.5077221 37.4852492,22.7294842 34.1057986,22.7294842 C26.0447609,22.7294842 19.4170905,15.7714183 18.6236012,6.84964183 C21.4898271,11.9247326 26.7166836,16.2364136 33.2548321,18.3012989 C36.6597152,19.3774308 40.0376399,19.7192789 43.1597152,19.4285291 Z" id="Shape"></path>
                                    <path d="M78.4689725,19.431084 C75.9226857,21.510788 72.793998,22.7320392 69.415056,22.7320392 C61.354527,22.7320392 54.7263479,15.7739733 53.9328586,6.85219675 C56.7990844,11.9272875 62.025941,16.2389685 68.5645982,18.3043649 C71.9689725,19.3804967 75.3468973,19.7218338 78.4689725,19.431084 Z" id="Shape"></path>
                                </g>
                                <g id="glasses2_0" transform="translate(54.800776, 54.800776) rotate(45.000000) translate(-54.800776, -54.800776) translate(4.800776, 27.300776)">
                                    <ellipse id="Oval" fill="#FFFFFF" fill-rule="nonzero" opacity="0.497622283" cx="69.324145" cy="27.7342998" rx="19.1092394" ry="19.2456206"></ellipse>
                                    <ellipse id="Oval" stroke="#FFFFFF" stroke-width="1.78662583" transform="translate(69.324259, 27.734390) rotate(-45.000000) translate(-69.324259, -27.734390) " cx="69.3242592" cy="27.7343896" rx="19.1092394" ry="19.2456206"></ellipse>
                                    <ellipse id="Oval" fill="#FFFFFF" fill-rule="nonzero" opacity="0.498641304" cx="30.941807" cy="28.0247706" rx="19.1092394" ry="19.2456206"></ellipse>
                                    <ellipse id="Oval" stroke="#FFFFFF" stroke-width="1.78662583" cx="30.941807" cy="28.0247706" rx="19.1092394" ry="19.2456206"></ellipse>
                                    <path d="M90.7161817,24.4136784 C91.532925,24.5961866 92.3328229,24.8059425 93.1276161,25.0455167 C93.9224094,25.2850909 94.7100562,25.5596244 95.4880041,25.8737442 C96.2806509,26.1891386 97.0472185,26.5673361 97.7805003,27.004781 C98.1610259,27.2339276 98.5238086,27.4917158 98.8657478,27.7759425 C99.2273533,28.0741665 99.5486158,28.4188081 99.8213374,28.8010732 C100.029281,29.0991416 99.9965018,29.5041926 99.7433789,29.7644147 C99.490256,30.0246367 99.0888337,30.0659646 98.7886677,29.8627056 L98.7212864,29.81695 C98.2240939,29.4786671 97.5809086,29.267883 96.9060745,29.1306162 C96.2103584,28.9963946 95.5053143,28.9169816 94.7973456,28.8930985 C94.0770801,28.8632802 93.3481368,28.8720201 92.618683,28.9080076 C91.8892292,28.9439952 91.1592649,29.0108292 90.4410413,29.0992557 C89.5065132,29.2147253 88.5927906,28.7618827 88.1134676,27.9457058 C87.6341445,27.1295288 87.6802093,26.1049495 88.2308107,25.3357409 C88.7814121,24.5665324 89.7320316,24.1987106 90.6523737,24.3987693 L90.7161817,24.4136784 Z" id="Shape" fill="#FFFFFF" fill-rule="nonzero"></path>
                                    <path d="M9.54874936,29.0416756 C8.82899438,28.9645595 8.09749872,28.9131487 7.36804492,28.8874433 C6.63859112,28.8617379 5.90913731,28.8679072 5.18938234,28.9105782 C4.48199819,28.9470153 3.77849889,29.0388032 3.08524758,29.1851116 C2.4129658,29.334717 1.77335375,29.5562974 1.28177642,29.9048624 L1.21694742,29.950618 C0.920523622,30.1606434 0.517412266,30.127276 0.259014751,29.8713254 C0.000617235501,29.6153748 -0.0392107667,29.2099973 0.164369576,28.9080076 C0.43064027,28.5212164 0.746067736,28.1712168 1.10260337,27.8669396 C1.43959055,27.5766437 1.79794234,27.3124925 2.17457887,27.0767561 C2.90008626,26.6263229 3.66001091,26.2347094 4.44716692,25.9056188 C5.22001021,25.5755617 6.00255232,25.2886896 6.79530373,25.0362628 C7.58805513,24.7838359 8.38233793,24.5581426 9.19448698,24.3617535 L9.24859622,24.3483867 C10.516209,24.052736 11.7833989,24.8418213 12.0872559,26.1160338 C12.3911128,27.3902463 11.6179528,28.6728565 10.3552833,28.9892366 C10.0912592,29.0521337 9.8186118,29.0698606 9.54874936,29.0416756 Z" id="Shape" fill="#FFFFFF" fill-rule="nonzero"></path>
                                </g>
                            </g>
                        </g>
                    </g>
                </g>
            </g>
        </g>
    </g>
</svg>