<?xml version="1.0" encoding="UTF-8"?>
<svg width="170px" height="701px" viewBox="0 0 170 701" version="1.1" xmlns="http://www.w3.org/2000/svg" xmlns:xlink="http://www.w3.org/1999/xlink">
    <!-- Generator: Sketch 49 (51002) - http://www.bohemiancoding.com/sketch -->
    <title>Group 36</title>
    <desc>Created with Sketch.</desc>
    <defs></defs>
    <g id="Page-1" stroke="none" stroke-width="1" fill="none" fill-rule="evenodd" opacity="0.598958333">
        <g id="Desktop-HD" transform="translate(-45.000000, -3830.000000)">
            <g id="Group-18" transform="translate(-94.000000, 3732.000000)">
                <g id="Group-26">
                    <g id="Group-30">
                        <g id="Group-27" transform="translate(139.000000, 85.000000)">
                            <g id="Group-36" transform="translate(0.000000, 13.000000)">
                                <g id="shoe4_2" transform="translate(109.320197, 334.086178) rotate(-15.000000) translate(-109.320197, -334.086178) translate(49.320197, 321.086178)" fill="#FFFFFF" fill-rule="nonzero">
                                    <path d="M31.5760609,6.63840796 C27.1364527,6.63840796 24.7390642,6.15850746 24.263765,5.17154229 C24.1331882,4.90378109 24.078346,4.4678607 24.5366703,3.90646766 C25.478923,2.77977895 26.6492834,1.86142935 27.9721436,1.21074627 C29.0820457,0.659701493 30.2272035,0.329850746 31.0341676,0.329850746 C31.1557172,0.328992041 31.2771308,0.338077638 31.3971708,0.357014925 C31.7115554,0.40851397 31.924321,0.702668427 31.8724701,1.01412935 C31.715778,1.94029851 33.1325354,4.02029851 33.8924918,5.13791045 C34.0413493,5.35651741 34.1732318,5.5518408 34.284222,5.71482587 C34.3981594,5.88759285 34.4090191,6.10784947 34.3126201,6.29079366 C34.2162211,6.47373785 34.0275962,6.59084034 33.8193689,6.59701493 C33.314037,6.61641791 32.5136017,6.63970149 31.5734494,6.63970149 L31.5760609,6.63840796 Z" id="Shape"></path>
                                    <path d="M31.0354733,0.653233831 C31.1391064,0.652359034 31.2426292,0.660147855 31.3449402,0.676517413 C31.4106404,0.686654592 31.4694833,0.722493162 31.5082705,0.775994511 C31.5470576,0.829495861 31.5625423,0.896181761 31.5512514,0.961094527 C31.3436344,2.19383085 33.2787813,4.77572139 34.0073993,5.89074627 C34.0562607,5.96513314 34.0610933,6.05976626 34.0200594,6.13865816 C33.9790255,6.21755007 33.8984303,6.26857855 33.8089227,6.27233831 C33.3440696,6.29044776 32.5331882,6.31502488 31.5760609,6.31502488 C28.2698585,6.31502488 23.2295974,6.01751244 24.7860718,4.1160199 C26.7146899,1.76308458 29.6539717,0.65840796 31.0302503,0.65840796 L31.0354733,0.653233831 Z M31.0302503,0.011641791 C29.484222,0.011641791 26.3686616,1.15900498 24.2794342,3.70855721 C23.7127312,4.39930348 23.7963003,4.96328358 23.9647443,5.31512438 C24.3120783,6.03691542 25.2992383,6.47283582 27.1651795,6.72766169 C28.6267959,6.90361406 30.0985643,6.98355655 31.5708379,6.96696517 C32.5162133,6.96696517 33.3205658,6.94368159 33.829815,6.92298507 C34.1535889,6.90996595 34.4454519,6.72595452 34.5944557,6.44090061 C34.7434595,6.1558467 34.7267192,5.81353052 34.5505985,5.5440796 C34.440914,5.37721393 34.3103373,5.18577114 34.1588683,4.96328358 C33.5294886,4.03711443 32.0552775,1.87174129 32.1897715,1.07363184 C32.2305563,0.838701834 32.1750626,0.59736014 32.0355916,0.40310476 C31.8961207,0.20884938 31.6841943,0.0777279241 31.44679,0.0388059701 C31.3091389,0.0161935104 31.1697768,0.00537404921 31.0302503,0.00646766169 L31.0302503,0.011641791 Z" id="Shape"></path>
                                    <path d="M44.8726877,20.6602985 C35.50642,20.6602985 23.7675734,19.6901493 17.6030468,19.1080597 C13.5865071,18.7316418 9.72665941,18.3138308 6.7351469,17.9348259 C2.209358,17.359204 2.05527748,17.1923383 1.9429815,17.0707463 C1.7640914,16.8767164 1.53297062,16.5779104 1.59042437,16.2325373 C1.65440696,15.8444776 2.02785637,15.6349254 2.45875952,15.3969154 C2.58933624,15.3283582 2.71077258,15.2585075 2.84004353,15.179602 C3.34929271,14.8691542 4.94494015,14.4487562 7.14907508,13.8860697 C8.11273123,13.6402985 9.02415669,13.4087562 9.45244831,13.2651741 C9.85201306,13.1358209 10.440914,12.9482587 11.1238303,12.7374129 C12.98716,12.161791 16.1066376,11.1968159 16.626333,10.7531343 C16.9083787,10.5125373 17.831556,10.0171144 19.5773667,9.09094527 C22.2568009,7.6680597 26.282481,5.53243781 29.1786725,3.50547264 C29.2028797,3.30799867 29.2840293,3.12162129 29.4124048,2.96865672 C29.6383025,2.680199 30.0757345,2.36975124 30.5027203,2.36975124 C30.6000263,2.36933691 30.6965587,2.38688331 30.7873776,2.42149254 C32.551469,3.12646766 36.7077258,4.13671642 43.0837867,4.86109453 C44.5499805,5.02484929 46.0244107,5.10561067 47.4998912,5.10298507 C50.3177367,5.10298507 53.0598477,4.81711443 54.4870511,4.37472637 C54.6377208,4.32340118 54.7952759,4.29462686 54.9545158,4.28935323 C55.1641524,4.27263212 55.3644763,4.37816749 55.4676823,4.55970149 C55.5865071,4.77830846 55.5133841,5.04477612 55.4180631,5.2478607 C58.0126224,7.85562189 58.1954298,13.6325373 57.8820457,18.0732338 C57.8036997,19.1804975 56.3712731,20.6538308 44.8831338,20.6538308 L44.8726877,20.6602985 Z" id="Shape" opacity="0.499716938"></path>
                                    <path d="M30.4961915,2.69960199 C30.5514991,2.69879943 30.6064534,2.70845802 30.6581066,2.7280597 C32.4770403,3.45502488 36.7364527,4.47303483 43.0393906,5.18577114 C44.5182214,5.35008192 46.0052608,5.43127334 47.4933624,5.42895522 C50.5619151,5.42895522 53.2504897,5.09651741 54.5784548,4.68517413 C54.6975154,4.64409259 54.8220216,4.62055783 54.9479869,4.61532338 C55.4702938,4.61532338 55.0041349,5.30995025 55.0041349,5.30995025 C57.4237214,7.50895522 57.9290533,12.6753234 57.5490751,18.0538308 C57.431556,19.7354229 52.1405876,20.3330348 44.8831338,20.3330348 C28.6916213,20.3330348 2.66507073,17.3669652 2.18454842,16.8521393 C1.49771491,16.1070647 2.209358,15.9466667 3.01109902,15.4551244 C3.81284004,14.9635821 8.35429815,13.9753234 9.55038085,13.5743284 C11.1747552,13.0284577 16.0792165,11.6456716 16.8326442,11.000199 C17.5860718,10.3547264 24.970185,6.87900498 29.50642,3.66845771 C29.4006529,3.25840796 30.0443961,2.69572139 30.4961915,2.69572139 L30.4961915,2.69960199 Z M30.4961915,2.04895522 C29.9569097,2.04895522 29.4293798,2.41243781 29.1473341,2.7720398 C29.0176144,2.9334713 28.9241324,3.12044747 28.873123,3.32049751 C26.0004353,5.31383085 22.054407,7.4080597 19.4167573,8.80766169 C17.601741,9.77263682 16.7151251,10.2473632 16.4056583,10.5112438 C15.9381937,10.9109453 12.6189336,11.9341294 11.0193689,12.4321393 C10.3351469,12.6429851 9.74363439,12.820199 9.34145811,12.961194 C8.93928183,13.1021891 8.018716,13.3311443 7.06158868,13.5756219 C4.76474429,14.1602985 3.218716,14.5690547 2.66898803,14.9040796 C2.53841132,14.9791045 2.42089227,15.0476617 2.3007617,15.1136318 C1.83721436,15.3723383 1.35799782,15.6310448 1.26789989,16.1795025 C1.17780196,16.7279602 1.57214363,17.1470647 1.70141458,17.2880597 C1.89597388,17.4989055 2.04874864,17.6644776 6.69336235,18.2556219 C9.68879217,18.6359204 13.5512514,19.0524378 17.5730141,19.4301493 C23.7427639,20.0083582 35.4959739,20.9823881 44.876605,20.9823881 C48.7847661,20.9823881 51.8533188,20.8077612 53.9960827,20.4649751 C55.2248096,20.2683582 56.1479869,20.02 56.8191513,19.7069652 C57.6900979,19.300796 58.154951,18.7600995 58.2006529,18.1016915 C58.5127312,13.6765174 58.3312296,7.93711443 55.7902067,5.17800995 C55.8810082,4.92771633 55.8664216,4.65176878 55.749728,4.41223881 C55.5897306,4.12531373 55.2784289,3.95404463 54.9479869,3.97114428 C54.7555195,3.97581386 54.5648826,4.00939702 54.3825898,4.07074627 C53.237432,4.42646766 50.6624592,4.78477612 47.4933624,4.78477612 C46.0301078,4.78761341 44.5678823,4.70771566 43.1138194,4.54547264 C36.7704026,3.82497512 32.64679,2.82378109 30.9022851,2.1278607 C30.7731717,2.07666112 30.6352629,2.0507435 30.4961915,2.05154229 L30.4961915,2.04895522 Z" id="Shape"></path>
                                    <path d="M18.9688792,12.7464677 C18.0562891,12.7624465 17.1475948,12.6246639 16.2816104,12.339005 C15.7227421,12.1423881 15.1181719,11.8901493 15.0163221,11.3856716 C14.9471164,11.0377114 14.7551687,10.1141294 21.2840044,6.52975124 C24.5745375,4.71880597 28.3351469,2.9518408 29.8380849,2.49781095 C30.0616461,2.43079861 30.2939585,2.39680129 30.5275299,2.39691542 C31.407617,2.39691542 32.192383,2.88069652 32.8779108,3.30238806 C33.0346028,3.39810945 33.1873776,3.49253731 33.3388466,3.58049751 L33.6457018,3.75512438 C35.0389554,4.54159204 36.0861806,5.19741294 35.8537541,5.86746269 C35.4385201,7.08467662 25.5016322,12.7464677 18.9688792,12.7464677 Z" id="Shape"></path>
                                    <path d="M30.5275299,2.71641791 C31.4990207,2.71641791 32.3673558,3.39293532 33.179543,3.86248756 C33.9917301,4.3320398 35.7336235,5.23492537 35.5495103,5.7639801 C35.2113166,6.73800995 25.4676823,12.419204 18.9662677,12.419204 C18.0910574,12.4358573 17.2193832,12.3046253 16.3886834,12.0311443 C15.8363439,11.8371144 15.3963003,11.6288557 15.3349293,11.320995 C15.0267682,9.78298507 27.0594124,3.66845771 29.9294886,2.80567164 C30.1224805,2.74733637 30.3231424,2.71769348 30.5249184,2.71771144 L30.5275299,2.71641791 Z M30.5249184,2.07094527 C30.2594935,2.07124536 29.9955422,2.11003128 29.7414581,2.18606965 C28.2176279,2.64527363 24.4322089,4.42776119 21.123395,6.24517413 C19.6009622,7.06227863 18.1245662,7.96088876 16.7007617,8.93701493 C15.1338411,10.0468657 14.5593036,10.7738308 14.6937976,11.4464677 C14.8400435,12.1734328 15.7044614,12.4812935 16.1693145,12.6416915 C17.0706184,12.9392624 18.0163611,13.0831624 18.9662677,13.0672637 C22.816975,13.0672637 27.4354733,11.1722388 29.8459195,10.0429851 C31.302052,9.36658165 32.7161039,8.60462804 34.0805223,7.76119403 C35.9582155,6.57761194 36.0992383,6.17014925 36.1697497,5.97482587 C36.5092492,4.99820896 35.1394995,4.22467662 33.8193689,3.47701493 C33.7083787,3.41492537 33.6052231,3.35671642 33.5151251,3.30368159 C33.3688792,3.21960199 33.2200218,3.12776119 33.0633297,3.03074627 C32.3347116,2.58059701 31.508161,2.06965174 30.5340588,2.06965174 L30.5249184,2.07094527 Z" id="Shape"></path>
                                    <path d="M32.8309032,20.0018905 C15.5412405,20.0018905 3.03460283,16.7835821 2.0383025,15.7177114 L1.89597388,15.5650746 L1.97693145,15.3736318 C1.98998912,15.3412935 2.00304679,15.3024876 2.01741023,15.2610945 C2.09575626,15.0243781 2.26158868,14.5328358 2.76430903,14.5328358 C2.83358012,14.5337463 2.90245875,14.5433076 2.96931447,14.5612935 C9.74232862,16.3838806 20.097062,17.3074627 33.7462459,17.3074627 C46.1784548,17.3074627 57.0032644,16.5041791 57.5294886,16.438209 C57.5833894,16.4254635 57.6386003,16.4189524 57.6940152,16.418806 C57.8840043,16.4166426 58.0635782,16.5046267 58.1771491,16.6555224 C58.3390642,16.8741294 58.3573449,17.1897512 58.2306855,17.5946269 L58.171926,17.7821891 L57.9760609,17.8171144 C49.674419,19.2683211 41.2608071,19.9993508 32.8309032,20.0018905 Z" id="Shape"></path>
                                    <path d="M2.76430903,14.8562189 C2.80455214,14.8570153 2.84451003,14.8631051 2.88313384,14.8743284 C10.9279652,17.038408 22.9919478,17.6308458 33.7462459,17.6308458 C46.5192601,17.6308458 57.4459195,16.7939303 57.5934712,16.7564179 C57.6262205,16.7473728 57.6600192,16.7425897 57.6940152,16.7421891 C57.9212187,16.7421891 58.0857454,16.9646766 57.9186072,17.4989055 C49.6359867,18.947175 41.24156,19.6764769 32.8309032,19.6785075 C15.0816104,19.6785075 3.10250272,16.38 2.27595212,15.4978109 C2.36213275,15.2921393 2.43264418,14.8510448 2.7616975,14.8510448 L2.76430903,14.8562189 Z M2.7616975,14.2042786 C2.0226333,14.2042786 1.79151251,14.8937313 1.70402612,15.1537313 C1.69357998,15.1860697 1.67921654,15.2274627 1.6726877,15.2442786 L1.51207835,15.6323383 L1.79673558,15.9363184 C1.91294886,16.0656716 2.27072905,16.4446766 4.7203482,17.1444776 C6.81779065,17.7241318 8.94428309,18.1951844 11.0911861,18.5557214 C15.6809576,19.3628856 23.1786725,20.3252736 32.8282916,20.3252736 C41.2770415,20.322939 49.7094678,19.5901756 58.0295974,18.1353234 L58.4213275,18.0667662 L58.5401523,17.6903483 C58.6994559,17.18199 58.6707291,16.7693532 58.4369967,16.4640796 C58.2627566,16.2295854 57.9853135,16.0924043 57.6914037,16.0954229 C57.6176598,16.0955587 57.5441339,16.1033626 57.4720348,16.1187065 C56.7434168,16.200199 46.0452666,16.9840796 33.7436344,16.9840796 C20.1231774,16.9840796 9.79717084,16.0643781 3.05810664,14.2495522 C2.96365658,14.2237295 2.86620416,14.2102488 2.76822633,14.2094527 L2.7616975,14.2042786 Z" id="Shape"></path>
                                    <path d="M32.4496192,25.6119403 C22.0674646,25.6119403 4.13405876,25.0699502 0.673775843,21.4402985 L0.620239391,21.3846766 L0.598041349,21.3109453 C0.0404787813,19.4547264 0.660718172,16.2480597 2.0343852,15.6323383 L2.16496192,15.5728358 L2.29553863,15.6310448 C8.74341676,18.4444776 27.1338411,18.7484577 34.7425462,18.7484577 C43.9939064,18.7484577 53.0742111,18.3371144 57.8755169,17.7006965 L58.1967356,17.65801 L58.2424374,17.9749254 C58.3390642,18.6320398 58.3873776,21.6563184 58.1392818,23.3495522 C58.0512952,23.9673544 57.5635468,24.454217 56.9405876,24.5460697 C53.5756257,25.0634826 42.9297062,25.6119403 32.4470076,25.6119403 L32.4496192,25.6119403 Z" id="Shape"></path>
                                    <path d="M2.16887922,15.9220896 C7.48726877,18.2426866 21.6365615,19.0666667 34.7464635,19.0666667 C44.2968444,19.0666667 53.2948857,18.6294527 57.9238303,18.0163184 C58.0165397,18.6566169 58.0648531,21.6304478 57.8206746,23.2978109 C57.7497174,23.7733772 57.3744397,24.1477604 56.8948857,24.221393 C53.7492927,24.7025871 43.4285092,25.2833831 32.4496192,25.2833831 C18.7025027,25.2833831 3.92252448,24.3779104 0.911425462,21.2126368 C0.359085963,19.3732338 1.07072905,16.4136318 2.16887922,15.9220896 Z M2.16887922,15.2145274 L1.90772579,15.3335323 C0.376060936,16.0191045 -0.312078346,19.3848756 0.292491839,21.3976119 L0.336887922,21.5450746 L0.443960827,21.6576119 C1.95473341,23.2408955 5.92818281,24.359801 12.5875952,25.0764179 C17.7845484,25.6352239 24.6528836,25.9301493 32.4535365,25.9301493 C42.9519042,25.9301493 53.6213275,25.3778109 57.0019587,24.860398 C57.7660794,24.7459447 58.3641038,24.1487928 58.4735582,23.3909453 C58.7347116,21.6395025 58.6772579,18.6126368 58.5754081,17.9231841 L58.4826986,17.2906468 L57.8428727,17.3747264 C53.0546246,18.0098507 43.9912949,18.4199005 34.7529924,18.4199005 C27.6104461,18.4199005 20.9875952,18.17801 15.5973885,17.7200995 C9.26833515,17.1832836 4.84047878,16.3787065 2.43786725,15.3296517 L2.17671382,15.2145274 L2.16887922,15.2145274 Z" id="Shape"></path>
                                    <path d="M57.8206746,23.2978109 C57.7501151,23.7735744 57.3746415,24.148153 56.8948857,24.221393 C49.8097933,25.3066667 6.32905332,26.8964179 0.911425462,21.2139303 C0.713256227,20.4628949 0.665348544,19.6807036 0.770402612,18.9114428 C6.94406964,24.4231841 49.889445,22.8437811 56.949728,21.7636816 C57.4325416,21.6897961 57.810204,21.312524 57.8807399,20.8336318 C57.9460283,20.3899502 57.9564744,19.378408 57.9708379,18.6268657 C58.0243743,19.7625871 58.0178455,21.9538308 57.8206746,23.2978109 Z" id="Shape"></path>
                                    <path d="M57.8206746,23.2978109 C57.7501151,23.7735744 57.3746415,24.148153 56.8948857,24.221393 C49.8097933,25.3066667 6.32905332,26.8964179 0.911425462,21.2139303 C0.713256227,20.4628949 0.665348544,19.6807036 0.770402612,18.9114428 C6.94406964,24.4231841 49.889445,22.8437811 56.949728,21.7636816 C57.4325416,21.6897961 57.810204,21.312524 57.8807399,20.8336318 C57.9460283,20.3899502 57.9564744,19.378408 57.9708379,18.6268657 C58.0243743,19.7625871 58.0178455,21.9538308 57.8206746,23.2978109 Z" id="Shape" opacity="0.1"></path>
                                    <path d="M88.3690968,6.63840796 C87.4289445,6.63840796 86.6285092,6.61512438 86.1231774,6.59572139 C85.9164688,6.58711544 85.7302229,6.4695611 85.635011,6.28760141 C85.5397991,6.10564173 85.5501881,5.88711565 85.6622416,5.71482587 C85.7693145,5.55054726 85.9025027,5.35651741 86.0539717,5.13791045 C86.8152339,4.02029851 88.2306855,1.94029851 88.0752992,1.01412935 C88.0233998,0.703097297 88.2354385,0.409140371 88.5492927,0.357014925 C88.669339,0.338130053 88.7907482,0.329044784 88.912296,0.329850746 C89.7192601,0.329850746 90.8709467,0.659701493 91.9743199,1.21074627 C93.2976195,1.86074315 94.4681143,2.77919817 95.4097933,3.90646766 C95.8694233,4.4678607 95.8119695,4.90378109 95.6840044,5.17154229 C95.2047878,6.15850746 92.8139282,6.63840796 88.3690968,6.63840796 Z" id="Shape"></path>
                                    <path d="M88.9083787,0.653233831 C90.285963,0.653233831 93.2252448,1.75791045 95.1525571,4.11084577 C96.7194777,6.01751244 91.6752992,6.30985075 88.3690968,6.30985075 C87.4119695,6.30985075 86.5997824,6.28527363 86.136235,6.26716418 C86.0468729,6.26305511 85.9664916,6.21208735 85.9253045,6.13341845 C85.8841174,6.05474955 85.8883658,5.96030038 85.9364527,5.88557214 C86.6650707,4.77054726 88.6002176,2.18865672 88.3926007,0.955920398 C88.3816984,0.890863187 88.397504,0.824188237 88.4364988,0.770738725 C88.4754936,0.717289214 88.5344408,0.68150173 88.6002176,0.671343284 C88.7020955,0.655021822 88.8051805,0.647233077 88.9083787,0.648059701 L88.9083787,0.653233831 Z M88.9083787,0.00129353234 C88.7688522,0.000199919858 88.62949,0.0110193811 88.491839,0.0336318408 C88.2544347,0.0725537948 88.0425083,0.203675251 87.9030373,0.397930631 C87.7635664,0.592186011 87.7080727,0.833527705 87.7488575,1.06845771 C87.8794342,1.86656716 86.4091404,4.03323383 85.7797606,4.95810945 C85.6282916,5.18059701 85.4977149,5.3720398 85.3880305,5.53890547 C85.2118101,5.80854846 85.1951967,6.15112757 85.3445132,6.436263 C85.4938296,6.72139843 85.7861108,6.90523626 86.1101197,6.91781095 C86.6180631,6.93850746 87.4224157,6.96179104 88.3690968,6.96179104 C89.8413705,6.97838242 91.3131388,6.89843993 92.7747552,6.72248756 C94.6406964,6.46378109 95.6278564,6.03174129 95.9738847,5.30995025 C96.1436344,4.95810945 96.2258977,4.39412935 95.6591948,3.70338308 C93.5699674,1.15383085 90.454407,0.00646766169 88.9083787,0.00646766169 L88.9083787,0.00129353234 Z" id="Shape"></path>
                                    <path d="M75.0685528,20.6602985 C63.577802,20.6602985 62.1414581,19.1882587 62.0696409,18.0797015 C61.7562568,13.639005 61.9390642,7.86079602 64.5323177,5.25432836 C64.4369967,5.05124378 64.3651795,4.78477612 64.4826986,4.56616915 C64.5859046,4.38463515 64.7862285,4.27909979 64.9958651,4.2958209 C65.1555322,4.30108174 65.3135198,4.32985467 65.4646355,4.38119403 C66.8905332,4.82358209 69.6339499,5.10945274 72.4517954,5.10945274 C73.9272749,5.11204183 75.401703,5.03128056 76.8678999,4.86756219 C83.2439608,4.14447761 87.4002176,3.13293532 89.164309,2.4279602 C89.2546685,2.39333335 89.3507769,2.37578351 89.4476605,2.37621891 C89.8759521,2.37621891 90.3133841,2.68666667 90.5392818,2.97512438 C90.6671865,3.12824022 90.747877,3.31460405 90.7717084,3.5119403 C93.6692057,5.53890547 97.6922742,7.6758209 100.373014,9.09741294 C102.118825,10.0235821 103.043308,10.5202985 103.325354,10.759602 C104.000435,11.3378109 108.698585,12.8848756 109.984766,13.2276617 C110.473123,13.3570149 111.268335,13.539403 112.110555,13.7308458 C114.549728,14.2857711 116.460065,14.7372139 117.013711,15.0748259 C117.124701,15.1420896 117.235691,15.2041791 117.341458,15.2662687 C117.819369,15.539204 118.269859,15.7966169 118.339064,16.2377114 C118.380849,16.5093532 118.271164,16.7822886 118.003482,17.0746269 C117.891186,17.1962189 117.742329,17.3630846 113.210011,17.9387065 C110.219804,18.3177114 106.359956,18.7342289 102.342111,19.1119403 C96.1762786,19.6901493 84.4348205,20.6602985 75.0685528,20.6602985 Z" id="Shape" opacity="0.498697917"></path>
                                    <path d="M89.445049,2.69960199 C89.8981502,2.69960199 90.5405876,3.26228856 90.4348205,3.67233831 C94.9710555,6.88288557 102.355169,10.3599005 103.109902,11.0040796 C103.864635,11.6482587 108.675082,13.2147264 109.899891,13.539403 C111.491621,13.9636816 116.036997,14.861393 116.842655,15.3503483 C117.648313,15.8393035 118.447443,16.1109453 117.756692,16.8560199 C117.282699,17.3734328 91.2613711,20.3369154 75.0646355,20.3369154 C67.8006529,20.3369154 62.5096844,19.7393035 62.3908596,18.0577114 C62.0108814,12.679204 62.5214363,7.50766169 64.9357998,5.31383085 C64.9357998,5.31383085 64.4683351,4.61920398 64.9919478,4.61920398 C65.1183425,4.62440557 65.2432842,4.64793949 65.3627856,4.68905473 C66.6907508,5.10039801 69.3780196,5.43283582 72.4478781,5.43283582 C73.9355455,5.43515495 75.4221503,5.35396345 76.9005441,5.18965174 C83.2047878,4.47303483 87.4642002,3.45502488 89.2818281,2.7319403 C89.3335152,2.71245983 89.3884459,2.70280538 89.4437432,2.70348259 L89.445049,2.69960199 Z M89.4437432,2.05671642 C89.3046808,2.05601548 89.1667908,2.08192957 89.0376496,2.13303483 C87.2944505,2.82895522 83.1708379,3.83014925 76.8261153,4.55064677 C75.3724864,4.71285466 73.9106975,4.79275238 72.4478781,4.78995025 C69.2774755,4.78995025 66.7025027,4.43164179 65.5573449,4.0759204 C65.3750775,4.01447375 65.1844253,3.98088793 64.9919478,3.97631841 C64.6618185,3.9590961 64.3508386,4.13046727 64.1915125,4.41741294 C64.0734934,4.6566045 64.0588783,4.93308987 64.1510337,5.18318408 C61.6100109,7.94228856 61.4272035,13.6816915 61.7392818,18.1068657 C61.8476605,19.6397015 64.1902067,20.1894527 65.943852,20.4701493 C68.0866159,20.8129353 71.1551687,20.9875622 75.0646355,20.9875622 C84.4439608,20.9875622 96.1971708,20.0161194 102.368226,19.4353234 C106.388683,19.0576119 110.252448,18.6410945 113.246572,18.260796 C117.892492,17.6696517 118.045267,17.5040796 118.23852,17.2932338 C118.574102,16.9297512 118.713819,16.5585075 118.656366,16.1898507 C118.56235,15.5948259 118.021763,15.2843781 117.499456,14.9868657 C117.393689,14.9273632 117.28531,14.8652736 117.179543,14.800597 C116.581502,14.4358209 114.729924,13.9973134 112.178455,13.4165174 C111.338847,13.2250746 110.546246,13.0452736 110.064418,12.9172139 C108.591513,12.5291542 104.11012,11.0092537 103.535582,10.5164179 C103.227421,10.2577114 102.340805,9.77781095 100.524483,8.81283582 C97.8868335,7.41323383 93.9408052,5.32029851 91.0694233,3.32567164 C91.0184825,3.12534647 90.9245047,2.93826963 90.7939064,2.77721393 C90.5118607,2.41761194 89.9856366,2.05412935 89.445049,2.05412935 L89.4437432,2.05671642 Z" id="Shape"></path>
                                    <path d="M100.974973,12.7464677 C94.4461371,12.7464677 84.5066376,7.08467662 84.0861806,5.87393035 C83.8537541,5.2038806 84.9009793,4.5480597 86.2942329,3.76159204 L86.6010881,3.58696517 C86.7525571,3.49900498 86.9053319,3.40457711 87.0607182,3.30885572 C87.7527748,2.88069652 88.536235,2.40338308 89.4176279,2.40338308 C89.6511923,2.40336291 89.8834909,2.43735822 90.1070729,2.50427861 C91.6126224,2.95830846 95.3693145,4.72915423 98.6598477,6.53621891 C105.182155,10.120597 104.996736,11.0441791 104.92753,11.3921393 C104.826986,11.8966169 104.222416,12.1488557 103.662242,12.3454726 C102.796714,12.631158 101.888444,12.7689433 100.976279,12.7529353 L100.974973,12.7464677 Z" id="Shape"></path>
                                    <path d="M89.4176279,2.71641791 C89.6189691,2.7164897 89.8191871,2.74613203 90.0117519,2.80437811 C92.8844396,3.66716418 104.914472,9.78169154 104.607617,11.3197015 C104.546246,11.6275622 104.104897,11.8371144 103.553863,12.0298507 C102.722748,12.3034772 101.85062,12.4347112 100.974973,12.4179104 C94.4774755,12.4179104 84.7325354,6.73671642 84.3917301,5.76268657 C84.207617,5.23363184 85.9521219,4.32945274 86.7630033,3.86119403 C87.5738847,3.39293532 88.4435256,2.71512438 89.4150163,2.71512438 L89.4176279,2.71641791 Z M89.4150163,2.06835821 C88.4396083,2.06835821 87.6143634,2.57930348 86.8857454,3.02945274 C86.7277476,3.12646766 86.5788901,3.21830846 86.4339499,3.30238806 L86.1297062,3.47572139 C84.8043526,4.22338308 83.4359086,4.99691542 83.7793254,5.97353234 C83.8472252,6.16885572 83.9895539,6.57631841 85.8685528,7.7599005 C87.2321568,8.60280242 88.6453335,9.36432244 90.1005441,10.040398 C92.5109902,11.1696517 97.1294886,13.0646766 100.980196,13.0646766 C101.930102,13.0805754 102.875845,12.9366753 103.777149,12.6391045 C104.242002,12.4748259 105.107726,12.1708458 105.252666,11.4438806 C105.383243,10.7712438 104.806094,10.0442786 103.245702,8.93442786 C101.822087,7.95801347 100.345675,7.05939351 98.8230686,6.24258706 C95.5155604,4.42517413 91.7314472,2.64268657 90.2050054,2.18348259 C89.950971,2.10722482 89.6869868,2.06843407 89.4215452,2.06835821 L89.4150163,2.06835821 Z" id="Shape"></path>
                                    <path d="M86.7969532,20.0497512 C78.4358274,20.0476849 70.0908173,19.323148 61.8568009,17.8843781 L61.65963,17.8494527 L61.6008705,17.660597 C61.4702938,17.2570149 61.4924918,16.941393 61.654407,16.7227861 C61.7679778,16.5718903 61.9475517,16.4839063 62.1375408,16.4860697 C62.1929557,16.486216 62.2481666,16.4927272 62.3020675,16.5054726 C62.8243743,16.5714428 73.6517954,17.3747264 86.0853101,17.3747264 C99.7331882,17.3747264 110.086616,16.4511443 116.85963,14.6285572 C116.934544,14.608343 117.011802,14.5979065 117.089445,14.5975124 C117.650925,14.5975124 117.88074,15.1420896 117.966921,15.3477612 L118.047878,15.539204 L117.90555,15.6918408 C116.892274,16.7758209 104.248531,20.0497512 86.8047878,20.0497512 L86.7969532,20.0497512 Z" id="Shape"></path>
                                    <path d="M117.086834,14.9247761 C117.419804,14.9247761 117.577802,15.2740299 117.662677,15.4758209 C116.83482,16.3618905 104.702938,19.7302488 86.8021763,19.7302488 C78.4563483,19.7286324 70.1265884,19.0053903 61.9077258,17.5687562 C61.7405876,17.0358209 61.9077258,16.8133333 62.1323177,16.8133333 C62.1662566,16.8133122 62.2000543,16.8176604 62.2328618,16.8262687 C62.3804135,16.8650746 73.3083787,17.70199 86.0800871,17.70199 C96.835691,17.70199 108.899674,17.1082587 116.943199,14.9441791 C116.990075,14.9318106 117.038326,14.9252924 117.086834,14.9247761 Z M117.086834,14.27801 C116.980492,14.2783781 116.874671,14.2927324 116.772144,14.3206965 C110.026551,16.1316418 99.7005441,17.0552239 86.0800871,17.0552239 C73.7784548,17.0552239 63.0803047,16.2713433 62.3516866,16.1898507 C62.2795983,16.1744404 62.2060654,16.1666357 62.1323177,16.1665672 C61.8384079,16.1635486 61.5609648,16.3007297 61.3867247,16.5352239 C61.1595212,16.8404975 61.1255713,17.2531343 61.2835691,17.760199 L61.4023939,18.1379104 L61.794124,18.2064677 C70.0506131,19.6486572 78.4183198,20.3749233 86.8021763,20.3770149 C96.5275299,20.3770149 104.106202,19.3952239 108.74951,18.5660697 C112.738629,17.8585075 117.379325,16.7253731 118.141893,15.9078607 L118.426551,15.6038806 L118.265941,15.2158209 C118.004788,14.5858706 117.603917,14.2663682 117.090751,14.2663682 L117.086834,14.27801 Z" id="Shape"></path>
                                    <path d="M87.4955386,25.6119403 C77.0115343,25.6119403 66.364309,25.0608955 62.9993471,24.5460697 C62.376798,24.4534147 61.8894525,23.9669542 61.8006529,23.3495522 C61.5538629,21.6563184 61.6021763,18.6320398 61.6974973,17.9749254 L61.7445049,17.65801 L62.0644178,17.7006965 C66.8657236,18.3371144 75.9460283,18.7484577 85.1973885,18.7484577 C92.8060936,18.7484577 111.197824,18.4444776 117.644396,15.6310448 L117.774973,15.5728358 L117.90555,15.6323383 C119.277911,16.2480597 119.89815,19.4547264 119.341893,21.3109453 L119.319695,21.3846766 L119.267465,21.4402985 C115.809793,25.0647761 97.8763874,25.6119403 87.4955386,25.6119403 Z" id="Shape"></path>
                                    <path d="M117.780196,15.9220896 C118.878346,16.4136318 119.589989,19.3732338 119.03765,21.2126368 C116.025245,24.3727363 101.246572,25.2833831 87.4994559,25.2833831 C76.5205658,25.2833831 66.1997824,24.7025871 63.0528836,24.221393 C62.5732306,24.1484237 62.1980096,23.7735685 62.1284004,23.2978109 C61.884222,21.6304478 61.9312296,18.6566169 62.0252448,18.0163184 C66.6541893,18.6294527 75.6522307,19.0666667 85.2013058,19.0666667 C98.3112078,19.0666667 112.461806,18.2426866 117.780196,15.9220896 Z M117.780196,15.2145274 L117.512514,15.3296517 C115.109902,16.3787065 110.683351,17.1832836 104.352992,17.7200995 C98.9640914,18.17801 92.3399347,18.4199005 85.1973885,18.4199005 C75.9603917,18.4199005 66.8957563,18.0098507 62.1075082,17.3747264 L61.4676823,17.2906468 L61.3749728,17.9231841 C61.2744287,18.6126368 61.222198,21.6395025 61.4781284,23.3909453 C61.5867728,24.1491918 62.1851979,24.7467439 62.949728,24.860398 C66.3264418,25.3778109 76.9958651,25.9301493 87.4981502,25.9301493 C95.2974973,25.9301493 102.167138,25.6352239 107.362786,25.0764179 C114.022198,24.359801 118.000871,23.2408955 119.50642,21.6576119 L119.613493,21.5450746 L119.657889,21.3976119 C120.262459,19.3848756 119.57432,16.0191045 118.043961,15.3335323 L117.782807,15.2145274 L117.780196,15.2145274 Z" id="Shape"></path>
                                    <path d="M119.033732,21.2139303 C113.616104,26.8964179 70.1353645,25.3066667 63.0489663,24.221393 C62.5691099,24.1488197 62.193691,23.7737667 62.1244831,23.2978109 C61.9299238,21.9667662 61.9207835,19.8052736 61.9730141,18.6579104 C61.9873776,19.4068657 61.9991295,20.3964179 62.0644178,20.8336318 C62.1344028,21.3123203 62.5116157,21.6896726 62.994124,21.7636816 C70.054407,22.8437811 113.005005,24.4231841 119.173449,18.9101493 C119.279577,19.679732 119.232106,20.4624702 119.033732,21.2139303 Z" id="Shape"></path>
                                    <path d="M119.033732,21.2139303 C113.616104,26.8964179 70.1353645,25.3066667 63.0489663,24.221393 C62.5691099,24.1488197 62.193691,23.7737667 62.1244831,23.2978109 C61.9299238,21.9667662 61.9207835,19.8052736 61.9730141,18.6579104 C61.9873776,19.4068657 61.9991295,20.3964179 62.0644178,20.8336318 C62.1344028,21.3123203 62.5116157,21.6896726 62.994124,21.7636816 C70.054407,22.8437811 113.005005,24.4231841 119.173449,18.9101493 C119.279577,19.679732 119.232106,20.4624702 119.033732,21.2139303 Z" id="Shape" opacity="0.1"></path>
                                </g>
                                <g id="hand_neck4" fill="#FFFFFF" fill-rule="nonzero">
                                    <path d="M17.1181102,32.0681234 C9.36743245,32.0305547 2.6563997,26.6994234 0.897637795,19.1828535 C-0.0485314085,15.1168916 0.724709626,10.8424162 3.03622047,7.36077121 L3.10866142,7.25413882 C5.44025521,3.81490325 9.08059005,1.47231561 13.1874016,0.768380463 C14.1400397,0.597558415 15.1060547,0.511494868 16.0740157,0.511208226 C23.8246935,0.548776919 30.5357263,5.87990822 32.2944882,13.3964781 C33.2406574,17.46244 32.4674164,21.7369154 30.1559055,25.2185604 L30.0834646,25.3251928 C27.7518708,28.7644284 24.1115359,31.107016 20.0047244,31.8109512 C19.0519916,31.9810713 18.0860393,32.0671292 17.1181102,32.0681234 Z" id="Shape" opacity="0.5"></path>
                                    <path d="M16.080315,0.903239075 C23.6467978,0.943096744 30.1970769,6.14811927 31.9149606,13.4858612 C32.837903,17.4476613 32.0845281,21.613056 29.8314961,25.0052956 C29.8094488,25.0397943 29.7858268,25.0742931 29.7622047,25.1087918 C27.4878823,28.460276 23.9387772,30.742684 19.9354331,31.428329 C19.0056609,31.5950282 18.0628335,31.6789927 17.1181102,31.6792288 C9.55256032,31.639715 3.00259542,26.4362395 1.28346457,19.0997429 C0.360522204,15.1379428 1.11389706,10.9725481 3.36692913,7.58030848 L3.43622047,7.47524422 C5.7104263,4.12319897 9.26050133,1.84109947 13.2645669,1.15727506 C14.1938003,0.99051206 15.1361106,0.906546657 16.080315,0.906375321 L16.080315,0.903239075 Z M16.080315,0.122313625 C15.0886095,0.122987382 14.0989139,0.211146925 13.1228346,0.385758355 C8.90964478,1.10697485 5.17476649,3.50967845 2.78267717,7.03773779 L2.70866142,7.14750643 C0.336628006,10.7171396 -0.457183995,15.1008768 0.513385827,19.2706684 C2.51321929,28.0942392 11.1299165,33.7901588 20.0724409,32.1998458 C24.2853591,31.4779357 28.0199859,29.0753939 30.4125984,25.5478663 L30.4866142,25.4380977 C32.8586476,21.8684645 33.6524596,17.4847273 32.6818898,13.3149357 C30.8829855,5.62034349 24.0142106,0.161996767 16.080315,0.122313625 Z" id="Shape"></path>
                                    <path d="M3.58425197,7.57089974 C8.21102362,0.738586118 17.7385827,-0.973804627 24.9291339,3.7603599 C32.1559055,8.51804627 34.2834646,17.9848072 29.6834646,24.9033676 C29.6614173,24.9378663 29.6377953,24.972365 29.6141732,25.0068638 C24.9874016,31.8407455 15.4598425,33.5515681 8.26929134,28.8189717 C1.04409449,24.0612853 -1.08503937,14.5945244 3.51496063,7.67596401 L3.58425197,7.57089974 Z M3.28976378,7.3733162 L3.21889764,7.47994859 C2.07037422,9.19862252 1.29576655,11.1376108 0.94488189,13.1722365 C0.603695175,15.1521626 0.657205612,17.1795984 1.1023622,19.138946 C1.54917849,21.1242987 2.3728737,23.0063441 3.52913386,24.6838303 C5.97163294,28.2149607 9.6908556,30.6687542 13.9086614,31.5318252 C15.9022215,31.9368612 17.9549378,31.9608082 19.9574803,31.6023907 C21.9352007,31.2550576 23.8254056,30.5251972 25.5212598,29.4540617 C27.2605408,28.3563273 28.7518815,26.9108273 29.9007874,25.2091517 L29.9732283,25.1025193 C31.1189565,23.3841818 31.8913753,21.4463703 32.2409449,19.4133676 C32.5821728,17.4334445 32.5286621,15.4060007 32.0834646,13.4466581 C31.6373517,11.4610767 30.8136002,9.57890261 29.6566929,7.90177378 C27.2141938,4.37064346 23.4949712,1.91684992 19.2771654,1.05377892 C17.2836053,0.648742892 15.230889,0.624795893 13.2283465,0.983213368 C11.250703,1.33082094 9.3605501,2.06066123 7.66456693,3.13154242 C5.92528595,4.22927678 4.43394525,5.67477679 3.28503937,7.37645244 L3.28976378,7.3733162 Z" id="Shape"></path>
                                    <path d="M24.9291339,3.76349614 C30.3464567,7.33097686 32.8992126,13.5438817 31.8976378,19.3475064 C31.3149606,14.4000771 28.2850394,9.43069409 23.3055118,6.15174807 C18.3889764,2.91514139 12.688189,2.06208226 7.92125984,3.3918509 C12.8834646,0.283830334 19.5590551,0.224241645 24.9291339,3.76349614 Z" id="Shape"></path>
                                    <path d="M26.3133858,27.1614653 C21.0034527,30.8064016 13.9712419,30.7557579 8.71480904,27.034726 C3.4583762,23.3136941 1.09991334,16.7166745 2.81259843,10.5252442 C2.69448819,15.9305656 5.58582677,21.5350386 10.8661417,25.01 C15.7622047,28.2262211 21.5480315,28.8534704 26.3133858,27.1614653 Z" id="Shape"></path>
                                    <path d="M75.4330709,60.491928 C75.3338583,60.491928 75.2314961,60.491928 75.1307087,60.479383 C74.5259843,60.427635 67.1527559,56.4336247 64.0094488,54.7180977 L63.6393701,54.5173779 L69.5259843,45.3893316 L69.8661417,45.6465039 C70.7732283,46.3364781 78.7590551,52.4584319 79.4566929,55.0411311 C79.6834646,55.8800771 79.2551181,57.7069409 78.2771654,58.9724165 C77.5149606,59.9666067 76.5354331,60.491928 75.4330709,60.491928 Z" id="Shape" opacity="0.5"></path>
                                    <path d="M69.6299213,45.9585604 C69.6299213,45.9585604 78.3968504,52.6152442 79.0787402,55.1430591 C79.3779528,56.2407455 78.2346457,60.0998972 75.4362205,60.0998972 C75.3480315,60.0998972 75.2582677,60.0998972 75.1669291,60.0889203 C74.5795276,60.0371722 64.2031496,54.3746787 64.2031496,54.3746787 L69.6299213,45.9585604 Z M69.4283465,44.8201028 L68.9685039,45.5351671 L63.5401575,53.9512853 L63.0834646,54.658509 L63.823622,55.0630848 C63.8503937,55.0771979 66.4519685,56.4963496 69.0929134,57.9045244 C74.5716535,60.8243702 74.8519685,60.847892 75.0992126,60.8698458 C75.2125984,60.8792545 75.3259843,60.8839589 75.4362205,60.8839589 C76.6598425,60.8839589 77.7511811,60.3053213 78.5937008,59.2107712 C79.6566929,57.8292545 80.096063,55.8863496 79.8393701,54.9392031 C79.7181102,54.4907198 79.3511811,53.1295887 74.6173228,49.0116967 C72.3464567,47.0374293 70.1291339,45.3516967 70.1070866,45.3360154 L69.4283465,44.8201028 Z" id="Shape"></path>
                                    <path d="M65.4062992,56.2423136 C65.2933774,56.2429793 65.1814654,56.2211183 65.0771654,56.1780206 C64.3086614,55.8643959 32.0708661,38.5601542 26.7496063,35.6073779 C26.1936297,35.297983 25.7715072,34.7955941 25.5637795,34.1960668 L25.0330709,32.6749871 L34.7181102,17.9142416 L36.9543307,18.0381234 C37.5079132,18.0696879 38.0369591,18.2762338 38.4645669,18.6277378 C41.992126,21.5413111 70.8031496,45.5586889 71.3543307,46.2345501 C71.9055118,46.9104113 71.7244094,48.1476607 70.8582677,49.9604113 C70.1314322,51.4380322 69.2357408,52.8271738 68.1889764,54.1002571 C67.3826772,55.0787661 66.2440945,56.2423136 65.4062992,56.2423136 Z" id="Shape"></path>
                                    <path d="M34.9228346,18.3235219 L36.9322835,18.4348586 C37.4017039,18.4613967 37.850311,18.6366718 38.2125984,18.93509 C42.6220472,22.5778406 70.5559055,45.8832905 71.0488189,46.4885861 C72.4,48.1460925 67.1354331,55.8502828 65.4062992,55.8502828 C65.3447173,55.8511266 65.283616,55.8393851 65.2267717,55.8157841 C64.4566929,55.5021594 32.3133858,38.2528021 26.9417323,35.265527 C26.4713379,35.0040362 26.113373,34.5800936 25.9354331,34.0737532 L25.4629921,32.7345758 L34.911811,18.3235219 L34.9228346,18.3235219 Z M34.5023622,17.5159383 L34.2535433,17.8954242 L24.8047244,32.30491 L24.592126,32.6279434 L24.719685,32.9917481 L25.192126,34.3309254 C25.4324357,35.0188939 25.9183821,35.594868 26.5574803,35.9492288 C31.215748,38.5334961 63.9779528,56.1497943 64.9259843,56.5402571 C65.0757195,56.6022481 65.2362638,56.6342207 65.3984252,56.6343445 C65.696063,56.6343445 66.5984252,56.6343445 68.4866142,54.3527249 C69.5527141,53.0555268 70.4647935,51.6400652 71.2047244,50.134473 C72.1496063,48.1460925 72.3070866,46.7912339 71.6519685,45.9930591 C71.0456693,45.2497686 41.0204724,20.2413368 38.7070866,18.3313625 C38.2168588,17.9273655 37.6100497,17.6895165 36.9748031,17.652365 L34.9653543,17.5410283 L34.511811,17.5159383 L34.5023622,17.5159383 Z" id="Shape"></path>
                                    <path d="M8.22519685,30.0891517 C7.93276979,30.0921034 7.64569799,30.0109753 7.3984252,29.8555013 L6.05826772,28.9710797 C5.78492342,28.7990265 5.60965244,28.5081473 5.58582677,28.187018 C5.5752111,27.8569688 5.72174443,27.5413111 5.98110236,27.335527 C13.8423594,20.7032628 19.6430931,11.9778756 22.703937,2.18125964 C22.8162419,1.74936007 23.2010063,1.44285418 23.6488189,1.42856041 C23.8586553,1.43124131 24.0630154,1.49561721 24.2362205,1.61359897 L25.5716535,2.4933162 C26.1195278,2.88291148 26.3617309,3.57377939 26.176378,4.21825193 C23.0756493,14.1587451 17.1952585,23.0139888 9.22362205,29.7473008 C8.94086984,29.9734099 8.58780399,30.0942961 8.22519685,30.0891517 Z" id="Shape"></path>
                                    <path d="M23.6488189,1.82529563 C23.7813222,1.82757184 23.9101485,1.86905809 24.0188976,1.94447301 L25.3543307,2.82262211 C25.7525506,3.11480284 25.9295789,3.62058823 25.8,4.0959383 C22.7204561,13.9635409 16.8855084,22.7552519 8.97637795,29.444653 C8.76566394,29.6123779 8.5027956,29.7016624 8.23307087,29.6971208 C8.01766606,29.7011834 7.80578701,29.6423052 7.62362205,29.5277635 L6.28346457,28.6433419 C5.8976378,28.3893059 5.88031496,27.9423907 6.23779528,27.6397429 C14.1556952,20.9574036 20.0001511,12.1691643 23.088189,2.30200514 C23.1515856,2.03486353 23.3859681,1.84251058 23.6614173,1.83156812 L23.6488189,1.82529563 Z M23.6614173,1.04750643 C23.0391648,1.05704242 22.4986687,1.47621402 22.3370079,2.07462725 C19.2977469,11.8008901 13.5385796,20.4636475 5.73385827,27.0485604 C5.3791852,27.333131 5.18109709,27.7683564 5.2,28.2215167 C5.23428687,28.6642295 5.47581061,29.0650616 5.8519685,29.3035219 L6.87401575,29.9778149 L7.18897638,30.1879434 C7.50005797,30.3874056 7.86309835,30.4915482 8.23307087,30.487455 C8.69208612,30.4948962 9.13874421,30.3392289 9.49291339,30.0483805 C17.5225223,23.2657649 23.4446228,14.344956 26.5653543,4.33115681 C26.8023939,3.522302 26.49513,2.65299534 25.8015748,2.17028278 L25.2566929,1.8096144 L24.4692913,1.29056555 C24.2314179,1.13065402 23.9515624,1.04394505 23.6645669,1.04123393 L23.6614173,1.04750643 Z" id="Shape"></path>
                                    <path d="M23.4204724,33.2677378 C23.1353107,33.2701049 22.851711,33.2255996 22.5811024,33.1360154 L20.5984252,32.4601542 C20.0488189,32.2719794 19.6976378,31.9301285 19.6330709,31.5192802 C19.6,31.3060154 19.6188976,30.8920308 20.119685,30.5188175 L20.1338583,30.5078406 L20.1496063,30.4984319 C24.9070866,27.5942674 30.4456693,21.7169409 31.7228346,13.928072 L31.7228346,13.9014139 L31.7307087,13.877892 C31.9795276,13.0577635 32.503937,12.9683805 32.7181102,12.9683805 C33.1070866,12.9683805 33.4913386,13.2271208 33.8031496,13.699126 L35.0944882,15.6498715 C35.576378,16.3774807 35.7385827,17.5441645 35.4629921,18.3047044 C33.5433071,23.625347 29.5181102,29.1812082 24.9606299,32.8035733 C24.5108227,33.1193804 23.9706561,33.2821729 23.4204724,33.2677378 Z" id="Shape"></path>
                                    <path d="M32.7228346,13.3557069 C32.9637795,13.3557069 33.2346457,13.5391774 33.4787402,13.9092545 L34.7700787,15.86 C35.1858268,16.4872494 35.3307087,17.5206427 35.0976378,18.1667095 C33.096063,23.713162 28.9228346,29.1514139 24.719685,32.4915167 C24.3390559,32.754712 23.8836714,32.8893737 23.4204724,32.8757069 C23.1793053,32.8778507 22.9394045,32.8407735 22.7102362,32.7659383 L20.7259843,32.0838046 C19.9511811,31.8172237 19.7811024,31.2542674 20.3559055,30.8293059 C25.4677165,27.7087404 30.8456693,21.7075321 32.111811,13.9876607 C32.2393701,13.5689717 32.4645669,13.3604113 32.7228346,13.3604113 L32.7228346,13.3557069 Z M32.7228346,12.5763496 C32.0929134,12.5763496 31.584252,13.0201285 31.3574803,13.763419 L31.3433071,13.813599 L31.3354331,13.8637789 C30.7653543,17.3324679 29.3228346,20.6317995 27.0456693,23.6676864 C25.1031416,26.2519605 22.6953586,28.4543856 19.9448819,30.1628535 L19.911811,30.1832391 L19.8818898,30.2051928 C19.3968504,30.5689974 19.1637795,31.0707969 19.2440945,31.580437 C19.3322835,32.1371208 19.7795276,32.5918766 20.4692913,32.8349357 L20.6503937,32.8960925 L22.4519685,33.5233419 C22.7641363,33.6275278 23.091237,33.6804893 23.4204724,33.6801542 C24.0624526,33.6966806 24.6919283,33.5015274 25.2110236,33.1250386 C29.8220472,29.4603342 33.8944882,23.8386118 35.8393701,18.452108 C36.1543307,17.5739589 35.9795276,16.2833933 35.4283465,15.4491517 L34.7291339,14.3938046 L34.1370079,13.4984062 C33.6141732,12.7143445 33.0267717,12.5920308 32.719685,12.5920308 L32.7228346,12.5763496 Z" id="Shape"></path>
                                </g>
                                <g id="hand_neck5" transform="translate(88.827594, 658.012549) rotate(-20.000000) translate(-88.827594, -658.012549) translate(23.827594, 629.512549)">
                                    <path d="M63.6009294,31.5073248 C63.4607807,34.1273885 62.8868959,36.6397452 61.9288104,38.8059873 C60.76171,41.4466242 59.0424721,43.4797452 56.9583643,44.6863057 C56.7469331,44.8073248 56.5270446,44.9283439 56.2878253,45.0372611 C55.3666997,45.4810159 54.362757,45.7259259 53.3410781,45.7561146 C52.3527881,45.7924204 51.3681227,45.6544586 50.320632,45.5080255 C49.9062268,45.4499363 49.4749071,45.3870064 49.0266729,45.3361783 C47.9667418,45.2059908 46.8983348,45.1582471 45.8310409,45.1933758 L45.5398699,45.2066879 C45.0565985,45.2308917 44.6047398,45.270828 44.1432156,45.327707 C43.4936669,45.407026 42.8484956,45.5189073 42.2101301,45.6629299 C37.6432156,46.7012739 34.8921933,49.1724841 32.2317844,51.566242 C29.4686803,54.0495541 26.860223,56.3961146 22.6013941,56.8221019 C22.3259294,56.8487261 22.0444238,56.8680892 21.7629182,56.8789809 C13.7152416,57.1742675 3.3285316,50.2773885 0.694702602,39.5417834 C0.647583643,39.3481529 0.602881041,39.1545223 0.561802974,38.9608917 C0.547304833,38.8943312 0.532806691,38.8265605 0.519516729,38.7587898 L0.485687732,38.5869427 C0.473605948,38.5328875 0.462732342,38.4784289 0.453066914,38.4235669 C0.452601635,38.415102 0.452601635,38.4066178 0.453066914,38.3981529 C-0.606505576,32.756242 0.635501859,26.7803185 3.95678439,21.5547134 C6.97723048,16.8010828 11.3170074,13.3835032 15.5697955,12.4105096 C16.363195,12.2259025 17.1722527,12.1169029 17.9861524,12.0849682 C20.4532528,11.9942038 22.4974907,12.6900637 24.4752788,13.3532484 C26.535223,14.0491083 28.6664498,14.769172 31.4065985,14.6687261 C32.7682493,14.6089441 34.1177942,14.3854736 35.4262082,14.003121 C37.5731413,13.3980255 39.2380112,12.7166879 40.7071561,12.1152229 C42.8818773,11.2257325 44.761803,10.4572611 47.1986989,10.367707 C47.4475836,10.3580255 47.7025093,10.3556051 47.9574349,10.3616561 C52.4349442,10.4512102 57.1275093,13.6763694 60.3122677,18.8172611 L105.521097,8.22808917 C105.822142,6.82427719 106.881048,5.70662772 108.26487,5.33210191 L108.385688,5.30063694 C108.297076,5.12833193 108.229729,4.94586533 108.18513,4.75726115 C107.902416,3.59426752 108.495632,2.44700637 109.505669,2.20012739 C109.615475,2.1739835 109.727556,2.15858214 109.840335,2.15414013 C110.757342,2.12025478 111.603067,2.84031847 111.851952,3.86535032 C111.890065,4.02048945 111.913127,4.17895359 111.920818,4.33853503 L116.329461,3.14044586 C116.242901,2.97003381 116.176408,2.79012187 116.13132,2.60433121 C116.001549,2.08912334 116.048791,1.54515095 116.265428,1.06012739 C116.486214,0.558387401 116.924279,0.185590535 117.454275,0.0484076433 C117.563545,0.0215917705 117.675293,0.0061805158 117.787732,0.00242038217 C118.70474,-0.0314649682 119.550465,0.687388535 119.799349,1.71242038 C119.836554,1.86523695 119.859208,2.02124308 119.867007,2.17834395 L122.802881,1.37961783 C123.085797,1.30331302 123.376372,1.25906562 123.669145,1.24770701 C125.367343,1.18546736 126.903296,2.25187966 127.441078,3.86656051 C127.450381,3.88703454 127.45845,3.90804889 127.465242,3.92949045 C127.495446,4.02267516 127.522026,4.11949045 127.544981,4.21509554 L129.780112,13.7901274 C130.022732,14.8253613 129.826057,15.9150203 129.236918,16.7996269 C128.64778,17.6842335 127.718899,18.2846259 126.671468,18.4578344 L123.657063,18.9576433 L123.67881,19.0399363 C123.808671,19.5555398 123.76143,20.0999233 123.544703,20.5853503 C123.324169,21.086809 122.886604,21.4595592 122.357063,21.5970701 C122.247369,21.6238078 122.135228,21.6392173 122.022398,21.6430573 C121.10539,21.6769427 120.259665,20.9580892 120.010781,19.9330573 C119.98218,19.8136047 119.961994,19.6922869 119.950372,19.57 L115.621468,20.2888535 C115.621468,20.3070064 115.629926,20.323949 115.634758,20.3421019 C115.765191,20.8576591 115.717934,21.4022335 115.500651,21.8875159 C115.280117,22.3889746 114.842552,22.7617248 114.313011,22.8992357 C114.203317,22.9259734 114.091176,22.941383 113.978346,22.9452229 C113.061338,22.9791083 112.215613,22.2602548 111.966729,21.2352229 C111.94049,21.1268331 111.92112,21.0168897 111.908736,20.906051 L111.657435,20.9471975 C111.497535,20.9738115 111.336129,20.9903831 111.174164,20.9968153 C110.643214,21.0152208 110.11421,20.9233355 109.620446,20.7269427" id="Shape" fill="#FFFFFF" fill-rule="nonzero" opacity="0.490206069"></path>
                                    <path d="M62.5727695,26.8311465 C63.5960967,32.8929936 61.8478625,40.9504459 56.5657063,44.0049682 C52.6657063,46.2619745 50.3157993,43.776242 44.0526022,44.5471338 C32.7464684,45.9376433 31.0695167,55.1859236 22.5289033,56.043949 C14.4788104,56.8487261 4.03048327,49.8271975 1.46189591,39.3590446 C-1.53801115,27.1288535 7.41942379,15.086242 15.7401487,13.1838217 C23.2236059,11.4714013 26.1184015,17.4521656 35.6388476,14.7667516 C41.3342007,13.1596178 43.6128253,11.0671975 47.9417286,11.153121 C54.5855019,11.2814013 61.2304833,18.8680892 62.5727695,26.8311465 Z" id="Shape" fill="#FFFFFF" fill-rule="nonzero" opacity="0"></path>
                                    <path d="M62.5739777,26.8311465 C63.5948885,32.8929936 61.8490706,40.9504459 56.5657063,44.0049682 C52.6657063,46.2607643 50.3157993,43.776242 44.0526022,44.5471338 C32.7464684,45.9388535 31.0695167,55.1859236 22.5289033,56.043949 C14.4800186,56.8463057 4.03048327,49.8259873 1.46189591,39.3578344 C1.37369888,38.9947771 1.29637546,38.6401911 1.22871747,38.2819745 C4.18754647,48.2055414 14.2335502,54.7671975 22.0311338,53.9890446 C30.570539,53.1419108 32.2474907,43.8887898 43.5536245,42.4982803 C49.8168216,41.7273885 52.1667286,44.2119108 56.0667286,41.9561146 C61.3476766,38.9015924 63.097119,30.8441401 62.075,24.782293 L62.020632,24.4749045 C62.2520084,25.2485136 62.4367896,26.0353442 62.5739777,26.8311465 Z" id="Shape" fill="#FFFFFF" fill-rule="nonzero"></path>
                                    <ellipse id="Oval" fill="#FFFFFF" fill-rule="nonzero" transform="translate(110.005827, 4.319784) rotate(-13.660000) translate(-110.005827, -4.319784) " cx="110.005827" cy="4.31978376" rx="1.10185874" ry="1.38566879"></ellipse>
                                    <ellipse id="Oval" fill="#FFFFFF" fill-rule="nonzero" transform="translate(117.953277, 2.167862) rotate(-13.660000) translate(-117.953277, -2.167862) " cx="117.953277" cy="2.16786169" rx="1.10185874" ry="1.38566879"></ellipse>
                                    <ellipse id="Oval" fill="#FFFFFF" fill-rule="nonzero" transform="translate(42.682645, 29.371617) rotate(-13.660000) translate(-42.682645, -29.371617) " cx="42.6826448" cy="29.371617" rx="6.7355948" ry="6.20949045"></ellipse>
                                    <rect id="Rectangle-path" fill="#FFFFFF" fill-rule="nonzero" transform="translate(19.423802, 34.809762) rotate(166.340000) translate(-19.423802, -34.809762) " x="17.6586532" y="29.4298571" width="3.5302974" height="10.7598089" rx="0.908550186"></rect>
                                    <path d="M108.343383,9.46070172 L110.919238,8.85738854 L113.300558,19.0580892 L62.6090149,30.9312739 L62.5275901,29.8660148 L60.1394981,30.425414 C59.9302103,30.4737108 59.712537,30.3905128 59.5885688,30.2148408 L56.7421004,26.1667516 C56.6648751,26.0570744 56.6320604,25.922137 56.6502788,25.789172 L57.3618959,20.6640127 C57.3917376,20.4475238 57.5517275,20.2718674 57.7642193,20.222293 L108.102974,8.43140127 L108.343383,9.46070172 Z" id="Combined-Shape" fill="#FFFFFF" fill-rule="nonzero" opacity="0.3"></path>
                                    <path d="M108.47026,6.09089172 L123.003439,2.13961783 C123.802614,1.92242002 124.655589,2.03970113 125.366776,2.46456865 C126.077963,2.88943617 126.586353,3.5854425 126.775372,4.39299363 L129.010502,13.9692357 C129.202641,14.7923686 129.04592,15.6584512 128.577582,16.3616699 C128.109244,17.0648886 127.371103,17.5424587 126.538569,17.6808917 L111.523327,20.1750955 C109.917918,20.4417997 108.385997,19.3998274 108.041357,17.8067516 L106.287082,9.68757962 C105.943637,8.09782455 106.903146,6.51707675 108.47026,6.09089172 Z" id="Shape" fill="#FFFFFF" fill-rule="nonzero" opacity="0.5"></path>
                                    <ellipse id="Oval" fill="#FFFFFF" fill-rule="nonzero" cx="111.048513" cy="8.7133758" rx="1" ry="1"></ellipse>
                                    <ellipse id="Oval" fill="#FFFFFF" fill-rule="nonzero" cx="118.972955" cy="6.51929936" rx="1" ry="1"></ellipse>
                                    <polyline id="Shape" stroke="#FFFFFF" stroke-width="0.65" points="111.035223 8.70127389 105.575465 10.4136943 18.5769517 31.2265605"></polyline>
                                    <polyline id="Shape" stroke="#FFFFFF" stroke-width="0.65" points="19.1339219 33.2959873 105.888383 12.3378981 118.974164 6.50598726"></polyline>
                                    <ellipse id="Oval" fill="#FFFFFF" fill-rule="nonzero" cx="112.981599" cy="16.6836943" rx="1" ry="1"></ellipse>
                                    <ellipse id="Oval" fill="#FFFFFF" fill-rule="nonzero" cx="121.029275" cy="14.9894268" rx="1" ry="1"></ellipse>
                                    <polyline id="Shape" stroke="#FFFFFF" stroke-width="0.65" points="112.975558 16.7006369 107.091729 16.6607006 20.2611524 38.1706369"></polyline>
                                    <polyline id="Shape" stroke="#FFFFFF" stroke-width="0.65" points="19.7247212 35.7175796 106.487639 14.8078981 121.035316 14.9991083"></polyline>
                                    <path d="M126.775372,4.39420382 L129.010502,13.9692357 C129.202641,14.7923686 129.04592,15.6584512 128.577582,16.3616699 C128.109244,17.0648886 127.371103,17.5424587 126.538569,17.6808917 L111.523327,20.1750955 C109.917918,20.4417997 108.385997,19.3998274 108.041357,17.8067516 L107.902416,17.1629299 C108.399871,18.5539477 109.819069,19.3897713 111.274442,19.1488535 L126.288476,16.6534395 C127.121088,16.5156409 127.859464,16.0383934 128.327893,15.3352676 C128.796322,14.6321419 128.952915,13.7660129 128.760409,12.9429936 L126.713755,4.17394904 C126.737918,4.24535032 126.757249,4.31796178 126.775372,4.39420382 Z" id="Shape" fill="#FFFFFF" fill-rule="nonzero" opacity="0.2"></path>
                                    <rect id="Rectangle-path" fill="#FFFFFF" fill-rule="nonzero" transform="translate(114.509382, 21.910201) rotate(-9.743641) translate(-114.509382, -21.910201) " x="114.235108" y="21.2373527" width="1" height="1.34569659"></rect>
                                    <ellipse id="Oval" fill="#FFFFFF" fill-rule="nonzero" transform="translate(113.788268, 20.801811) rotate(-13.660000) translate(-113.788268, -20.801811) " cx="113.788268" cy="20.8018114" rx="1.10185874" ry="1.38566879"></ellipse>
                                    <rect id="Rectangle-path" fill="#FFFFFF" fill-rule="nonzero" transform="translate(122.593292, 20.606740) rotate(-9.743641) translate(-122.593292, -20.606740) " x="122.319018" y="19.9338921" width="1" height="1.34569659"></rect>
                                    <ellipse id="Oval" fill="#FFFFFF" fill-rule="nonzero" transform="translate(121.832147, 19.496219) rotate(-13.660000) translate(-121.832147, -19.496219) " cx="121.832147" cy="19.4962188" rx="1.10185874" ry="1.38566879"></ellipse>
                                    <path d="M61.2063197,19.3993631 L63.5924721,29.6000637" id="Shape" stroke="#FFFFFF" stroke-width="0.65"></path>
                                    <path d="M64.9927509,18.5292357 L67.3861524,28.7275159" id="Shape" stroke="#FFFFFF" stroke-width="0.65"></path>
                                    <path d="M69.0546468,17.5961783 L71.4420074,27.796879" id="Shape" stroke="#FFFFFF" stroke-width="0.65"></path>
                                    <path d="M72.8084572,16.7091083 L75.1946097,26.9085987" id="Shape" stroke="#FFFFFF" stroke-width="0.65"></path>
                                    <path d="M76.5622677,15.820828 L78.9484201,26.0215287" id="Shape" stroke="#FFFFFF" stroke-width="0.65"></path>
                                    <path d="M80.3160781,14.933758 L82.7022305,25.1332484" id="Shape" stroke="#FFFFFF" stroke-width="0.65"></path>
                                    <path d="M84.0686803,14.0454777 L86.4560409,24.2461783" id="Shape" stroke="#FFFFFF" stroke-width="0.65"></path>
                                    <path d="M87.8224907,13.1571975 L90.2086431,23.3578981" id="Shape" stroke="#FFFFFF" stroke-width="0.65"></path>
                                    <path d="M91.5763011,12.2701274 L93.9624535,22.470828" id="Shape" stroke="#FFFFFF" stroke-width="0.65"></path>
                                    <path d="M95.3458178,11.4193631 L97.7283457,21.6200637" id="Shape" stroke="#FFFFFF" stroke-width="0.65"></path>
                                    <path d="M99.0947955,10.5419745 L101.484572,20.7402548" id="Shape" stroke="#FFFFFF" stroke-width="0.65"></path>
                                    <path d="M102.849814,9.66216561 L105.225093,19.8640764" id="Shape" stroke="#FFFFFF" stroke-width="0.65"></path>
                                </g>
                            </g>
                        </g>
                    </g>
                </g>
            </g>
        </g>
    </g>
</svg>