<?xml version="1.0" encoding="UTF-8"?>
<svg width="291px" height="614px" viewBox="0 0 291 614" version="1.1" xmlns="http://www.w3.org/2000/svg" xmlns:xlink="http://www.w3.org/1999/xlink">
    <!-- Generator: Sketch 49 (51002) - http://www.bohemiancoding.com/sketch -->
    <title>Group 32</title>
    <desc>Created with Sketch.</desc>
    <defs></defs>
    <g id="Page-1" stroke="none" stroke-width="1" fill="none" fill-rule="evenodd">
        <g id="Desktop-HD" transform="translate(-1086.000000, -81.000000)">
            <g id="Group-19">
                <g id="Group-32" transform="translate(1082.000000, 63.000000)">
                    <g id="shoe4_0" transform="translate(132.143301, 610.566136) rotate(15.000000) translate(-132.143301, -610.566136) translate(82.143301, 599.566136)" fill-rule="nonzero">
                        <path d="M26.312296,5.61711443 C22.6126224,5.61711443 20.6158868,5.21104478 20.218716,4.3759204 C20.1099021,4.14935323 20.0642002,3.78049751 20.4461371,3.30547264 C21.2313477,2.35212065 22.206648,1.5750556 23.3090316,1.02447761 C24.2339499,0.558208955 25.1882481,0.279104478 25.8607182,0.279104478 C25.9620095,0.278377881 26.0631875,0.286065694 26.1632209,0.302089552 C26.425208,0.345665667 26.6025127,0.594565592 26.5593036,0.858109453 C26.4287269,1.64179104 27.6082699,3.40179104 28.2426551,4.34746269 C28.3656148,4.53243781 28.476605,4.69661692 28.5690968,4.83562189 C28.6625544,4.98106851 28.6713846,5.16572998 28.5922364,5.31952751 C28.5130882,5.47332505 28.3580932,5.57268503 28.1860718,5.5799005 C27.7638738,5.59741294 27.0946681,5.61711443 26.312296,5.61711443 Z" id="Shape" fill="#A82639"></path>
                        <path d="M25.8628945,0.552736318 C25.9492553,0.551996106 26.0355243,0.558586646 26.1207835,0.572437811 C26.1755337,0.581015424 26.2245695,0.611340368 26.2568921,0.65661074 C26.2892147,0.701881113 26.3021186,0.758307644 26.2927095,0.813233831 C26.1196953,1.85631841 27.7323177,4.04099502 28.3394995,4.98447761 C28.3802172,5.04742035 28.3842444,5.12749453 28.3500495,5.19424921 C28.3158546,5.2610039 28.2486919,5.30418185 28.1741023,5.30736318 C27.7867247,5.32268657 27.1099021,5.34348259 26.3133841,5.34348259 C23.5571273,5.34348259 19.3579978,5.09064677 20.6550598,3.48278607 C22.2622416,1.4918408 24.7116431,0.557114428 25.8585419,0.557114428 L25.8628945,0.552736318 Z M25.8585419,0.00985074627 C24.570185,0.00985074627 21.9738847,0.980696517 20.2328618,3.13800995 C19.7606094,3.72248756 19.8302503,4.19970149 19.9706202,4.49741294 C20.2600653,5.1081592 21.0826986,5.47701493 22.6376496,5.69263682 C23.8556574,5.8415866 25.0821354,5.90923049 26.3090316,5.89512438 C27.0968444,5.89512438 27.7671382,5.87542289 28.1915125,5.85791045 C28.4613241,5.84689426 28.7045432,5.69119228 28.8287131,5.44999282 C28.9528829,5.20879336 28.9389327,4.91914121 28.7921654,4.69114428 C28.7007617,4.54995025 28.5919478,4.38686567 28.4657236,4.19970149 C27.9412405,3.4160199 26.7127312,1.58378109 26.8248096,0.908457711 C26.8587969,0.709670783 26.8125522,0.50545858 26.6963264,0.341088643 C26.5801006,0.176718706 26.4034952,0.0657697819 26.2056583,0.0328358209 C26.0909491,0.0137022011 25.974814,0.00454727241 25.8585419,0.00547263682 L25.8585419,0.00985074627 Z" id="Shape" fill="#333333"></path>
                        <path d="M37.3939064,17.481791 C29.5886834,17.481791 19.8063112,16.6608955 14.6692057,16.1683582 C11.3220892,15.8498507 8.10554951,15.4963184 5.61262242,15.1756219 C1.84113166,14.6885572 1.71273123,14.5473632 1.61915125,14.4444776 C1.47007617,14.279204 1.27747552,14.0274627 1.32535365,13.7352239 C1.37867247,13.4068657 1.6898803,13.2295522 2.04896627,13.0281592 C2.1577802,12.9701493 2.25897715,12.9110448 2.36670294,12.8442786 C2.79107726,12.581592 4.12078346,12.2258706 5.95756257,11.7497512 C6.76060936,11.541791 7.51904244,11.3458706 7.87704026,11.2243781 C8.21001088,11.1149254 8.7007617,10.9562189 9.2687704,10.7778109 C10.8226333,10.2907463 13.422198,9.47422886 13.8552775,9.09880597 C14.0903156,8.89522388 14.8607182,8.4760199 16.3155604,7.69233831 C18.5473341,6.48835821 21.9020675,4.68129353 24.3155604,2.96616915 C24.3357331,2.7990758 24.4033578,2.64137186 24.5103373,2.5119403 C24.6985854,2.2678607 25.0631121,2.00517413 25.4189336,2.00517413 C25.5000219,2.00482354 25.5804656,2.0196705 25.656148,2.04895522 C27.125136,2.64547264 30.5886834,3.50029851 35.9031556,4.11323383 C37.1249838,4.25179555 38.3536756,4.32013211 39.5832427,4.31791045 C41.9314472,4.31791045 44.2165397,4.0760199 45.405876,3.70169154 C45.531434,3.65826253 45.6627299,3.63391503 45.7954298,3.62945274 C45.9701844,3.61502458 46.1372619,3.70439908 46.2230686,3.85820896 C46.3220892,4.04318408 46.2611534,4.26865672 46.1817193,4.44049751 C48.343852,6.64706468 48.4961915,11.5352239 48.2350381,15.2927363 C48.1697497,16.2296517 46.9760609,17.4763184 37.4026115,17.4763184 L37.3939064,17.481791 Z" id="Shape" fill="#BA2839"></path>
                        <path d="M25.4134929,2.28427861 C25.4595826,2.28359952 25.5053778,2.29177217 25.5484222,2.30835821 C27.0642002,2.92348259 30.6137106,3.78487562 35.8661589,4.3879602 C37.0985179,4.5269924 38.3377173,4.59569283 39.577802,4.59373134 C42.1349293,4.59373134 44.3754081,4.31353234 45.4820457,3.96437811 C45.5812628,3.92961681 45.685018,3.90970278 45.7899891,3.90527363 C46.2252448,3.90527363 45.8367791,4.49303483 45.8367791,4.49303483 C47.8531012,6.35373134 48.2742111,10.7252736 47.9575626,15.2763184 C47.85963,16.699204 43.4504897,17.2048756 37.4026115,17.2048756 C23.9096844,17.2048756 2.22089227,14.6951244 1.82045702,14.2595025 C1.24809576,13.6290547 1.84113166,13.4933333 2.50924918,13.0774129 C3.1773667,12.6614925 6.96191513,11.8252736 7.95865071,11.4848756 C9.31229597,11.0240796 13.3993471,9.85402985 14.0272035,9.3078607 C14.6550598,8.76169154 20.8084875,5.82069652 24.5886834,3.1040796 C24.5005441,2.75711443 25.0369967,2.28099502 25.4134929,2.28099502 L25.4134929,2.28427861 Z M25.4134929,1.73373134 C24.9640914,1.73373134 24.5244831,2.04129353 24.289445,2.34557214 C24.1813454,2.48216802 24.1034437,2.64037863 24.0609358,2.80965174 C21.6670294,4.49522388 18.3786725,6.26835821 16.1817193,7.45263682 C14.6681175,8.2680597 13.9292709,8.67084577 13.6713819,8.89412935 C13.2818281,9.23233831 10.515778,10.0981095 9.18171926,10.5195025 C8.61262242,10.6979104 8.11969532,10.8478607 7.78454842,10.9671642 C7.44940152,11.0864677 6.68226333,11.280199 5.8835691,11.4870647 C3.97062024,11.981791 2.68226333,12.3276617 2.22415669,12.6111443 C2.11534276,12.6746269 2.01741023,12.7326368 1.91730141,12.7895522 C1.53101197,13.0084577 1.13166485,13.2273632 1.05658324,13.6903483 C0.981501632,14.1533333 1.3101197,14.5090547 1.41784548,14.6283582 C1.57997824,14.8067662 1.70729053,14.9479602 5.5788901,15.4470647 C8.07399347,15.7688557 11.2927095,16.1212935 14.6441785,16.4408955 C19.7867247,16.9301493 29.5799782,17.7543284 37.3971708,17.7543284 C40.6539717,17.7543284 43.211099,17.6065672 44.9978237,17.3165174 C46.0206746,17.1501493 46.7899891,16.94 47.3492927,16.6751244 C48.0750816,16.3314428 48.4624592,15.8739303 48.5005441,15.3168159 C48.7606094,11.5724378 48.609358,6.7160199 46.491839,4.38139303 C46.5681299,4.16969895 46.5559614,3.93595427 46.4581066,3.73343284 C46.3249679,3.49045708 46.0654186,3.34546377 45.7899891,3.360199 C45.6295996,3.36415019 45.4707355,3.39256671 45.3188248,3.44447761 C44.3645267,3.74547264 42.218716,4.04865672 39.577802,4.04865672 C38.3584231,4.0510575 37.1399019,3.98345171 35.9281828,3.84616915 C30.6420022,3.23651741 27.2056583,2.38935323 25.7519042,1.80049751 C25.6443097,1.75717479 25.5293857,1.7352445 25.4134929,1.7359204 L25.4134929,1.73373134 Z" id="Shape" fill="#333333"></path>
                        <path d="M15.8073993,10.7854726 C15.0469076,10.7989932 14.2896623,10.6824079 13.5680087,10.4406965 C13.1022851,10.2743284 12.5984766,10.0608955 12.5136017,9.63402985 C12.4559304,9.33960199 12.2959739,8.55810945 17.7366703,5.52517413 C20.4787813,3.99283582 23.6126224,2.49771144 24.8650707,2.11462687 C25.0511983,2.05702885 25.2448717,2.02788109 25.4396083,2.0281592 C26.1741023,2.0281592 26.8269859,2.43860697 27.398259,2.79432836 C27.5277476,2.87532338 27.6550598,2.95631841 27.781284,3.02965174 L28.0359086,3.17741294 C29.1980413,3.84288557 30.0707291,4.39781095 29.8770403,4.96477612 C29.5321001,5.99472637 21.2513602,10.7854726 15.8073993,10.7854726 Z" id="Shape" fill="#A82639"></path>
                        <path d="M25.4396083,2.29850746 C26.2491839,2.29850746 26.9727965,2.87094527 27.6496192,3.26825871 C28.3264418,3.66557214 29.7780196,4.42955224 29.6245919,4.87721393 C29.3427639,5.70139303 21.2230686,10.5085572 15.8052231,10.5085572 C15.0758812,10.5226485 14.349486,10.411606 13.6572361,10.180199 C13.1969532,10.0160199 12.8302503,9.839801 12.7791077,9.57930348 C12.5223069,8.27791045 22.5495103,3.1040796 24.9412405,2.37402985 C25.1020671,2.32466924 25.2692853,2.29958679 25.437432,2.29960199 L25.4396083,2.29850746 Z M25.437432,1.75233831 C25.2162446,1.75259223 24.9962852,1.78541108 24.7845484,1.84975124 C23.5146899,2.23830846 20.3601741,3.74656716 17.6028292,5.28437811 C16.3341352,5.97577423 15.1038051,6.73613665 13.9173014,7.56208955 C12.6115343,8.50119403 12.132753,9.11631841 12.2448313,9.68547264 C12.3667029,10.300597 13.0870511,10.5610945 13.4744287,10.6968159 C14.2255153,10.9486066 15.0136342,11.0703682 15.8052231,11.0569154 C19.0141458,11.0569154 22.8628945,9.45343284 24.8715996,8.49791045 C26.0850433,7.92556909 27.2634199,7.28083911 28.4004353,6.56716418 C29.9651795,5.56567164 30.0826986,5.22089552 30.1414581,5.05562189 C30.4243743,4.22925373 29.2829162,3.57472637 28.1828074,2.94208955 C28.0914037,2.88845771 28.0054407,2.84029851 27.9303591,2.79542289 C27.8084875,2.72427861 27.6844396,2.64656716 27.5538629,2.56447761 C26.9466812,2.18358209 26.257889,1.75124378 25.4461371,1.75124378 L25.437432,1.75233831 Z" id="Shape" fill="#333333"></path>
                        <path d="M27.359086,16.9246766 C12.9510337,16.9246766 2.52883569,14.2014925 1.69858542,13.299602 L1.57997824,13.1704478 L1.64744287,13.0084577 C1.65832427,12.9810945 1.66920566,12.9482587 1.68117519,12.9132338 C1.74646355,12.7129353 1.88465724,12.2970149 2.30359086,12.2970149 C2.36131677,12.2977853 2.41871563,12.3058757 2.47442873,12.3210945 C8.11860718,13.8632836 16.7475517,14.6447761 28.1218716,14.6447761 C38.484222,14.6447761 47.5038085,13.9650746 47.9412405,13.9092537 C47.9861578,13.8984691 48.0321669,13.8929597 48.078346,13.8928358 C48.2366703,13.8910053 48.3863152,13.9654533 48.4809576,14.0931343 C48.6158868,14.2781095 48.6311208,14.5451741 48.5255713,14.8877612 L48.476605,15.0464677 L48.3133841,15.0760199 C41.3953492,16.303964 34.3840059,16.9225276 27.359086,16.9246766 Z" id="Shape" fill="#999999"></path>
                        <path d="M2.30359086,12.5706468 C2.33712678,12.5713207 2.37042503,12.5764736 2.40261153,12.5859701 C9.10663765,14.4171144 19.1599565,14.918408 28.1218716,14.918408 C38.7660501,14.918408 47.8715996,14.2102488 47.9945593,14.1785075 C48.0218505,14.1708539 48.050016,14.1668066 48.078346,14.1664677 C48.2676823,14.1664677 48.4047878,14.3547264 48.265506,14.8067662 C41.3633222,16.032225 34.3679667,16.6493266 27.359086,16.6510448 C12.5680087,16.6510448 2.58541893,13.86 1.89662677,13.1135323 C1.96844396,12.9395025 2.02720348,12.5662687 2.30141458,12.5662687 L2.30359086,12.5706468 Z M2.30141458,12.019005 C1.68552775,12.019005 1.49292709,12.6023881 1.42002176,12.8223881 C1.41131665,12.8497512 1.39934712,12.8847761 1.39390642,12.899005 L1.26006529,13.2273632 L1.49727965,13.4845771 C1.59412405,13.5940299 1.89227421,13.9147264 3.9336235,14.5068657 C5.68149221,14.9973423 7.45356924,15.3959252 9.24265506,15.700995 C13.0674646,16.3839801 19.3155604,17.1983085 27.3569097,17.1983085 C34.3975368,17.1963831 41.424563,16.5763522 48.3579978,15.3452736 L48.6844396,15.2872637 L48.7834603,14.9687562 C48.9162133,14.538607 48.8922742,14.1894527 48.6974973,13.9311443 C48.5522972,13.7327261 48.3210946,13.6166498 48.0761697,13.619204 C48.0147165,13.6193189 47.9534449,13.6259222 47.8933624,13.6389055 C47.2861806,13.7078607 38.3721436,14.3711443 28.1196953,14.3711443 C16.7693145,14.3711443 8.16430903,13.5929353 2.5484222,12.0573134 C2.46971382,12.0354634 2.38850347,12.0240567 2.30685528,12.0233831 L2.30141458,12.019005 Z" id="Shape" fill="#333333"></path>
                        <path d="M27.0402612,21.6716418 C18.3895539,21.6716418 3.44504897,21.2130348 0.561479869,18.141791 L0.516866159,18.0947264 L0.498367791,18.0323383 C0.0337323177,16.4616915 0.550598477,13.7483582 1.695321,13.2273632 L1.80413493,13.1770149 L1.91294886,13.2262687 C7.28618063,15.6068657 22.6115343,15.8640796 28.9521219,15.8640796 C36.6615887,15.8640796 44.2285092,15.5160199 48.2295974,14.9775124 L48.4972797,14.941393 L48.5353645,15.2095522 C48.6158868,15.7655721 48.656148,18.3245771 48.4494015,19.7573134 C48.3760793,20.2800691 47.9696224,20.6920298 47.4504897,20.7697512 C44.6463547,21.2075622 35.7747552,21.6716418 27.039173,21.6716418 L27.0402612,21.6716418 Z" id="Shape" fill="#E6E6E6"></path>
                        <path d="M1.80739935,13.4725373 C6.23939064,15.4361194 18.0304679,16.1333333 28.9553863,16.1333333 C36.914037,16.1333333 44.4124048,15.7633831 48.2698585,15.2445771 C48.3471164,15.7863682 48.3873776,18.301592 48.1838955,19.7135323 C48.1247645,20.1159346 47.8120331,20.4327204 47.4124048,20.4950249 C44.7910773,20.9021891 36.1904244,21.3936318 27.0402612,21.3936318 C15.5843308,21.3936318 3.2687704,20.6274627 0.759521219,17.9491542 C0.299238303,16.3927363 0.892274211,13.8884577 1.80739935,13.4725373 Z M1.80739935,12.8738308 L1.58977149,12.9745274 C0.313384113,13.5546269 -0.260065288,16.4025871 0.243743199,18.1056716 L0.280739935,18.2304478 L0.369967356,18.3256716 C1.6289445,19.6653731 4.94015234,20.6121393 10.4896627,21.2185075 C14.820457,21.6913433 20.5440696,21.9408955 27.0446137,21.9408955 C35.7932535,21.9408955 44.6844396,21.4735323 47.5016322,21.0357214 C48.1383995,20.9388763 48.6367532,20.4335939 48.7279652,19.7923383 C48.945593,18.3103483 48.8977149,15.7491542 48.81284,15.1657711 L48.7355822,14.6294527 L48.2023939,14.7016915 C44.2121872,15.2391045 36.6594124,15.5860697 28.960827,15.5860697 C23.0087051,15.5860697 17.4896627,15.381393 12.9978237,14.9939303 C7.72361262,14.5397015 4.03373232,13.8589055 2.03155604,12.9723383 L1.81392818,12.8738308 L1.80739935,12.8738308 Z" id="Shape" fill="#333333"></path>
                        <path d="M48.1838955,19.7135323 C48.1250959,20.1161015 47.8122013,20.4330525 47.4124048,20.4950249 C41.508161,21.4133333 5.2742111,22.7585075 0.759521219,17.9502488 C0.594380189,17.3147572 0.55445712,16.6529031 0.642002176,16.00199 C5.7867247,20.6657711 41.5745375,19.3293532 47.4581066,18.4154229 C47.8604513,18.3529044 48.17517,18.0336741 48.2339499,17.6284577 C48.2883569,17.2530348 48.297062,16.3971144 48.3090316,15.761194 C48.3536453,16.7221891 48.3482046,18.5763184 48.1838955,19.7135323 Z" id="Shape" fill="#E6E6E6"></path>
                        <path d="M48.1838955,19.7135323 C48.1250959,20.1161015 47.8122013,20.4330525 47.4124048,20.4950249 C41.508161,21.4133333 5.2742111,22.7585075 0.759521219,17.9502488 C0.594380189,17.3147572 0.55445712,16.6529031 0.642002176,16.00199 C5.7867247,20.6657711 41.5745375,19.3293532 47.4581066,18.4154229 C47.8604513,18.3529044 48.17517,18.0336741 48.2339499,17.6284577 C48.2883569,17.2530348 48.297062,16.3971144 48.3090316,15.761194 C48.3536453,16.7221891 48.3482046,18.5763184 48.1838955,19.7135323 Z" id="Shape" fill="#000000" opacity="0.1"></path>
                        <path d="M73.640914,5.61711443 C72.8574538,5.61711443 72.1904244,5.59741294 71.7693145,5.5799005 C71.5970972,5.57306053 71.4417541,5.47384725 71.3623456,5.31998094 C71.282937,5.16611462 71.2916612,4.98123107 71.3852013,4.83562189 C71.4744287,4.69771144 71.5854189,4.53243781 71.7116431,4.34746269 C72.3460283,3.40179104 73.5255713,1.64179104 73.3960827,0.858109453 C73.3528736,0.594565592 73.5301783,0.345665667 73.7921654,0.302089552 C73.8918326,0.286061237 73.9926496,0.278373207 74.09358,0.279104478 C74.7660501,0.279104478 75.7257889,0.558208955 76.6452666,1.02447761 C77.7480163,1.57447497 78.7234286,2.35162922 79.508161,3.30547264 C79.8911861,3.78049751 79.8433079,4.14935323 79.7366703,4.3759204 C79.3373232,5.21104478 77.3449402,5.61711443 73.640914,5.61711443 Z" id="Shape" fill="#A82639"></path>
                        <path d="M74.0903156,0.552736318 C75.2383025,0.552736318 77.687704,1.48746269 79.2937976,3.47840796 C80.5995647,5.09064677 76.3960827,5.33910448 73.640914,5.33910448 C72.8433079,5.33910448 72.1664853,5.31830846 71.7801959,5.30298507 C71.7057274,5.29950817 71.638743,5.2563816 71.6044204,5.18981561 C71.5700979,5.12324962 71.5736381,5.04333109 71.6137106,4.9800995 C72.2208923,4.03661692 73.8335147,1.8519403 73.6605005,0.808855721 C73.6514154,0.753807312 73.6645867,0.697390047 73.6970824,0.652163537 C73.729578,0.606937027 73.7787007,0.57665531 73.8335147,0.568059701 C73.9184129,0.554249234 74.0043171,0.547658758 74.0903156,0.548358209 L74.0903156,0.552736318 Z M74.0903156,0.00109452736 C73.9740435,0.000169162957 73.8579084,0.00932409166 73.7431991,0.0284577114 C73.5454982,0.0616655715 73.3690754,0.172678898 73.2529014,0.336975488 C73.1367275,0.501272078 73.0903624,0.705332002 73.1240479,0.904079602 C73.2328618,1.57940299 72.007617,3.41164179 71.4831338,4.19532338 C71.3569097,4.38248756 71.2480958,4.54557214 71.1566921,4.68676617 C71.0098417,4.91492562 70.9959973,5.20480025 71.1204276,5.44606869 C71.244858,5.68733713 71.4884257,5.84289222 71.7584331,5.85353234 C72.1817193,5.87104478 72.8531012,5.89074627 73.640914,5.89074627 C74.8678087,5.90478512 76.0942823,5.83714148 77.312296,5.68825871 C78.867247,5.46935323 79.6898803,5.10378109 79.9782372,4.49303483 C80.1196953,4.19532338 80.1882481,3.71810945 79.7159956,3.13363184 C77.9749728,0.976318408 75.3786725,0.00547263682 74.0903156,0.00547263682 L74.0903156,0.00109452736 Z" id="Shape" fill="#333333"></path>
                        <path d="M62.5571273,17.481791 C52.9815016,17.481791 51.7845484,16.2362189 51.7247008,15.298209 C51.4635473,11.5406965 51.6158868,6.65144279 53.7769314,4.44597015 C53.6974973,4.27412935 53.6376496,4.04865672 53.7355822,3.86368159 C53.8215872,3.71007589 53.9885237,3.62077674 54.1632209,3.63492537 C54.2962664,3.63947361 54.4279086,3.66381733 54.5538629,3.70716418 C55.742111,4.08149254 58.0282916,4.32338308 60.3764962,4.32338308 C61.6060624,4.32557386 62.8347525,4.2572374 64.0565832,4.11870647 C69.3699674,3.50577114 72.8335147,2.65094527 74.3035909,2.05442786 C74.3788904,2.02512822 74.4589807,2.01027835 74.5397171,2.01064677 C74.8966268,2.01064677 75.2611534,2.27333333 75.4494015,2.51741294 C75.5559888,2.64697249 75.6232308,2.80466497 75.6430903,2.97164179 C78.0576714,4.68676617 81.4102285,6.49383085 83.6441785,7.69781095 C85.0990207,8.48149254 85.8694233,8.90179104 86.1044614,9.10427861 C86.6670294,9.59353234 90.5821545,10.9025871 91.6539717,11.1926368 C92.0609358,11.3020896 92.7236126,11.4564179 93.4254625,11.618408 C95.4581066,12.0879602 97.0500544,12.4699502 97.5114255,12.7556219 C97.6039173,12.8125373 97.6964091,12.8650746 97.7845484,12.9176119 C98.1828074,13.1485572 98.5582155,13.3663682 98.6158868,13.739602 C98.6517954,13.9694527 98.5593036,14.200398 98.3351469,14.4477612 C98.2426551,14.5506468 98.117519,14.6918408 94.3416757,15.1789055 C91.8498368,15.499602 88.6332971,15.8520398 85.2850925,16.1716418 C80.1468988,16.6608955 70.3623504,17.481791 62.5571273,17.481791 Z" id="Shape" fill="#BA2839"></path>
                        <path d="M74.5375408,2.28427861 C74.9151251,2.28427861 75.4504897,2.76039801 75.3623504,3.10736318 C79.1425462,5.8239801 85.2959739,8.76606965 85.9238303,9.31114428 C86.5516866,9.85621891 90.562568,11.1816915 91.5821545,11.4564179 C92.9085963,11.8154229 96.6964091,12.5750249 97.3677911,12.9887562 C98.039173,13.4024876 98.7051143,13.6323383 98.1294886,14.2627861 C97.734494,14.700597 76.0500544,17.2081592 62.5527748,17.2081592 C56.4983678,17.2081592 52.0903156,16.7024876 51.9912949,15.279602 C51.6746464,10.7285572 52.1001088,6.35263682 54.1120783,4.49631841 C54.1120783,4.49631841 53.7225245,3.90855721 54.1588683,3.90855721 C54.2642081,3.91286368 54.3683399,3.93277962 54.4678999,3.96766169 C55.5745375,4.31681592 57.8139282,4.59701493 60.3710555,4.59701493 C61.6111409,4.59900689 62.8503421,4.53030636 64.0826986,4.39124378 C69.336235,3.78487562 72.8857454,2.92348259 74.4004353,2.31164179 C74.4435079,2.29515831 74.4892834,2.28698917 74.5353645,2.28756219 L74.5375408,2.28427861 Z M74.5353645,1.74029851 C74.4194792,1.73970541 74.3045709,1.76163272 74.1969532,1.80487562 C72.7442873,2.39373134 69.3079434,3.24089552 64.0206746,3.85054726 C62.8089555,3.98782982 61.5904343,4.05543561 60.3710555,4.05303483 C57.7301415,4.05303483 55.5832427,3.74985075 54.6300326,3.44885572 C54.4781431,3.39686241 54.3192663,3.36844363 54.1588683,3.36457711 C53.8837606,3.3500044 53.6246107,3.49501076 53.491839,3.73781095 C53.3934897,3.94020381 53.3813104,4.17415297 53.4581066,4.38577114 C51.3405876,6.72039801 51.1882481,11.5768159 51.4483134,15.321194 C51.5386289,16.618209 53.4907508,17.0833831 54.9521219,17.3208955 C56.7377584,17.6109453 59.2948857,17.7587065 62.5527748,17.7587065 C70.3688792,17.7587065 80.1632209,16.9367164 85.3057671,16.4452736 C88.656148,16.1256716 91.8759521,15.7732338 94.3710555,15.4514428 C98.2426551,14.9523383 98.3699674,14.8111443 98.531012,14.6327363 C98.8106638,14.3251741 98.9270947,14.0110448 98.8792165,13.6991045 C98.8008705,13.1956219 98.3503808,12.9329353 97.9151251,12.681194 C97.8269859,12.6308458 97.7366703,12.5783085 97.648531,12.5235821 C97.1501632,12.2149254 95.6071817,11.8438806 93.4809576,11.3524378 C92.781284,11.1915423 92.1207835,11.0383085 91.7192601,10.9299502 C90.491839,10.601592 86.7573449,9.31552239 86.2785637,8.89850746 C86.0217628,8.67960199 85.2829162,8.27243781 83.7693145,7.45701493 C81.5712731,6.27273632 78.2829162,4.50179104 75.8900979,2.81402985 C75.8476473,2.64452394 75.7693325,2.48622815 75.6605005,2.34995025 C75.4254625,2.04567164 74.9869423,1.73810945 74.5364527,1.73810945 L74.5353645,1.74029851 Z" id="Shape" fill="#333333"></path>
                        <path d="M84.1458107,10.7854726 C78.7051143,10.7854726 70.422198,5.99472637 70.0718172,4.97024876 C69.8770403,4.40328358 70.7508161,3.84835821 71.9118607,3.18288557 L72.1675734,3.03512438 C72.2937976,2.96179104 72.4211099,2.88079602 72.5505985,2.799801 C73.1262242,2.43860697 73.7801959,2.03363184 74.5146899,2.03363184 C74.7094204,2.0334363 74.9030816,2.06258223 75.0892274,2.1200995 C76.343852,2.50318408 79.4744287,4.00159204 82.2165397,5.53064677 C87.6517954,8.56358209 87.4972797,9.34507463 87.4396083,9.63950249 C87.3558215,10.0663682 86.8509249,10.279801 86.3852013,10.4461692 C85.663928,10.6879029 84.9070363,10.8044905 84.1468988,10.7909453 L84.1458107,10.7854726 Z" id="Shape" fill="#A82639"></path>
                        <path d="M74.5146899,2.29850746 C74.6824742,2.29856821 74.8493226,2.32365018 75.0097933,2.37293532 C77.4036997,3.10298507 87.4287269,8.27681592 87.1730141,9.57820896 C87.1218716,9.83870647 86.7540805,10.0160199 86.2948857,10.1791045 C85.6022903,10.4106346 84.8755167,10.5216787 84.1458107,10.5074627 C78.7312296,10.5074627 70.6104461,5.70029851 70.3264418,4.8761194 C70.1730141,4.42845771 71.6267682,3.66338308 72.3025027,3.26716418 C72.9782372,2.87094527 73.702938,2.29741294 74.5125136,2.29741294 L74.5146899,2.29850746 Z M74.5125136,1.75014925 C73.6996736,1.75014925 73.0119695,2.18248756 72.4047878,2.56338308 C72.273123,2.64547264 72.1490751,2.72318408 72.0282916,2.79432836 L71.7747552,2.94099502 C70.6713819,3.57363184 69.5299238,4.2281592 69.8161045,5.05452736 C69.8726877,5.219801 69.9912949,5.56457711 71.5571273,6.56606965 C72.693464,7.27929435 73.8711113,7.92365745 75.0837867,8.49572139 C77.0924918,9.45124378 80.9412405,11.0547264 84.1501632,11.0547264 C84.941752,11.0681792 85.729871,10.9464176 86.4809576,10.6946269 C86.8683351,10.5556219 87.5897715,10.298408 87.710555,9.68328358 C87.8193689,9.11412935 87.3384113,8.49900498 86.0380849,7.5599005 C84.8517394,6.7337037 83.6213959,5.97333297 82.3525571,5.28218905 C79.5963003,3.74437811 76.4428727,2.2361194 75.1708379,1.84756219 C74.9591425,1.78303638 74.7391557,1.75021345 74.5179543,1.75014925 L74.5125136,1.75014925 Z" id="Shape" fill="#333333"></path>
                        <path d="M72.3307943,16.9651741 C65.3631895,16.9634257 58.4090144,16.350356 51.5473341,15.1329353 L51.383025,15.1033831 L51.3340588,14.9435821 C51.2252448,14.6020896 51.2437432,14.3350249 51.3786725,14.1500498 C51.4733148,14.0223688 51.6229598,13.9479207 51.781284,13.9497512 C51.8274631,13.9498751 51.8734722,13.9553845 51.9183896,13.9661692 C52.3536453,14.02199 61.3754081,14.7016915 71.7377584,14.7016915 C83.1109902,14.7016915 91.7388466,13.920199 97.383025,12.37801 C97.4454536,12.3609056 97.5098354,12.3520747 97.5745375,12.3517413 C98.0435256,12.3517413 98.2339499,12.8125373 98.3057671,12.9865672 L98.3721436,13.1485572 L98.2535365,13.2777114 C97.4102285,14.1949254 86.8737758,16.9651741 72.3373232,16.9651741 L72.3307943,16.9651741 Z" id="Shape" fill="#999999"></path>
                        <path d="M97.5723613,12.6286567 C97.8498368,12.6286567 97.9815016,12.9241791 98.0522307,13.0949254 C97.3623504,13.8446766 87.2524483,16.6948259 72.3351469,16.6948259 C65.3802902,16.6934582 58.4388237,16.0814841 51.5897715,14.8658706 C51.4504897,14.4149254 51.5897715,14.2266667 51.7769314,14.2266667 C51.8052138,14.2266488 51.8333786,14.230328 51.8607182,14.2376119 C51.9836779,14.2704478 61.0903156,14.978607 71.7334059,14.978607 C80.6964091,14.978607 90.749728,14.4762189 97.4526659,12.6450746 C97.4917289,12.634609 97.5319387,12.6290936 97.5723613,12.6286567 Z M97.5723613,12.081393 C97.4837434,12.0817045 97.3955589,12.0938505 97.3101197,12.1175124 C91.6887922,13.6498507 83.0837867,14.4313433 71.7334059,14.4313433 C61.4820457,14.4313433 52.5669206,13.7680597 51.9597388,13.6991045 C51.8996653,13.6860649 51.8383878,13.6794609 51.7769314,13.679403 C51.5320066,13.6768488 51.300804,13.7929251 51.1556039,13.9913433 C50.9662677,14.2496517 50.9379761,14.598806 51.0696409,15.0278607 L51.1686616,15.3474627 L51.4951034,15.4054726 C58.3755109,16.6257868 65.3485998,17.2403198 72.3351469,17.2420896 C80.4396083,17.2420896 86.7551687,16.4113433 90.6245919,15.7097512 C93.9488575,15.1110448 97.8161045,14.1522388 98.4515778,13.4604975 L98.6887922,13.2032836 L98.554951,12.8749254 C98.3373232,12.3418905 98.0032644,12.0715423 97.5756257,12.0715423 L97.5723613,12.081393 Z" id="Shape" fill="#333333"></path>
                        <path d="M72.9129489,21.6716418 C64.1762786,21.6716418 55.304679,21.2053731 52.4994559,20.7697512 C51.980665,20.6913509 51.5745437,20.2797305 51.5005441,19.7573134 C51.2948857,18.3245771 51.3351469,15.7655721 51.4156692,15.2095522 L51.4537541,14.941393 L51.7203482,14.9775124 C55.7214363,15.5160199 63.2883569,15.8640796 70.9978237,15.8640796 C77.3384113,15.8640796 92.6648531,15.6068657 98.0369967,13.2262687 L98.1458107,13.1770149 L98.2546246,13.2273632 C99.398259,13.7483582 99.9151251,16.4616915 99.4515778,18.0323383 L99.4330794,18.0947264 L99.3895539,18.141791 C96.508161,21.2086567 81.5647443,21.6716418 72.9129489,21.6716418 Z" id="Shape" fill="#E6E6E6"></path>
                        <path d="M98.1501632,13.4725373 C99.0652884,13.8884577 99.6583243,16.3927363 99.1980413,17.9491542 C96.687704,20.6230846 84.3721436,21.3936318 72.9162133,21.3936318 C63.7671382,21.3936318 55.1664853,20.9021891 52.5440696,20.4950249 C52.1443588,20.4332816 51.8316747,20.1160964 51.773667,19.7135323 C51.570185,18.301592 51.609358,15.7863682 51.687704,15.2445771 C55.5451578,15.7633831 63.0435256,16.1333333 71.0010881,16.1333333 C81.9260065,16.1333333 93.7181719,15.4361194 98.1501632,13.4725373 Z M98.1501632,12.8738308 L97.9270947,12.9723383 C95.9249184,13.8589055 92.2361262,14.5397015 86.960827,14.9939303 C82.4700762,15.381393 76.9499456,15.5860697 70.9978237,15.5860697 C63.2992383,15.5860697 55.7464635,15.2391045 51.7562568,14.7016915 L51.2230686,14.6294527 L51.1458107,15.1657711 C51.0620239,15.7491542 51.0184984,18.3103483 51.2317737,19.7923383 C51.3223107,20.4339315 51.8209983,20.9395526 52.4581066,21.0357214 C55.273123,21.4735323 64.1632209,21.9408955 72.9151251,21.9408955 C79.4145811,21.9408955 85.1392818,21.6913433 89.468988,21.2185075 C95.0184984,20.6121393 98.3340588,19.6653731 99.5886834,18.3256716 L99.6779108,18.2304478 L99.7149075,18.1056716 C100.218716,16.4025871 99.6452666,13.5546269 98.3699674,12.9745274 L98.1523395,12.8738308 L98.1501632,12.8738308 Z" id="Shape" fill="#333333"></path>
                        <path d="M99.1947769,17.9502488 C94.6800871,22.7585075 58.4461371,21.4133333 52.5408052,20.4950249 C52.1409249,20.4336166 51.8280758,20.1162641 51.7704026,19.7135323 C51.6082699,18.5872637 51.6006529,16.7583085 51.6441785,15.7874627 C51.656148,16.421194 51.6659412,17.2585075 51.7203482,17.6284577 C51.778669,18.0335018 52.0930131,18.3527999 52.4951034,18.4154229 C58.3786725,19.3293532 94.1708379,20.6657711 99.3112078,16.0008955 C99.3996472,16.6520809 99.3600884,17.3143979 99.1947769,17.9502488 Z" id="Shape" fill="#E6E6E6"></path>
                        <path d="M99.1947769,17.9502488 C94.6800871,22.7585075 58.4461371,21.4133333 52.5408052,20.4950249 C52.1409249,20.4336166 51.8280758,20.1162641 51.7704026,19.7135323 C51.6082699,18.5872637 51.6006529,16.7583085 51.6441785,15.7874627 C51.656148,16.421194 51.6659412,17.2585075 51.7203482,17.6284577 C51.778669,18.0335018 52.0930131,18.3527999 52.4951034,18.4154229 C58.3786725,19.3293532 94.1708379,20.6657711 99.3112078,16.0008955 C99.3996472,16.6520809 99.3600884,17.3143979 99.1947769,17.9502488 Z" id="Shape" fill="#000000" opacity="0.1"></path>
                    </g>
                    <g id="shirt4" transform="translate(215.185427, 300.497350) rotate(-15.000000) translate(-215.185427, -300.497350) translate(140.185427, 258.997350)" fill-rule="nonzero">
                        <path d="M149.769833,41.12881 C149.757307,41.253071 149.743215,41.375739 149.724426,41.4984069 C149.636743,41.5669098 149.545929,41.6370058 149.450418,41.7071017 C148.459855,40.2128188 147.20212,38.9212431 145.742693,37.8996161 C140.747369,34.3876912 133.920062,35.4990981 130.251044,40.4214779 C130.238158,39.9881435 130.253326,39.554416 130.296451,39.1231094 C131.026096,31.7948944 128.350209,22.6951631 122.885699,13.5890595 C122.692589,13.2704415 122.496347,12.9518234 122.296973,12.6332054 C122.373695,13.0091747 122.453549,13.3787716 122.519311,13.7483685 C124.867954,25.6806142 125.35334,34.0268138 125.35334,41.9667754 C125.35334,53.8655662 120.14405,65.6862956 111.56524,74.7159309 C110.751311,75.5665408 109.759703,76.2199131 108.663883,76.6276392 C99.223904,80.1866027 86.2734864,82.7419194 75.2473904,82.840691 C64.3606472,82.9378695 50.8340292,79.8552399 41.4629436,76.1624568 C40.3487202,75.7226886 39.34707,75.031465 38.5334029,74.1408253 C30.3241127,65.1446449 25.1195198,53.1837236 25.1195198,41.605144 C25.1195198,33.2477927 28.8507307,13.4536468 29.6477035,12.2158157 C29.545929,12.3671593 29.447286,12.5216891 29.3470772,12.6762188 C24.9394572,19.5265067 20.4848643,28.9098081 19.7599165,39.6249328 C15.8704932,35.3556365 9.46693158,34.6968676 4.81628392,38.0876008 C2.78216915,39.5683837 1.16829905,41.569274 0.137787056,43.8880422 C0.103406978,43.5540889 0.0856390077,43.2185809 0.0845511482,42.8828023 C0.0391440501,30.3627063 3.68580376,17.5845298 10.6925887,5.49138196 C11.684238,3.78040307 12.7426931,2.083762 13.8679541,0.401458733 L14.0949896,0.0637236084 C34.6769311,8.16458733 57.7484342,13.2067179 81.0172234,12.5232821 C100.48904,11.9513628 119.960856,7.32821497 137.725992,0.238963532 L137.946764,0.575105566 C139.044885,2.27440179 140.070459,3.97794626 141.023486,5.68573896 C147.784447,17.8075624 150.862735,30.1380806 149.769833,41.12881 Z" id="Shape" stroke="#333333" stroke-width="0.782881002" fill="#FFFFFF" stroke-linecap="round" stroke-linejoin="round"></path>
                        <path d="M141.026618,5.68733205 C137.220251,7.28998081 133.365344,8.76518234 129.493215,10.0985988 C113.124739,15.7365451 96.8188935,18.8303263 81.0313152,19.2955086 C79.6409186,19.336929 78.2395616,19.3576392 76.8366388,19.3576392 C61.59238,19.3576392 45.6889353,16.9488868 29.8637787,12.2827255 L29.6430063,12.2174088 C23.2147071,10.3105951 16.8878507,8.0661072 10.6878914,5.49297505 C11.6795407,3.78199616 12.7379958,2.08535509 13.8632568,0.403051823 C34.8444676,8.67119002 56.4237996,12.9884645 76.82881,12.9884645 C78.2379958,12.9884645 79.6330898,12.9677543 81.0234864,12.926334 C96.8110647,12.4611516 113.121608,9.36737044 129.485386,3.72942418 C132.317328,2.75339091 135.135699,1.70354447 137.940501,0.579884837 C139.044885,2.27493282 140.073591,3.97741523 141.026618,5.68733205 Z" id="Shape" fill="#000000" opacity="0.08"></path>
                        <path d="M27.7014614,15.363762 C25.1148225,19.7893666 22.6784969,25.0577159 21.1784969,30.9123225 C14.8950939,29.0898273 8.50521921,26.9295969 2.54592902,24.7295393 C4.00925015,19.4349586 6.01557903,14.3115685 8.53183716,9.44383877 C14.7573069,11.6231862 21.1471816,13.5964939 27.7014614,15.363762 Z" id="Shape" stroke="#333333" stroke-width="0.782881002" fill="#37AF53" stroke-linecap="round" stroke-linejoin="round"></path>
                        <path d="M125.248434,36.1073896 C107.085595,39.8161036 87.717119,41.7389635 67.6550104,41.1272169 C53.4856957,40.7252277 39.3750362,39.106741 25.473382,36.2890019 C25.7708768,31.4826488 26.4942589,26.3688292 27.8924843,20.1621497 C41.0465493,22.7250163 54.3828593,24.2007846 67.7708768,24.5750096 C87.2019833,25.2122457 105.97547,23.4279846 123.627871,19.955048 C124.499914,25.2993285 125.041167,30.6940637 125.248434,36.1073896 Z" id="Shape" stroke="#333333" stroke-width="0.782881002" fill="#37AF53" stroke-linecap="round" stroke-linejoin="round"></path>
                        <path d="M148.659708,25.181977 C142.618998,27.4919578 136.386221,29.6160781 129.961378,31.5543378 C129.137787,26.665144 127.194676,21.3585605 124.26357,15.9898464 C130.764614,14.1673512 137.086639,12.1414715 143.229645,9.91220729 C145.717641,15.0371785 147.538622,20.1637428 148.659708,25.181977 Z" id="Shape" stroke="#333333" stroke-width="0.782881002" fill="#37AF53" stroke-linecap="round" stroke-linejoin="round"></path>
                        <path d="M0.0892484342,42.435144 L0.767223382,42.6454319 C0.541753653,43.0468906 0.331941545,43.4626871 0.14091858,43.8896353 C0.106538502,43.555682 0.0887705318,43.2201739 0.0876826722,42.8843954 C0.0876826722,42.7346449 0.0876826722,42.5848944 0.0892484342,42.435144 Z" id="Shape" stroke="#333333" stroke-width="0.782881002" fill="#37AF53"></path>
                        <path d="M124.753653,48.9986756 C123.69833,55.23881 121.279228,61.3037044 117.768789,66.7903071 C89.7276416,71.682394 61.0775083,71.741095 33.0172234,66.9639539 C29.4645094,61.4295585 26.9968685,55.3136852 25.9164927,49.0432821 C39.7093735,51.8455751 53.7110297,53.4523911 67.7708768,53.8464491 C87.6153445,54.4996161 106.770877,52.6213628 124.753653,48.9986756 Z" id="Shape" stroke="#333333" stroke-width="0.782881002" fill="#37AF53" stroke-linecap="round" stroke-linejoin="round"></path>
                    </g>
                    <g id="glasses3_0" transform="translate(63.000000, 170.000000) rotate(-20.000000) translate(-63.000000, -170.000000) translate(3.000000, 151.000000)">
                        <path d="M54.1176471,6.21491857 C54.7987616,5.7167101 57.0278638,4.2134202 60.247678,4.27469055 C63.479257,4.3365798 65.6588235,5.93703583 66.3157895,6.46123779" id="Shape" stroke="#B99E78" stroke-width="1.16904025" stroke-linecap="round"></path>
                        <path d="M0.0321981424,13.5388925 C1.82043344,12.4558306 4.59566563,11.1208795 7.85201238,10.2934202 C12.5578947,9.09648208 17.3690402,9.50990228 19.8371517,9.8880456" id="Shape" stroke="#B99E78" stroke-width="1.23839009" stroke-linecap="round" stroke-linejoin="round"></path>
                        <path d="M46.25387,0.15286645 C50.6647732,0.801533171 55.1162557,1.13575346 59.574613,1.15299674 C64.6053463,1.17190159 69.6294966,0.787575493 74.5987616,0.00371335505" id="Shape" stroke="#B99E78" stroke-width="1.16904025" stroke-linecap="round" stroke-linejoin="round"></path>
                        <path d="M119.951703,13.4299674 C118.380805,12.2262215 115.541176,10.7285016 111.495975,9.75745928 C106.813622,8.63355049 101.48483,9.15589577 99.4904025,9.63368078" id="Shape" stroke="#B99E78" stroke-width="1.23839009" stroke-linecap="round" stroke-linejoin="round"></path>
                        <path d="M18.7356037,17.4837134 C18.819195,27.0697394 23.6513932,38.2166124 35.0402477,37.9740065 C46.4291022,37.7314007 58.5479876,21.4136808 58.4520124,10.3887296 C58.4105263,5.6585342 54.0811146,0.206091205 40.9541796,0.320586319 C32.9770898,0.38990228 18.5857585,0.309446254 18.7356037,17.4837134 Z" id="Shape" stroke="#B99E78" stroke-width="0.6" fill="#76FFFB" fill-rule="nonzero"></path>
                        <path d="M100.866873,16.8567752 C100.951084,26.4428013 96.3145511,37.6695114 84.9226006,37.6286645 C73.5306502,37.5878176 61.2724458,21.2843322 61.1764706,10.2593811 C61.1349845,5.52918567 65.2247678,0.198045603 78.3517028,0.0835504886 C86.3287926,0.0142345277 100.716409,-0.319967427 100.866873,16.8567752 Z" id="Shape" stroke="#B99E78" stroke-width="0.6" fill="#76FFFB" fill-rule="nonzero"></path>
                        <path d="M57.9331269,13.2288274 C57.1826625,17.9324104 54.6068111,23.3706189 50.8260062,28.0426384 C48.5547988,30.849316 45.9733746,33.2091531 43.3603715,34.8671661 C40.504644,36.6792834 37.7034056,37.6261889 35.0346749,37.6825081 C31.1065015,37.7648208 27.7517028,36.4849511 25.0656347,33.8769381 C21.3442724,30.2669381 19.0879257,24.1374267 19.0297214,17.4812378 C19.0117647,15.4432248 19.2043344,13.582215 19.6037152,11.9112052 C19.5851393,12.3621716 19.5779154,12.8269598 19.5820433,13.30557 C19.6637771,22.6978827 24.3981424,33.6170033 35.5572755,33.382443 C44.4167183,33.1961564 54.2910217,22.8785993 57.9331269,13.2288274 Z" id="Shape" fill="#000000" fill-rule="nonzero" opacity="0.1"></path>
                        <path d="M94.8260062,33.3583062 C92.1975232,35.9985016 88.8873065,37.3371661 84.9845201,37.3371661 L84.9226006,37.3371661 C82.2563467,37.3272638 79.4470588,36.4193485 76.5727554,34.637557 C73.9479876,33.0098697 71.3424149,30.6723127 69.0383901,27.8773941 C65.3851393,23.444886 62.806192,18.2981759 61.8637771,13.7381759 C65.8043344,23.1868078 75.676161,33.0129642 84.4024768,33.0445277 C95.5634675,33.0841368 100.106502,22.0845603 100.024149,12.6922476 C100.020846,12.3456678 100.011765,12.0061021 99.996904,11.6735505 C100.368421,13.2405863 100.560372,14.9728664 100.576471,16.8592508 C100.632817,23.5179153 98.4835913,29.6839414 94.8260062,33.3583062 Z" id="Shape" fill="#000000" fill-rule="nonzero" opacity="0.1"></path>
                    </g>
                    <g id="hat5" transform="translate(205.573656, 60.946239) rotate(15.000000) translate(-205.573656, -60.946239) translate(130.573656, 17.946239)" fill-rule="nonzero">
                        <path d="M114.300876,82.3428029 C110.257415,83.5118406 106.138079,84.3982369 101.972477,84.9956204 C90.6505421,86.6277372 78.5097998,86.2554891 66.1989158,83.5518248 C49.6851543,79.9260146 35.1280234,72.9367883 23.6778565,63.613635 C33.9401585,54.485708 46.8846956,48.2968467 60.9714345,47.3018832 C80.9512093,45.8926131 90.0306505,50.4468467 92.2224771,48.5862336 C94.8690575,46.3364234 84.4453711,43.8160584 83.0573394,39.8305547 C81.3803169,35.0277372 107.802335,47.8090949 103.797748,56.2195182 C103.484987,56.8792701 100.329858,62.1202482 77.6753545,54.7273869 C93.395955,59.8459562 106.670142,68.5865693 114.300876,82.3428029 Z" id="Shape" fill="#000000" opacity="0.1"></path>
                        <path d="M112.260425,66.1911241 C111.85874,66.420299 111.400994,66.5316607 110.939324,66.5125255 C84.5335776,65.5033554 58.5109806,59.8373609 34.0627606,49.7739124 C34.2541701,49.1813285 34.5907006,48.5812117 35.0829858,47.9697956 C35.6153044,47.3106715 36.1932861,46.5536204 36.8125521,45.713708 C46.5500417,32.4998394 66.2746038,-1.2140438 72.794412,0.0420583942 C77.8398666,1.01316788 77.5202252,4.9120438 84.6273978,6.53788321 C91.7345705,8.16372263 92.1461635,2.74823358 95.4451626,3.44941606 C104.592786,5.39540146 106.701418,43.1569343 111.050042,61.7115912 C111.442869,63.3813723 111.843203,64.8885693 112.260425,66.1911241 Z" id="Shape" stroke="#333333" stroke-width="0.5" fill="#290C0D"></path>
                        <path d="M112.260425,66.1911241 C111.858852,66.4205843 111.401024,66.5319662 110.939324,66.5125255 C84.5335694,65.5034205 58.5109612,59.8374236 34.0627606,49.7739124 C34.2541701,49.1819562 34.5907006,48.5812117 35.0829858,47.9704234 C35.6153044,47.3106715 36.1932861,46.5536204 36.8125521,45.7143358 C37.1974562,45.1924769 37.5971643,44.6396496 38.0116764,44.055854 C56.9849875,50.3325985 78.2183069,57.7141606 98.5540033,58.0029197 C110.524604,58.174292 85.9710175,20.7781022 89.7078816,6.36525547 C92.2950375,5.32321168 93.2032944,2.97045255 95.4470392,3.44753285 C104.594037,5.39351825 106.703294,43.1550511 111.051918,61.709708 C111.442869,63.3813723 111.843203,64.8885693 112.260425,66.1911241 Z" id="Shape" stroke="#000000" stroke-width="0.5" fill="#000000" opacity="0.2"></path>
                        <path d="M149.280651,59.6890219 C130.970392,78.9348175 99.6874479,88.0457956 67.1997498,80.9128175 C33.2402002,73.4578102 7.56880734,51.7801606 0.142618849,24.8458394 C-0.634278565,22.0254161 3.35216847,20.5709489 4.60383653,23.2137226 C9.56109258,33.685635 19.0083403,43.1757664 31.7201835,47.0840584 C32.8181818,47.421781 33.9397415,47.7170268 35.0848624,47.9697956 C40.8177648,49.2290365 46.1791076,50.1788029 51.6486656,51.1279416 C65.7599457,55.7115912 80.2963476,58.8536583 95.0366972,60.5063358 C100.116555,61.8616204 105.081318,63.2583358 110.146163,64.7121752 C111.123228,64.992146 112.104879,65.2252457 113.091118,65.4114745 C124.77648,67.6261314 136.911593,63.4397518 146.194954,56.2396058 C148.459967,54.4806861 151.257298,57.6118394 149.280651,59.6890219 Z" id="Shape" stroke="#333333" stroke-width="0.5" fill="#290C0D"></path>
                        <path d="M113.462052,64.3028905 C113.43475,64.6972781 113.308201,65.07827 113.094245,65.410219 C112.883827,65.7339932 112.598923,66.002252 112.263553,66.1923796 C111.861867,66.4215544 111.404122,66.5329162 110.942452,66.513781 C84.5367052,65.5046108 58.5141082,59.8386164 34.0658882,49.7751679 L33.2470809,49.4368175 C32.2978162,49.0511878 31.6888075,48.1125127 31.7214345,47.0853139 C31.7337436,46.8028547 31.7973384,46.5250243 31.9090909,46.2654891 C32.32026,45.3191495 33.2835197,44.7379369 34.309216,44.8172993 C34.5742221,44.8365791 34.8344195,44.8984677 35.0798582,45.0005985 C35.6578399,45.2408127 36.2370726,45.4789343 36.8175563,45.7149635 C41.7037114,47.6998686 46.648457,49.5046131 51.6517932,51.1291971 C65.7630733,55.7128466 80.2994752,58.8549137 95.0398249,60.5075912 C100.356756,61.1043601 105.694537,61.5061119 111.053169,61.7128467 L111.120726,61.7159854 C112.448707,61.7662044 113.497706,62.8685109 113.468307,64.194292 C113.469558,64.230073 113.464554,64.2664818 113.462052,64.3028905 Z" id="Shape" stroke="#333333" stroke-width="0.5" fill="#AB8C74"></path>
                        <path d="M113.469558,64.1930365 C113.469558,64.230073 113.469558,64.2664818 113.464554,64.3028905 C113.436608,64.697526 113.309184,65.078561 113.094245,65.410219 C112.883827,65.7339932 112.598923,66.002252 112.263553,66.1923796 C111.86198,66.4218398 111.404152,66.5332217 110.942452,66.513781 C84.536697,65.5046759 58.5140888,59.838679 34.0658882,49.7751679 C33.792744,49.6630122 33.5198082,49.5502287 33.2470809,49.4368175 C32.2980364,49.0512676 31.6890737,48.112914 31.7214345,47.0859416 C31.7337436,46.8034824 31.7973384,46.525652 31.9090909,46.2661168 C31.911839,46.2592489 31.9149716,46.2525424 31.9184737,46.2460292 C32.1750586,46.8393468 32.6525007,47.3085688 33.2489575,47.5536058 C33.5216847,47.6674355 33.7946205,47.780219 34.0677648,47.8919562 C58.5159653,57.9554674 84.5385736,63.6214643 110.944329,64.6305693 C111.406028,64.65001 111.863857,64.5386281 112.26543,64.3091679 C112.600116,64.1187976 112.884356,63.8505575 113.094245,63.5270073 C113.163956,63.4193597 113.224832,63.3062037 113.276272,63.1886569 C113.412316,63.5054844 113.478261,63.8481557 113.469558,64.1930365 Z" id="Shape" stroke="#000000" stroke-width="0.5" fill="#000000" opacity="0.2"></path>
                        <path d="M149.280651,59.6890219 C130.969766,78.9354453 99.6874479,88.0457956 67.1997498,80.9134453 C33.2402002,73.458438 7.56693078,51.7801606 0.143869892,24.8458394 C-0.248957465,23.4208759 0.574854045,22.3443066 1.64512093,21.9695474 C9.38469558,48.4908175 34.8646789,69.7742482 68.4507923,77.1476496 C100.39241,84.1601022 131.168682,75.4715912 149.596539,56.8855474 C150.097581,57.6965839 150.135113,58.7913577 149.280651,59.6890219 Z" id="Shape" stroke="#000000" stroke-width="0.5" fill="#000000" opacity="0.2"></path>
                    </g>
                    <g id="hand_neck4" transform="translate(23.000000, 378.000000)" fill-rule="nonzero">
                        <path d="M17.1181102,32.0681234 C9.36743245,32.0305547 2.6563997,26.6994234 0.897637795,19.1828535 C-0.0485314085,15.1168916 0.724709626,10.8424162 3.03622047,7.36077121 L3.10866142,7.25413882 C5.44025521,3.81490325 9.08059005,1.47231561 13.1874016,0.768380463 C14.1400397,0.597558415 15.1060547,0.511494868 16.0740157,0.511208226 C23.8246935,0.548776919 30.5357263,5.87990822 32.2944882,13.3964781 C33.2406574,17.46244 32.4674164,21.7369154 30.1559055,25.2185604 L30.0834646,25.3251928 C27.7518708,28.7644284 24.1115359,31.107016 20.0047244,31.8109512 C19.0519916,31.9810713 18.0860393,32.0671292 17.1181102,32.0681234 Z" id="Shape" fill="#C2C2C2"></path>
                        <path d="M16.080315,0.903239075 C23.6467978,0.943096744 30.1970769,6.14811927 31.9149606,13.4858612 C32.837903,17.4476613 32.0845281,21.613056 29.8314961,25.0052956 C29.8094488,25.0397943 29.7858268,25.0742931 29.7622047,25.1087918 C27.4878823,28.460276 23.9387772,30.742684 19.9354331,31.428329 C19.0056609,31.5950282 18.0628335,31.6789927 17.1181102,31.6792288 C9.55256032,31.639715 3.00259542,26.4362395 1.28346457,19.0997429 C0.360522204,15.1379428 1.11389706,10.9725481 3.36692913,7.58030848 L3.43622047,7.47524422 C5.7104263,4.12319897 9.26050133,1.84109947 13.2645669,1.15727506 C14.1938003,0.99051206 15.1361106,0.906546657 16.080315,0.906375321 L16.080315,0.903239075 Z M16.080315,0.122313625 C15.0886095,0.122987382 14.0989139,0.211146925 13.1228346,0.385758355 C8.90964478,1.10697485 5.17476649,3.50967845 2.78267717,7.03773779 L2.70866142,7.14750643 C0.336628006,10.7171396 -0.457183995,15.1008768 0.513385827,19.2706684 C2.51321929,28.0942392 11.1299165,33.7901588 20.0724409,32.1998458 C24.2853591,31.4779357 28.0199859,29.0753939 30.4125984,25.5478663 L30.4866142,25.4380977 C32.8586476,21.8684645 33.6524596,17.4847273 32.6818898,13.3149357 C30.8829855,5.62034349 24.0142106,0.161996767 16.080315,0.122313625 Z" id="Shape" fill="#333333"></path>
                        <path d="M3.58425197,7.57089974 C8.21102362,0.738586118 17.7385827,-0.973804627 24.9291339,3.7603599 C32.1559055,8.51804627 34.2834646,17.9848072 29.6834646,24.9033676 C29.6614173,24.9378663 29.6377953,24.972365 29.6141732,25.0068638 C24.9874016,31.8407455 15.4598425,33.5515681 8.26929134,28.8189717 C1.04409449,24.0612853 -1.08503937,14.5945244 3.51496063,7.67596401 L3.58425197,7.57089974 Z M3.28976378,7.3733162 L3.21889764,7.47994859 C2.07037422,9.19862252 1.29576655,11.1376108 0.94488189,13.1722365 C0.603695175,15.1521626 0.657205612,17.1795984 1.1023622,19.138946 C1.54917849,21.1242987 2.3728737,23.0063441 3.52913386,24.6838303 C5.97163294,28.2149607 9.6908556,30.6687542 13.9086614,31.5318252 C15.9022215,31.9368612 17.9549378,31.9608082 19.9574803,31.6023907 C21.9352007,31.2550576 23.8254056,30.5251972 25.5212598,29.4540617 C27.2605408,28.3563273 28.7518815,26.9108273 29.9007874,25.2091517 L29.9732283,25.1025193 C31.1189565,23.3841818 31.8913753,21.4463703 32.2409449,19.4133676 C32.5821728,17.4334445 32.5286621,15.4060007 32.0834646,13.4466581 C31.6373517,11.4610767 30.8136002,9.57890261 29.6566929,7.90177378 C27.2141938,4.37064346 23.4949712,1.91684992 19.2771654,1.05377892 C17.2836053,0.648742892 15.230889,0.624795893 13.2283465,0.983213368 C11.250703,1.33082094 9.3605501,2.06066123 7.66456693,3.13154242 C5.92528595,4.22927678 4.43394525,5.67477679 3.28503937,7.37645244 L3.28976378,7.3733162 Z" id="Shape" fill="#333333"></path>
                        <path d="M24.9291339,3.76349614 C30.3464567,7.33097686 32.8992126,13.5438817 31.8976378,19.3475064 C31.3149606,14.4000771 28.2850394,9.43069409 23.3055118,6.15174807 C18.3889764,2.91514139 12.688189,2.06208226 7.92125984,3.3918509 C12.8834646,0.283830334 19.5590551,0.224241645 24.9291339,3.76349614 Z" id="Shape" fill="#A0A0A0"></path>
                        <path d="M26.3133858,27.1614653 C21.0034527,30.8064016 13.9712419,30.7557579 8.71480904,27.034726 C3.4583762,23.3136941 1.09991334,16.7166745 2.81259843,10.5252442 C2.69448819,15.9305656 5.58582677,21.5350386 10.8661417,25.01 C15.7622047,28.2262211 21.5480315,28.8534704 26.3133858,27.1614653 Z" id="Shape" fill="#FFFFFF"></path>
                        <path d="M75.4330709,60.491928 C75.3338583,60.491928 75.2314961,60.491928 75.1307087,60.479383 C74.5259843,60.427635 67.1527559,56.4336247 64.0094488,54.7180977 L63.6393701,54.5173779 L69.5259843,45.3893316 L69.8661417,45.6465039 C70.7732283,46.3364781 78.7590551,52.4584319 79.4566929,55.0411311 C79.6834646,55.8800771 79.2551181,57.7069409 78.2771654,58.9724165 C77.5149606,59.9666067 76.5354331,60.491928 75.4330709,60.491928 Z" id="Shape" fill="#1A1A1A"></path>
                        <path d="M69.6299213,45.9585604 C69.6299213,45.9585604 78.3968504,52.6152442 79.0787402,55.1430591 C79.3779528,56.2407455 78.2346457,60.0998972 75.4362205,60.0998972 C75.3480315,60.0998972 75.2582677,60.0998972 75.1669291,60.0889203 C74.5795276,60.0371722 64.2031496,54.3746787 64.2031496,54.3746787 L69.6299213,45.9585604 Z M69.4283465,44.8201028 L68.9685039,45.5351671 L63.5401575,53.9512853 L63.0834646,54.658509 L63.823622,55.0630848 C63.8503937,55.0771979 66.4519685,56.4963496 69.0929134,57.9045244 C74.5716535,60.8243702 74.8519685,60.847892 75.0992126,60.8698458 C75.2125984,60.8792545 75.3259843,60.8839589 75.4362205,60.8839589 C76.6598425,60.8839589 77.7511811,60.3053213 78.5937008,59.2107712 C79.6566929,57.8292545 80.096063,55.8863496 79.8393701,54.9392031 C79.7181102,54.4907198 79.3511811,53.1295887 74.6173228,49.0116967 C72.3464567,47.0374293 70.1291339,45.3516967 70.1070866,45.3360154 L69.4283465,44.8201028 Z" id="Shape" fill="#333333"></path>
                        <path d="M65.4062992,56.2423136 C65.2933774,56.2429793 65.1814654,56.2211183 65.0771654,56.1780206 C64.3086614,55.8643959 32.0708661,38.5601542 26.7496063,35.6073779 C26.1936297,35.297983 25.7715072,34.7955941 25.5637795,34.1960668 L25.0330709,32.6749871 L34.7181102,17.9142416 L36.9543307,18.0381234 C37.5079132,18.0696879 38.0369591,18.2762338 38.4645669,18.6277378 C41.992126,21.5413111 70.8031496,45.5586889 71.3543307,46.2345501 C71.9055118,46.9104113 71.7244094,48.1476607 70.8582677,49.9604113 C70.1314322,51.4380322 69.2357408,52.8271738 68.1889764,54.1002571 C67.3826772,55.0787661 66.2440945,56.2423136 65.4062992,56.2423136 Z" id="Shape" fill="#1A1A1A"></path>
                        <path d="M34.9228346,18.3235219 L36.9322835,18.4348586 C37.4017039,18.4613967 37.850311,18.6366718 38.2125984,18.93509 C42.6220472,22.5778406 70.5559055,45.8832905 71.0488189,46.4885861 C72.4,48.1460925 67.1354331,55.8502828 65.4062992,55.8502828 C65.3447173,55.8511266 65.283616,55.8393851 65.2267717,55.8157841 C64.4566929,55.5021594 32.3133858,38.2528021 26.9417323,35.265527 C26.4713379,35.0040362 26.113373,34.5800936 25.9354331,34.0737532 L25.4629921,32.7345758 L34.911811,18.3235219 L34.9228346,18.3235219 Z M34.5023622,17.5159383 L34.2535433,17.8954242 L24.8047244,32.30491 L24.592126,32.6279434 L24.719685,32.9917481 L25.192126,34.3309254 C25.4324357,35.0188939 25.9183821,35.594868 26.5574803,35.9492288 C31.215748,38.5334961 63.9779528,56.1497943 64.9259843,56.5402571 C65.0757195,56.6022481 65.2362638,56.6342207 65.3984252,56.6343445 C65.696063,56.6343445 66.5984252,56.6343445 68.4866142,54.3527249 C69.5527141,53.0555268 70.4647935,51.6400652 71.2047244,50.134473 C72.1496063,48.1460925 72.3070866,46.7912339 71.6519685,45.9930591 C71.0456693,45.2497686 41.0204724,20.2413368 38.7070866,18.3313625 C38.2168588,17.9273655 37.6100497,17.6895165 36.9748031,17.652365 L34.9653543,17.5410283 L34.511811,17.5159383 L34.5023622,17.5159383 Z" id="Shape" fill="#333333"></path>
                        <path d="M8.22519685,30.0891517 C7.93276979,30.0921034 7.64569799,30.0109753 7.3984252,29.8555013 L6.05826772,28.9710797 C5.78492342,28.7990265 5.60965244,28.5081473 5.58582677,28.187018 C5.5752111,27.8569688 5.72174443,27.5413111 5.98110236,27.335527 C13.8423594,20.7032628 19.6430931,11.9778756 22.703937,2.18125964 C22.8162419,1.74936007 23.2010063,1.44285418 23.6488189,1.42856041 C23.8586553,1.43124131 24.0630154,1.49561721 24.2362205,1.61359897 L25.5716535,2.4933162 C26.1195278,2.88291148 26.3617309,3.57377939 26.176378,4.21825193 C23.0756493,14.1587451 17.1952585,23.0139888 9.22362205,29.7473008 C8.94086984,29.9734099 8.58780399,30.0942961 8.22519685,30.0891517 Z" id="Shape" fill="#FFFFFF"></path>
                        <path d="M23.6488189,1.82529563 C23.7813222,1.82757184 23.9101485,1.86905809 24.0188976,1.94447301 L25.3543307,2.82262211 C25.7525506,3.11480284 25.9295789,3.62058823 25.8,4.0959383 C22.7204561,13.9635409 16.8855084,22.7552519 8.97637795,29.444653 C8.76566394,29.6123779 8.5027956,29.7016624 8.23307087,29.6971208 C8.01766606,29.7011834 7.80578701,29.6423052 7.62362205,29.5277635 L6.28346457,28.6433419 C5.8976378,28.3893059 5.88031496,27.9423907 6.23779528,27.6397429 C14.1556952,20.9574036 20.0001511,12.1691643 23.088189,2.30200514 C23.1515856,2.03486353 23.3859681,1.84251058 23.6614173,1.83156812 L23.6488189,1.82529563 Z M23.6614173,1.04750643 C23.0391648,1.05704242 22.4986687,1.47621402 22.3370079,2.07462725 C19.2977469,11.8008901 13.5385796,20.4636475 5.73385827,27.0485604 C5.3791852,27.333131 5.18109709,27.7683564 5.2,28.2215167 C5.23428687,28.6642295 5.47581061,29.0650616 5.8519685,29.3035219 L6.87401575,29.9778149 L7.18897638,30.1879434 C7.50005797,30.3874056 7.86309835,30.4915482 8.23307087,30.487455 C8.69208612,30.4948962 9.13874421,30.3392289 9.49291339,30.0483805 C17.5225223,23.2657649 23.4446228,14.344956 26.5653543,4.33115681 C26.8023939,3.522302 26.49513,2.65299534 25.8015748,2.17028278 L25.2566929,1.8096144 L24.4692913,1.29056555 C24.2314179,1.13065402 23.9515624,1.04394505 23.6645669,1.04123393 L23.6614173,1.04750643 Z" id="Shape" fill="#333333"></path>
                        <path d="M23.4204724,33.2677378 C23.1353107,33.2701049 22.851711,33.2255996 22.5811024,33.1360154 L20.5984252,32.4601542 C20.0488189,32.2719794 19.6976378,31.9301285 19.6330709,31.5192802 C19.6,31.3060154 19.6188976,30.8920308 20.119685,30.5188175 L20.1338583,30.5078406 L20.1496063,30.4984319 C24.9070866,27.5942674 30.4456693,21.7169409 31.7228346,13.928072 L31.7228346,13.9014139 L31.7307087,13.877892 C31.9795276,13.0577635 32.503937,12.9683805 32.7181102,12.9683805 C33.1070866,12.9683805 33.4913386,13.2271208 33.8031496,13.699126 L35.0944882,15.6498715 C35.576378,16.3774807 35.7385827,17.5441645 35.4629921,18.3047044 C33.5433071,23.625347 29.5181102,29.1812082 24.9606299,32.8035733 C24.5108227,33.1193804 23.9706561,33.2821729 23.4204724,33.2677378 Z" id="Shape" fill="#FFFFFF"></path>
                        <path d="M32.7228346,13.3557069 C32.9637795,13.3557069 33.2346457,13.5391774 33.4787402,13.9092545 L34.7700787,15.86 C35.1858268,16.4872494 35.3307087,17.5206427 35.0976378,18.1667095 C33.096063,23.713162 28.9228346,29.1514139 24.719685,32.4915167 C24.3390559,32.754712 23.8836714,32.8893737 23.4204724,32.8757069 C23.1793053,32.8778507 22.9394045,32.8407735 22.7102362,32.7659383 L20.7259843,32.0838046 C19.9511811,31.8172237 19.7811024,31.2542674 20.3559055,30.8293059 C25.4677165,27.7087404 30.8456693,21.7075321 32.111811,13.9876607 C32.2393701,13.5689717 32.4645669,13.3604113 32.7228346,13.3604113 L32.7228346,13.3557069 Z M32.7228346,12.5763496 C32.0929134,12.5763496 31.584252,13.0201285 31.3574803,13.763419 L31.3433071,13.813599 L31.3354331,13.8637789 C30.7653543,17.3324679 29.3228346,20.6317995 27.0456693,23.6676864 C25.1031416,26.2519605 22.6953586,28.4543856 19.9448819,30.1628535 L19.911811,30.1832391 L19.8818898,30.2051928 C19.3968504,30.5689974 19.1637795,31.0707969 19.2440945,31.580437 C19.3322835,32.1371208 19.7795276,32.5918766 20.4692913,32.8349357 L20.6503937,32.8960925 L22.4519685,33.5233419 C22.7641363,33.6275278 23.091237,33.6804893 23.4204724,33.6801542 C24.0624526,33.6966806 24.6919283,33.5015274 25.2110236,33.1250386 C29.8220472,29.4603342 33.8944882,23.8386118 35.8393701,18.452108 C36.1543307,17.5739589 35.9795276,16.2833933 35.4283465,15.4491517 L34.7291339,14.3938046 L34.1370079,13.4984062 C33.6141732,12.7143445 33.0267717,12.5920308 32.719685,12.5920308 L32.7228346,12.5763496 Z" id="Shape" fill="#333333"></path>
                    </g>
                    <g id="shirt2" transform="translate(229.073073, 481.092103) rotate(15.000000) translate(-229.073073, -481.092103) translate(169.073073, 453.592103)" fill-rule="nonzero">
                        <path d="M119.972771,0.104946996 C118.917196,3.7310435 117.510889,7.24585129 115.773744,10.5996466 C112.347041,17.1974078 107.797488,23.1489685 102.328687,28.1879859 C102.192545,28.3162544 102.054457,28.4425795 101.91637,28.5766784 L101.838574,28.6446996 L101.741329,28.7340989 L101.391248,29.0469965 L101.25705,29.1674912 C101.122853,29.2860424 100.98671,29.4065371 100.850567,29.5231449 C100.685251,29.6689046 100.51799,29.8127208 100.348784,29.9565371 C96.5034722,33.2422537 92.2876052,36.0683729 87.7867099,38.3775618 C87.2810373,38.6366902 86.7714749,38.8893404 86.2580227,39.1355124 C85.7445705,39.3816843 85.2259319,39.6213781 84.702107,39.8545936 L84.1633712,40.0916961 C83.9688817,40.1772085 83.7743922,40.2627208 83.5799028,40.3443463 L83.0256078,40.5775618 L82.7863857,40.674735 C82.5918963,40.7563604 82.3974068,40.8360424 82.1931929,40.9137809 C81.9889789,40.9915194 81.7555916,41.0867491 81.5358185,41.170318 L81.4930308,41.1858657 C81.2382496,41.2830389 80.9834684,41.380212 80.7286872,41.4715548 C79.9701783,41.7514134 79.2058347,42.0163722 78.4356564,42.2664311 L77.834684,42.4607774 L77.3095624,42.6201413 L77.0061588,42.7114841 C76.8311183,42.7639576 76.6560778,42.8164311 76.4790924,42.8650177 C76.302107,42.9136042 76.154295,42.9602473 75.9909238,43.004947 C75.8683955,43.0399293 75.7439222,43.0749117 75.6194489,43.1060071 C75.397731,43.1681979 75.176013,43.2265018 74.954295,43.2828622 C74.8862237,43.3042403 74.8162075,43.3217314 74.7481361,43.3372792 C74.4972447,43.4033569 74.2463533,43.4674912 73.993517,43.5316254 L73.7659643,43.5860424 L73.3633712,43.6812721 C72.6982172,43.8367491 72.03047,43.9805654 71.3601297,44.1127208 L70.8583468,44.2118375 L70.7280389,44.235159 C70.4965964,44.2798587 70.265154,44.3206714 70.0317666,44.3614841 L70.006483,44.3614841 C69.7290113,44.4107185 69.4489465,44.4573616 69.1662885,44.5014134 C68.8862237,44.5480565 68.6061588,44.5908127 68.3241491,44.6316254 L67.9915721,44.680212 L67.3303079,44.7696113 L67.2602917,44.7793286 L66.6495948,44.8531802 L66.2722853,44.8978799 L65.7549433,44.9542403 C63.8100486,45.1602473 61.834684,45.2723204 59.8288493,45.2904594 C57.5654658,45.3096047 55.3029075,45.196041 53.0528363,44.9503534 L52.6638574,44.9056537 C52.5277147,44.8920495 52.3896272,44.8745583 52.2534846,44.8570671 L51.6408428,44.7773852 C51.2350081,44.7229682 50.8291734,44.6640165 50.4233387,44.60053 C49.6311183,44.4774441 48.8453809,44.3381625 48.0661264,44.1826855 C47.6927066,44.1088339 47.3199352,44.0310954 46.947812,43.94947 C45.69141,43.6747939 44.4486224,43.3599529 43.2194489,43.004947 C42.9277147,42.9220259 42.6379254,42.8365135 42.350081,42.7484099 C42.1147488,42.6765018 41.8813614,42.6045936 41.6460292,42.5287986 L41.5974068,42.5132509 C41.513128,42.4886337 41.4294976,42.4614252 41.3465154,42.4316254 L41.2103728,42.3888693 L40.6813614,42.2139576 L40.5024311,42.1517668 L40.1659643,42.0371025 L40.1309562,42.0234982 L39.7769854,41.9010601 L39.6777958,41.8641343 L39.5183144,41.8077739 C39.3549433,41.74947 39.193517,41.6911661 39.0340357,41.6309187 L38.9056726,41.5823322 L38.8298217,41.5551237 C38.7150729,41.514311 38.602269,41.4715548 38.4894652,41.4268551 L38.197731,41.3141343 L37.9468395,41.2189046 C36.4376013,40.6306832 34.9575365,39.9828622 33.5066451,39.2754417 C33.2927066,39.1704947 33.0768233,39.0655477 32.8648298,38.9586572 C31.5928687,38.3276796 30.3474878,37.653298 29.1286872,36.9355124 C28.9964344,36.8597173 28.8661264,36.7819788 28.7397083,36.7042403 C28.3351702,36.4632509 27.932577,36.2170789 27.5319287,35.9657244 L27.1215559,35.7072438 C26.9737439,35.6139576 26.8278768,35.5128975 26.6820097,35.4234982 L26.4136143,35.25053 L26.3669368,35.2194346 L25.9468395,34.9415194 L25.8204214,34.8560071 C25.7037277,34.7782686 25.587034,34.70053 25.4722853,34.6208481 C25.3128039,34.5139576 25.1552674,34.4051237 24.997731,34.2962898 L24.8771475,34.2127208 L24.6943274,34.0844523 L24.2178282,33.7482332 L24.0077796,33.5966431 C23.7743922,33.4295053 23.5448947,33.2623675 23.3153971,33.0893993 L23.0470016,32.895053 C22.9069692,32.790106 22.7669368,32.685159 22.6288493,32.5782686 C22.4907618,32.4713781 22.3079417,32.3353357 22.1504052,32.2109541 C22.1424448,32.2062168 22.1352345,32.2003218 22.1290113,32.1934629 L21.9792545,32.0787986 L21.6019449,31.7814488 L21.3452188,31.5871025 C21.3319349,31.5742951 21.3176246,31.5625953 21.3024311,31.5521201 L21.1312804,31.4121908 L20.7987034,31.1420495 L20.5419773,30.930212 L19.9896272,30.4696113 C19.7536467,30.2700824 19.5202593,30.069258 19.2894652,29.8671378 C19.1144246,29.7155477 18.9393841,29.5620141 18.7662885,29.4065371 L18.2489465,28.9420495 L18.2294976,28.9245583 L17.7374392,28.4736749 C17.5682334,28.3181979 17.4009724,28.1607774 17.2337115,28.0014134 C17.0664506,27.8420495 16.8875203,27.6749117 16.7163695,27.5077739 C16.467423,27.2667845 16.2184765,27.0238516 15.9734198,26.7789753 C9.73614263,20.559894 4.81555916,13.174735 1.67455429,5.28621908 C1.07941653,3.7975265 0.550405186,2.29134276 0.0875202593,0.767667845 C5.77044124,2.7264335 11.5639549,4.3487989 17.4379254,5.62632509 C19.0288493,5.97614841 20.6379254,6.30524146 22.265154,6.61360424 C24.2683955,6.99322733 26.2975689,7.34175501 28.3526742,7.65918728 C30.6748784,8.01678445 33.0275527,8.33421673 35.4106969,8.6114841 C39.4625608,9.08180212 43.5922204,9.42903416 47.7996759,9.65318021 C50.30859,9.78274441 52.8440843,9.86955241 55.4061588,9.91360424 C55.919611,9.92332155 56.4330632,9.92915194 56.9465154,9.93498233 C58.1899514,9.94664311 59.4385737,9.94664311 60.6923825,9.93498233 C62.036953,9.92332155 63.3737439,9.89870436 64.7027553,9.86113074 C66.682658,9.80800942 68.6476499,9.72638398 70.597731,9.61625442 C74.9620746,9.37526502 79.2473258,8.99888104 83.4534846,8.48710247 C85.280389,8.26943463 87.0904376,8.02520612 88.8836305,7.75441696 C89.4865478,7.66501767 90.086872,7.57173145 90.6846029,7.4745583 C91.0735818,7.41366313 91.4560778,7.34888104 91.8320908,7.28021201 L92.2910859,7.20441696 L93.6194489,6.97508834 L93.765316,6.94982332 C94.2301459,6.86819788 94.6930308,6.78268551 95.1559157,6.69717314 L95.1792545,6.69717314 L95.2356564,6.68551237 C95.723825,6.59611307 96.2081037,6.50282686 96.6962723,6.40759717 L97.0852512,6.33374558 C97.5792545,6.2385159 98.0693679,6.13939929 98.5594814,6.03833922 C99.9468395,5.75459364 101.318639,5.45594817 102.674878,5.14240283 C108.534036,3.80107155 114.309828,2.11905779 119.972771,0.104946996 Z" id="Shape" stroke="#333333" stroke-width="0.972447326" fill="#E8DC4B" stroke-linecap="round" stroke-linejoin="round"></path>
                        <path d="M54.3598055,22.104947 C52.3915721,26.0560071 40.5510535,22.9386926 39.8508914,25.6867491 C39.1623987,28.3667845 50.7928687,31.4083039 50.547812,36.119258 C50.5059307,36.6781918 50.3362612,37.2200698 50.0518639,37.7031802 C48.8440843,39.8584806 45.6311183,41.8971731 42.3442464,42.7425795 C39.3105192,41.8173369 36.353721,40.6568016 33.5008104,39.2715548 C32.1510535,35.9676678 32.4097245,31.6726148 30.6515397,31.4160777 C29.3756888,31.2217314 28.3662885,33.3595406 27.1118314,35.7033569 C23.0821572,33.1364384 19.3440935,30.138805 15.9636953,26.7634276 C17.9299838,26.3863958 20.086872,26.2367491 21.6311183,25.7916961 C22.7202593,25.4826855 23.5040519,25.0298587 23.7063209,24.2524735 C24.4317666,21.4558304 16.4440843,19.3141343 16.356564,14.4166078 C16.302107,11.4567138 19.2330632,8.08869258 22.2554295,6.59611307 C24.258671,6.97573616 26.2878444,7.32426384 28.3429498,7.64169611 C30.5640194,11.0116608 30.4940032,17.860424 32.0829822,17.8429329 C33.5105348,17.8429329 33.6991896,12.2904594 35.4009724,8.59399293 C39.4528363,9.06431095 43.5824959,9.41154299 47.7899514,9.63568905 C52.1854133,13.6314488 55.7153971,19.3743816 54.3598055,22.104947 Z" id="Shape" stroke="#333333" stroke-width="0.972447326" fill="#B092C2" stroke-linecap="round" stroke-linejoin="round"></path>
                        <path d="M108.198379,21.4286219 C107.472934,22.8454064 105.407455,23.2263251 103.054133,23.2787986 C99.0204214,23.3701413 94.134846,22.5014134 93.6972447,24.2038869 C93.4327391,25.220318 94.965316,26.3766784 96.9471637,27.6865724 C98.0207455,28.3959364 99.2246353,29.15 100.348784,29.9507067 C96.5034722,33.2364233 92.2876052,36.0625425 87.7867099,38.3717314 C86.9659643,36.8402827 86.6061588,34.9862191 86.2949757,33.3634276 C85.9059968,31.3189046 85.5773096,29.6397527 84.5056726,29.4240283 C82.8058347,29.0839223 81.5727715,32.895053 79.6006483,35.7927562 C78.5445705,37.3475265 77.2667747,38.6340989 75.6097245,38.8789753 C74.2774716,39.0733216 72.8110211,38.5893993 71.4009724,37.6954064 C67.3555916,35.1300353 63.7711507,29.1927562 65.1092382,26.2756184 C66.8771475,22.4100707 76.7611021,24.8879859 77.556564,21.8814488 C78.2839546,19.1256184 70.2865478,16.5369258 70.1990276,11.6355124 C70.195299,10.9403354 70.3274302,10.2511182 70.5880065,9.6065371 C74.9523501,9.3655477 79.2376013,8.98916372 83.4437601,8.47738516 C84.4706645,11.9134276 84.7157212,15.8819788 85.9254457,15.9383392 C87.2421394,16.0024735 87.5066451,11.3031802 88.873906,7.74469965 C92.1594814,7.25365135 95.3828201,6.68292108 98.5439222,6.03250883 C102.92966,9.10512367 107.365964,14.7936396 108.297569,18.6863958 C108.571799,19.7727915 108.56013,20.7173145 108.198379,21.4286219 Z" id="Shape" stroke="#333333" stroke-width="0.972447326" fill="#B092C2" stroke-linecap="round" stroke-linejoin="round"></path>
                        <path d="M115.773744,10.6015901 C112.347041,17.1993513 107.797488,23.150912 102.328687,28.1899293 C102.192545,28.3181979 102.054457,28.444523 101.91637,28.5786219 L101.838574,28.6466431 L101.741329,28.7360424 L101.391248,29.0489399 L101.25705,29.1694346 C101.122853,29.2879859 100.98671,29.4084806 100.850567,29.5250883 C100.685251,29.6708481 100.51799,29.8146643 100.348784,29.9584806 C96.5034722,33.2441971 92.2876052,36.0703163 87.7867099,38.3795053 C87.2810373,38.6386337 86.7714749,38.8912839 86.2580227,39.1374558 C85.7445705,39.3836278 85.2259319,39.6233216 84.702107,39.8565371 L84.1633712,40.0936396 C83.9688817,40.1791519 83.7743922,40.2646643 83.5799028,40.3462898 L83.0256078,40.5795053 L82.7863857,40.6766784 C82.5918963,40.7583039 82.3974068,40.8379859 82.1931929,40.9157244 C81.9889789,40.9934629 81.7555916,41.0886926 81.5358185,41.1722615 L81.4930308,41.1878092 C81.2382496,41.2849823 80.9834684,41.3821555 80.7286872,41.4734982 C79.9701783,41.7533569 79.2058347,42.0183157 78.4356564,42.2683746 L77.834684,42.4627208 L77.3095624,42.6220848 L77.0061588,42.7134276 C76.8311183,42.7659011 76.6560778,42.8183746 76.4790924,42.8669611 C76.302107,42.9155477 76.154295,42.9621908 75.9909238,43.0068905 C75.8683955,43.0418728 75.7439222,43.0768551 75.6194489,43.1079505 C75.397731,43.1701413 75.176013,43.2284452 74.954295,43.2848057 C74.8862237,43.3061837 74.8162075,43.3236749 74.7481361,43.3392226 C74.4972447,43.4053004 74.2463533,43.4694346 73.993517,43.5335689 L73.7659643,43.5879859 L73.3633712,43.6832155 C72.6982172,43.8386926 72.03047,43.9825088 71.3601297,44.1146643 L70.8583468,44.2137809 L70.7280389,44.2371025 C70.4965964,44.2818021 70.265154,44.3226148 70.0317666,44.3634276 L70.006483,44.3634276 C69.7290113,44.412662 69.4489465,44.4593051 69.1662885,44.5033569 C68.8862237,44.55 68.6061588,44.5927562 68.3241491,44.6335689 L67.9915721,44.6821555 L67.3303079,44.7715548 L67.2602917,44.7812721 L66.6495948,44.8551237 L66.2722853,44.8998233 L65.7549433,44.9561837 C63.8100486,45.1621908 61.834684,45.2742638 59.8288493,45.2924028 C57.5654658,45.3115482 55.3029075,45.1979844 53.0528363,44.9522968 L52.6638574,44.9075972 C52.5277147,44.8939929 52.3896272,44.8765018 52.2534846,44.8590106 L51.6408428,44.7793286 C51.2350081,44.7249117 50.8291734,44.66596 50.4233387,44.6024735 C49.6311183,44.4793875 48.8453809,44.340106 48.0661264,44.184629 C47.6927066,44.1107774 47.3199352,44.0330389 46.947812,43.9514134 C45.69141,43.6767373 44.4486224,43.3618963 43.2194489,43.0068905 C42.9277147,42.9239694 42.6379254,42.838457 42.350081,42.7503534 C42.1147488,42.6784452 41.8813614,42.6065371 41.6460292,42.530742 L41.5974068,42.5151943 C41.513128,42.4905771 41.4294976,42.4633687 41.3465154,42.4335689 L41.2103728,42.3908127 L40.6813614,42.2159011 L40.5024311,42.1537102 L40.1659643,42.0390459 L40.1309562,42.0254417 L39.7769854,41.9030035 L39.6777958,41.8660777 L39.5183144,41.8097173 C39.3549433,41.7514134 39.193517,41.6931095 39.0340357,41.6328622 L38.9056726,41.5842756 L38.8298217,41.5570671 C38.7150729,41.5162544 38.602269,41.4734982 38.4894652,41.4287986 L38.197731,41.3160777 L37.9468395,41.2208481 C36.4376013,40.6326266 34.9575365,39.9848057 33.5066451,39.2773852 C33.2927066,39.1724382 33.0768233,39.0674912 32.8648298,38.9606007 C31.5928687,38.3296231 30.3474878,37.6552415 29.1286872,36.9374558 C28.9964344,36.8616608 28.8661264,36.7839223 28.7397083,36.7061837 C28.3351702,36.4651943 27.932577,36.2190224 27.5319287,35.9676678 L27.1215559,35.7091873 C26.9737439,35.6159011 26.8278768,35.514841 26.6820097,35.4254417 L26.4136143,35.2524735 L26.3669368,35.2213781 L25.9468395,34.9434629 L25.8204214,34.8579505 C25.7037277,34.780212 25.587034,34.7024735 25.4722853,34.6227915 C25.3128039,34.5159011 25.1552674,34.4070671 24.997731,34.2982332 L24.8771475,34.2146643 L24.6943274,34.0863958 L24.2178282,33.7501767 L24.0077796,33.5985866 C23.7743922,33.4314488 23.5448947,33.264311 23.3153971,33.0913428 L23.0470016,32.8969965 C22.9069692,32.7920495 22.7669368,32.6871025 22.6288493,32.580212 C22.4907618,32.4733216 22.3079417,32.3372792 22.1504052,32.2128975 C22.1424448,32.2081603 22.1352345,32.2022653 22.1290113,32.1954064 L21.9792545,32.080742 L21.6019449,31.7833922 L21.3452188,31.5890459 C21.3319349,31.5762386 21.3176246,31.5645388 21.3024311,31.5540636 L21.1312804,31.4141343 L20.7987034,31.1439929 L20.5419773,30.9321555 L19.9896272,30.4715548 C19.7536467,30.2720259 19.5202593,30.0712014 19.2894652,29.8690813 C19.1144246,29.7174912 18.9393841,29.5639576 18.7662885,29.4084806 L18.2489465,28.9439929 L18.2294976,28.9265018 L17.7374392,28.4756184 C17.5682334,28.3201413 17.4009724,28.1627208 17.2337115,28.0033569 C17.0664506,27.8439929 16.8875203,27.6768551 16.7163695,27.5097173 C16.467423,27.2687279 16.2184765,27.0257951 15.9734198,26.7809187 C9.73614263,20.5618375 4.81555916,13.1766784 1.67455429,5.28816254 C3.95067529,8.60949256 6.45663606,11.7675621 9.17406807,14.7392226 C10.3487844,16.0206125 11.5675851,17.2696113 12.83047,18.4862191 C15.5837538,21.141384 18.5284649,23.5909052 21.6408428,25.8150177 C22.6638574,26.5444641 23.7063209,27.2486455 24.7682334,27.9275618 C27.3968009,29.6074942 30.134103,31.1111554 32.9620746,32.4286219 C34.7669368,33.2694935 36.6171799,34.0319788 38.5128039,34.7160777 C40.8842533,35.5714509 43.3031983,36.2891378 45.7575365,36.8655477 C47.1708266,37.1959364 48.6055105,37.4809776 50.0615883,37.7206714 C53.7426182,38.3225135 57.4681903,38.6105354 61.1980551,38.5816254 C62.8667747,38.568669 64.5115073,38.4954653 66.1322528,38.3620141 C67.9202593,38.2169022 69.6771475,38.00053 71.4029173,37.7128975 C73.1948136,37.4187868 74.9536467,37.0547114 76.6794165,36.6206714 C77.6635332,36.3719081 78.6359806,36.1017668 79.5967585,35.8102473 C81.8703316,35.1214622 84.105027,34.3105055 86.2910859,33.3809187 C88.0531605,32.6333333 89.7711507,31.8157833 91.4450567,30.9282686 C93.3341977,29.9332155 95.1669368,28.8584806 96.9432739,27.7040636 C98.3111831,26.8191402 99.6447326,25.8921084 100.943922,24.9229682 C101.655754,24.3930506 102.357861,23.8508245 103.050243,23.2962898 C103.625932,22.8376325 104.193193,22.3705536 104.752026,21.895053 C105.970827,20.8585395 107.155916,19.7948174 108.307293,18.7038869 C109.85154,17.2320377 111.333549,15.7103062 112.753323,14.1386926 C113.797083,12.9765018 114.80389,11.7974676 115.773744,10.6015901 Z" id="Shape" stroke="#000000" stroke-width="0.972447326" fill="#000000" opacity="0.15" stroke-linecap="round" stroke-linejoin="round"></path>
                        <path d="M53.0508914,44.944523 C53.0508914,45.020318 53.0333874,45.0941696 53.0256078,45.1699647 C52.9886548,45.4867491 52.9536467,45.805477 52.9186386,46.1280919 C52.89141,46.3865724 52.8641815,46.6469965 52.8388979,46.905477 C52.8388979,46.9501767 52.8388979,46.9948763 52.8252836,47.0415194 C52.8019449,47.2727915 52.7805511,47.5079505 52.7591572,47.7431095 C52.7435981,47.9206125 52.7280389,48.0994111 52.7124797,48.2795053 C52.689141,48.5438163 52.6677472,48.8100707 52.6463533,49.0763251 C52.6249595,49.3425795 52.6035656,49.6379859 52.5841167,49.919788 C52.5724473,50.0584217 52.5627229,50.1964075 52.5549433,50.3337456 C52.5335494,50.6485866 52.5121556,50.965371 52.4946515,51.2860424 C52.4771475,51.6067138 52.4596434,51.8962898 52.4460292,52.2033569 C52.4226904,52.615371 52.4051864,53.0293286 52.3876823,53.4471731 C52.3876823,53.5793286 52.376013,53.7114841 52.3682334,53.8358657 C52.3682334,53.9077739 52.3682334,53.9777385 52.3526742,54.0477032 C52.3371151,54.1176678 52.3526742,54.1876325 52.3371151,54.2556537 C52.3215559,54.3236749 52.3215559,54.4266784 52.3118314,54.5121908 C52.3137842,54.5171897 52.3137842,54.5227396 52.3118314,54.5277385 C52.3001621,54.6443463 52.2865478,54.7609541 52.2729335,54.8756184 C50.7938041,53.329494 48.9571374,52.1702426 46.9244733,51.4998233 C43.0230146,50.2074205 38.2871961,49.2765018 33.1779579,48.7789753 C30.997731,48.5651943 28.7474878,48.4310954 26.4661264,48.3805654 C25.2116694,48.3533569 23.8230146,48.34947 22.3273906,48.3805654 C20.271637,48.4291519 18.0155592,48.5515901 15.6291734,48.790636 C15.6745543,48.0521201 15.7244733,47.3220259 15.7789303,46.6003534 C15.7925446,46.4060071 15.8081037,46.2116608 15.8256078,46.0173145 C15.8820097,45.284629 15.9461912,44.5577739 16.0200972,43.840636 C16.021171,43.8361648 16.021171,43.8315031 16.0200972,43.8270318 L16.043436,43.5821555 C16.0589951,43.4130742 16.0764992,43.2478799 16.0920583,43.080742 C16.0920583,42.9971731 16.1095624,42.9116608 16.117342,42.8280919 C16.1504052,42.5132509 16.1834684,42.2003534 16.2184765,41.8874558 C16.2534846,41.5745583 16.2884927,41.2480565 16.3254457,40.9312721 C16.3623987,40.6144876 16.3993517,40.2977032 16.4382496,39.9848057 C16.4849271,39.5961131 16.5335494,39.2074205 16.5841167,38.8187279 C16.615235,38.5893993 16.6444084,38.3620141 16.6755267,38.1365724 C16.7883306,37.3047703 16.9069692,36.4839812 17.0314425,35.6742049 L17.1306321,35.0289753 C17.1636953,34.8190813 17.1967585,34.6111307 17.2317666,34.4051237 C17.2745543,34.1408127 17.317342,33.8765018 17.3620746,33.6160777 C17.4106969,33.3226148 17.4612642,33.0330389 17.5118314,32.7415194 C17.5546191,32.4946996 17.5974068,32.2498233 17.6421394,32.0068905 C17.815235,31.035159 17.9980551,30.094523 18.184765,29.1616608 C18.184765,29.1519435 18.184765,29.1402827 18.184765,29.1325088 C18.184765,29.124735 18.184765,29.1325088 18.184765,29.1325088 C18.2061588,29.0664311 18.2256078,28.9984099 18.2489465,28.9381625 C21.0076335,31.4458628 23.9759973,33.7130844 27.1215559,35.7150177 L27.5319287,35.9734982 C29.2576985,37.0566549 31.0366288,38.0542992 32.8687196,38.9664311 C33.0807131,39.0733216 33.2965964,39.1782686 33.5105348,39.2832155 C34.9614263,39.9867491 36.4414911,40.6345701 37.9507293,41.2266784 C39.3938412,41.7902827 40.8615883,42.3001178 42.3539708,42.7561837 C42.6418152,42.8442874 42.9316045,42.9297998 43.2233387,43.0127208 C46.437902,43.9362003 49.7257995,44.5825024 53.0508914,44.944523 Z" id="Shape" stroke="#333333" stroke-width="0.972447326" fill="#D8CA48"></path>
                        <path d="M37.9487844,41.2130742 C37.1708266,43.7842756 35.6985413,47.7528269 33.1740681,48.7925795 C30.9938412,48.5787986 28.7435981,48.4446996 26.4622366,48.3941696 C25.2077796,48.3669611 23.8191248,48.3630742 22.3235008,48.3941696 C20.5497569,45.284629 20.8414911,40.6689046 19.0171799,40.414311 C17.889141,40.2588339 17.0275527,41.9010601 16.0123177,43.8464664 C16.0133914,43.8419951 16.0133914,43.8373335 16.0123177,43.8328622 L16.0356564,43.5879859 C16.0512156,43.4189046 16.0687196,43.2537102 16.0842788,43.0865724 C16.0842788,43.0030035 16.1017828,42.9174912 16.1095624,42.8339223 C16.1426256,42.5190813 16.1756888,42.2061837 16.2106969,41.8932862 C16.245705,41.5803887 16.2807131,41.2538869 16.3176661,40.9371025 C16.3546191,40.620318 16.3915721,40.3035336 16.43047,39.990636 C16.4771475,39.6019435 16.5257699,39.2132509 16.5763371,38.8245583 C16.6074554,38.5952297 16.6366288,38.3678445 16.6677472,38.1424028 C16.7805511,37.3106007 16.8991896,36.4898115 17.0236629,35.6800353 L17.1228525,35.0348057 C17.1559157,34.8249117 17.1889789,34.6169611 17.223987,34.4109541 C17.2667747,34.1466431 17.3095624,33.8823322 17.354295,33.6219081 C17.4029173,33.3284452 17.4534846,33.0388693 17.5040519,32.7473498 C17.5468395,32.50053 17.5896272,32.2556537 17.6343598,32.0127208 C17.8074554,31.0409894 17.9902755,30.1003534 18.1769854,29.1674912 C18.1769854,29.1577739 18.1769854,29.1461131 18.1769854,29.1383392 C18.1769854,29.1305654 18.1769854,29.1383392 18.1769854,29.1383392 C18.1905997,29.0664311 18.2061588,28.9925795 18.221718,28.9206714 L18.2411669,28.9381625 C20.9998539,31.4458628 23.9682177,33.7130844 27.1137763,35.7150177 L27.5241491,35.9734982 C29.249919,37.0566549 31.0288493,38.0542992 32.86094,38.9664311 C33.0729335,39.0733216 33.2888169,39.1782686 33.5027553,39.2832155 C34.9575365,39.9789753 36.4395462,40.6222615 37.9487844,41.2130742 Z" id="Shape" stroke="#333333" stroke-width="0.972447326" fill="#B092C2" stroke-linecap="round" stroke-linejoin="round"></path>
                        <path d="M104.862885,48.7809187 C102.812966,48.5768551 100.860292,48.4621908 99.0495948,48.4038869 C97.2388979,48.345583 95.5954619,48.3436396 94.1231767,48.3766784 C91.6881686,48.4291519 89.2881686,48.5710247 86.9698541,48.8178445 C82.0278768,49.3270318 77.4515397,50.2424028 73.6628849,51.4978799 C71.6033205,52.1773992 69.7452632,53.3582002 68.2560778,54.9339223 C68.2269044,54.6657244 68.2055105,54.3936396 68.1899514,54.1196113 C67.9954619,50.8060071 67.6784441,47.6964664 67.2583468,44.7657244 L67.328363,44.7560071 L67.9896272,44.6666078 L68.3222042,44.6180212 C68.6042139,44.5772085 68.8842788,44.5344523 69.1643436,44.4878092 C69.4444084,44.4411661 69.7264182,44.3964664 70.0045381,44.3478799 L70.0298217,44.3478799 C70.2632091,44.3070671 70.4946515,44.2662544 70.726094,44.2215548 L70.8564019,44.1982332 L71.3581848,44.0991166 C72.0285251,43.9695524 72.6962723,43.8257362 73.3614263,43.6676678 L73.7640194,43.5724382 L73.9915721,43.5180212 C74.2444084,43.4577739 74.4952998,43.3936396 74.7461912,43.3236749 C74.8142626,43.3081272 74.8842788,43.290636 74.9523501,43.269258 C75.1740681,43.2128975 75.3957861,43.1545936 75.6175041,43.0924028 C75.7419773,43.0613074 75.8664506,43.0263251 75.9889789,42.9913428 C76.1523501,42.9466431 76.3157212,42.9 76.4771475,42.8514134 C76.6385737,42.8028269 76.8291734,42.7503534 77.0042139,42.6978799 L77.3076175,42.6065371 L77.8327391,42.4471731 L78.4337115,42.2528269 C79.2038898,42.002768 79.9682334,41.7378092 80.7267423,41.4579505 C80.9815235,41.3666078 81.2363047,41.2636042 81.4910859,41.1722615 L81.5338736,41.1567138 C81.7536467,41.0731449 81.9734198,40.9876325 82.191248,40.9001767 C82.4090762,40.8127208 82.5802269,40.7427562 82.7844408,40.6611307 L83.0236629,40.5639576 L83.5779579,40.330742 C83.7724473,40.2491166 83.9669368,40.1636042 84.1614263,40.0780919 L84.7001621,39.8409894 C85.2188006,39.6077739 85.7374392,39.3680801 86.2560778,39.1219081 C86.7747164,38.8757362 87.2842788,38.623086 87.784765,38.3639576 C92.2856603,36.0547686 96.5015273,33.2286494 100.34684,29.9429329 C100.516045,29.7991166 100.683306,29.6553004 100.848622,29.5095406 C100.984765,29.3929329 101.120908,29.2724382 101.255105,29.1538869 L101.389303,29.0333922 L101.739384,28.7204947 L101.836629,28.6310954 C102.564019,31.8708481 103.215559,35.3088339 103.754295,38.9664311 C104.215235,42.0837456 104.592545,45.3526502 104.862885,48.7809187 Z" id="Shape" stroke="#333333" stroke-width="0.972447326" fill="#D8CA48"></path>
                        <path d="M103.75624,38.9742049 C103.266126,38.4766784 102.766288,38.2162544 102.233387,38.3173145 C100.094003,38.7196113 101.120908,44.730742 99.0495948,48.4116608 C97.2525122,48.3514134 95.5954619,48.3514134 94.1231767,48.3844523 C91.6881686,48.4369258 89.2881686,48.5787986 86.9698541,48.8256184 C84.8110211,48.4699647 80.8220421,43.7959364 81.5241491,41.1644876 C81.7439222,41.0809187 81.9636953,40.9954064 82.1815235,40.9079505 C82.3993517,40.8204947 82.5705024,40.75053 82.7747164,40.6689046 L83.0139384,40.5717314 L83.5682334,40.3385159 C83.7627229,40.2568905 83.9572123,40.1713781 84.1517018,40.0858657 L84.6904376,39.8487633 C85.2090762,39.6155477 85.7277147,39.3758539 86.2463533,39.129682 C86.7649919,38.88351 87.2745543,38.6308598 87.7750405,38.3717314 C92.2759359,36.0625425 96.4918028,33.2364233 100.337115,29.9507067 C100.506321,29.8068905 100.673582,29.6630742 100.838898,29.5173145 C100.975041,29.4007067 101.111183,29.280212 101.245381,29.1616608 L101.379579,29.0411661 L101.72966,28.7282686 L101.826904,28.6388693 C102.565964,31.8727915 103.217504,35.3166078 103.75624,38.9742049 Z" id="Shape" stroke="#333333" stroke-width="0.972447326" fill="#B092C2" stroke-linecap="round" stroke-linejoin="round"></path>
                        <g id="Group" opacity="0.13" transform="translate(15.559157, 46.254417)" fill="#000000">
                            <path d="M36.8440843,6.82738516 C36.8440843,6.94982332 36.8440843,7.07420495 36.8285251,7.19664311 C36.8090762,7.67991755 36.7714749,8.15865724 36.7157212,8.63286219 C35.2352835,7.08418824 33.3965711,5.92290807 31.3614263,5.25123675 C25.7951378,3.40689046 18.5251216,2.29717314 10.9011345,2.13003534 C7.28440873,2.04866235 3.66607578,2.1869028 0.0661264182,2.54399293 C0.105024311,1.88515901 0.149756888,1.23409894 0.198379254,0.586925795 C3.75291441,0.241548323 7.32486892,0.107860878 10.8952998,0.186572438 C18.5231767,0.353710247 25.7893031,1.46342756 31.3555916,3.30777385 C33.4534666,3.99839283 35.3418185,5.20933816 36.8440843,6.82738516 Z" id="Shape"></path>
                            <path d="M89.3037277,2.52650177 C85.7380086,2.18346378 82.1549604,2.05366822 78.5737439,2.13780919 C70.9458671,2.304947 63.6797407,3.41466431 58.1134522,5.2590106 C56.0534411,5.93856643 54.195245,7.12012363 52.7066451,8.69699647 C52.6774716,8.42685512 52.6560778,8.15477032 52.6405186,7.88074205 C52.6210697,7.54840989 52.6016207,7.21996466 52.578282,6.89151943 C54.0869697,5.24616631 55.9927384,4.01495304 58.1134522,3.3155477 C63.6797407,1.47120141 70.9497569,0.361484099 78.5737439,0.19434629 C82.1024722,0.116557137 85.6327238,0.246345687 89.1461912,0.583038869 C89.1980551,1.22438163 89.2505673,1.87220259 89.3037277,2.52650177 Z" id="Shape"></path>
                        </g>
                        <g id="Group" opacity="0.13" transform="translate(17.698541, 28.568905)" fill="#000000">
                            <path d="M0.529011345,0.34204947 C9.97147488,8.9204947 22.0453809,14.9180212 35.354295,16.3736749 C35.2414911,17.3156066 35.1416532,18.2763251 35.0547812,19.2558304 C21.6350081,17.7166078 9.4910859,11.5636042 0.0466774716,2.81607774 C0.202269044,1.97520612 0.363047002,1.15053004 0.529011345,0.34204947 Z" id="Shape"></path>
                            <path d="M84.665154,2.5090106 C75.3763371,11.1166078 63.3743922,17.2482332 49.9312804,19.069258 C49.8184765,18.0962309 49.6946515,17.1413428 49.5598055,16.2045936 C62.9017828,14.4787986 74.843436,8.50848057 84.1400324,0.0738515901 C84.3189627,0.874558304 84.4940032,1.68627797 84.665154,2.5090106 Z" id="Shape"></path>
                        </g>
                    </g>
                </g>
            </g>
        </g>
    </g>
</svg>